<?xml version="1.0" encoding="UTF-8" standalone="no"?>
<!-- Created with Inkscape (http://www.inkscape.org/) -->

<svg
   xmlns:dc="http://purl.org/dc/elements/1.1/"
   xmlns:cc="http://creativecommons.org/ns#"
   xmlns:rdf="http://www.w3.org/1999/02/22-rdf-syntax-ns#"
   xmlns:svg="http://www.w3.org/2000/svg"
   xmlns="http://www.w3.org/2000/svg"
   xmlns:sodipodi="http://sodipodi.sourceforge.net/DTD/sodipodi-0.dtd"
   xmlns:inkscape="http://www.inkscape.org/namespaces/inkscape"
   width="64"
   height="64"
   viewBox="0 0 64 64.000003"
   version="1.1"
   id="svg8"
   inkscape:version="0.92.5 (2060ec1f9f, 2020-04-08)"
   sodipodi:docname="button_night_mode.svg">
  <defs
     id="defs2" />
  <sodipodi:namedview
     id="base"
     pagecolor="#ffffff"
     bordercolor="#666666"
     borderopacity="1.0"
     inkscape:pageopacity="0.0"
     inkscape:pageshadow="2"
     inkscape:zoom="4"
     inkscape:cx="28.808991"
     inkscape:cy="23.473206"
     inkscape:document-units="px"
     inkscape:current-layer="layer1"
     showgrid="false"
     units="px"
     inkscape:pagecheckerboard="true"
     inkscape:window-width="1366"
     inkscape:window-height="706"
     inkscape:window-x="-8"
     inkscape:window-y="-8"
     inkscape:window-maximized="1"
     inkscape:snap-global="false" />
  <metadata
     id="metadata5">
    <rdf:RDF>
      <cc:Work
         rdf:about="">
        <dc:format>image/svg+xml</dc:format>
        <dc:type
           rdf:resource="http://purl.org/dc/dcmitype/StillImage" />
        <dc:title></dc:title>
      </cc:Work>
    </rdf:RDF>
  </metadata>
  <g
     inkscape:label="Layer 1"
     inkscape:groupmode="layer"
     id="layer1"
     transform="translate(0,-1058.5197)">
    <path
       style="color:#000000;font-style:normal;font-variant:normal;font-weight:normal;font-stretch:normal;font-size:medium;line-height:normal;font-family:sans-serif;font-variant-ligatures:normal;font-variant-position:normal;font-variant-caps:normal;font-variant-numeric:normal;font-variant-alternates:normal;font-feature-settings:normal;text-indent:0;text-align:start;text-decoration:none;text-decoration-line:none;text-decoration-style:solid;text-decoration-color:#000000;letter-spacing:normal;word-spacing:normal;text-transform:none;writing-mode:lr-tb;direction:ltr;text-orientation:mixed;dominant-baseline:auto;baseline-shift:baseline;text-anchor:start;white-space:normal;shape-padding:0;clip-rule:nonzero;display:inline;overflow:visible;visibility:visible;opacity:1;isolation:auto;mix-blend-mode:normal;color-interpolation:sRGB;color-interpolation-filters:linearRGB;solid-color:#000000;solid-opacity:1;vector-effect:none;fill:#ffffff;fill-opacity:1;fill-rule:nonzero;stroke:none;stroke-width:6.12761784;stroke-linecap:round;stroke-linejoin:bevel;stroke-miterlimit:4;stroke-dasharray:none;stroke-dashoffset:0;stroke-opacity:1;paint-order:markers fill stroke;color-rendering:auto;image-rendering:auto;shape-rendering:auto;text-rendering:auto;enable-background:accumulate"
       d="m 32,1059.5195 c -17.084538,0 -31,13.9155 -31,31 0,17.0846 13.915462,31 31,31 17.084538,0 31,-13.9154 31,-31 0,-17.0845 -13.915462,-31 -31,-31 z m 0,6.127 c 13.772927,0 24.873047,11.1001 24.873047,24.873 0,13.773 -11.10012,24.8731 -24.873047,24.8731 -13.772927,0 -24.8730469,-11.1001 -24.8730469,-24.8731 0,-13.7729 11.1001199,-24.873 24.8730469,-24.873 z"
       id="path4749"
       inkscape:connector-curvature="0" />
    <path
       style="opacity:1;fill:#ffffff;fill-opacity:1;fill-rule:nonzero;stroke:none;stroke-width:0.65983081;stroke-linecap:round;stroke-linejoin:round;stroke-miterlimit:4;stroke-dasharray:none;stroke-dashoffset:0;stroke-opacity:1;paint-order:markers fill stroke"
       d="m 35.462816,1074.2433 0.0018,0.013 a 0.3299484,0.3299484 0 0 0 -0.174373,0.5873 c 0.118224,0.094 0.234425,0.1897 0.350045,0.2867 0.401984,0.3635 0.784491,0.7472 1.148462,1.1487 0.366269,0.4047 0.712158,0.8261 1.036196,1.2655 0.324179,0.4388 0.626624,0.8946 0.905342,1.3635 0.278837,0.4692 0.532746,0.9504 0.763395,1.4451 0.230949,0.4946 0.43792,1.0014 0.618315,1.5166 0.180024,0.5152 0.334391,1.0383 0.462113,1.5691 0.127759,0.5309 0.228475,1.0682 0.302529,1.6092 0.07371,0.5407 0.119871,1.0842 0.139248,1.6297 0.02009,0.5453 0.01193,1.0901 -0.02251,1.6349 -0.0353,0.5441 -0.09599,1.0851 -0.185413,1.623 -0.06279,0.3813 -0.139476,0.7585 -0.229125,1.1344 -0.126981,0.5311 -0.28121,1.0553 -0.460593,1.5708 -0.179048,0.515 -0.384179,1.0212 -0.613734,1.5158 -0.229791,0.4953 -0.484444,0.9805 -0.762565,1.4504 -0.278261,0.4694 -0.579201,0.9228 -0.902917,1.3621 -0.323761,0.4399 -0.670008,0.8631 -1.0361,1.2684 -0.365484,0.4048 -0.748819,0.7923 -1.152844,1.1587 -0.404809,0.3662 -0.828572,0.7124 -1.267923,1.0364 -0.438901,0.3241 -0.894565,0.6267 -1.36362,0.9053 -0.469004,0.2789 -0.950493,0.5329 -1.445007,0.7635 -0.494513,0.2315 -1.001384,0.4381 -1.516632,0.6184 -0.515159,0.1803 -1.038582,0.3339 -1.56889,0.4628 -0.530083,0.1309 -1.068112,0.2285 -1.609181,0.3026 -0.53811,0.074 -1.079249,0.1195 -1.622145,0.1389 -0.273757,0 -0.545499,-7e-4 -0.818821,-0.013 a 0.3299484,0.3299484 0 0 0 -0.343001,0.2912 0.3299484,0.3299484 0 0 0 0.113166,0.2871 c 2.043964,1.7539 4.475116,2.9965 7.093262,3.6286 9.143674,2.1857 18.335966,-3.458 20.521705,-12.6017 2.185871,-9.1437 -3.45801,-18.3385 -12.601767,-20.5242 a 0.3299484,0.3299484 0 0 0 -0.0025,3e-4 c -1.017325,-0.238 -2.055759,-0.3578 -3.098554,-0.4055 a 16.699722,16.699722 0 0 0 -0.415677,-0.026 c -0.06956,0 -0.138294,-0.013 -0.20783,-0.014 a 0.3299484,0.3299484 0 0 0 -0.03091,0.011 z m 5.567044,32.3397 c -0.151879,0.056 -0.310469,0.099 -0.464313,0.1512 a 16.699722,16.699722 0 0 0 0.464313,-0.1512 z m -1.470915,0.4739 c -1.563531,0.4272 -3.201733,0.6245 -4.872056,0.5638 a 16.699722,16.699722 0 0 0 4.872056,-0.5638 z"
       id="path5003"
       inkscape:connector-curvature="0" />
    <path
       style="color:#000000;font-style:normal;font-variant:normal;font-weight:normal;font-stretch:normal;font-size:medium;line-height:normal;font-family:sans-serif;font-variant-ligatures:normal;font-variant-position:normal;font-variant-caps:normal;font-variant-numeric:normal;font-variant-alternates:normal;font-feature-settings:normal;text-indent:0;text-align:start;text-decoration:none;text-decoration-line:none;text-decoration-style:solid;text-decoration-color:#000000;letter-spacing:normal;word-spacing:normal;text-transform:none;writing-mode:lr-tb;direction:ltr;text-orientation:mixed;dominant-baseline:auto;baseline-shift:baseline;text-anchor:start;white-space:normal;shape-padding:0;clip-rule:nonzero;display:inline;overflow:visible;visibility:visible;opacity:1;isolation:auto;mix-blend-mode:normal;color-interpolation:sRGB;color-interpolation-filters:linearRGB;solid-color:#000000;solid-opacity:1;vector-effect:none;fill:#ffffff;fill-opacity:1;fill-rule:nonzero;stroke:none;stroke-width:1.25658059;stroke-linecap:round;stroke-linejoin:round;stroke-miterlimit:4;stroke-dasharray:none;stroke-dashoffset:0;stroke-opacity:1;paint-order:markers fill stroke;color-rendering:auto;image-rendering:auto;shape-rendering:auto;text-rendering:auto;enable-background:accumulate"
       d="M 22.919922 12.972656 A 0.62835315 0.62835315 0 0 0 22.794922 12.990234 A 0.62835315 0.62835315 0 0 0 22.384766 13.316406 L 19.458984 19.113281 L 12.998047 19.757812 A 0.62835315 0.62835315 0 0 0 12.617188 20.828125 L 17.224609 25.402344 L 15.839844 31.746094 A 0.62835315 0.62835315 0 0 0 16.740234 32.4375 L 22.515625 29.46875 L 28.119141 32.746094 A 0.62835315 0.62835315 0 0 0 29.058594 32.103516 L 28.017578 25.693359 L 32.867188 21.376953 A 0.62835315 0.62835315 0 0 0 32.546875 20.287109 L 26.128906 19.294922 L 23.521484 13.347656 A 0.62835315 0.62835315 0 0 0 22.919922 12.972656 z "
       transform="translate(0,1058.5197)"
       id="path6025" />
  </g>
</svg>
