<?xml version="1.0" encoding="UTF-8" standalone="no"?>
<svg
   xmlns:dc="http://purl.org/dc/elements/1.1/"
   xmlns:cc="http://creativecommons.org/ns#"
   xmlns:rdf="http://www.w3.org/1999/02/22-rdf-syntax-ns#"
   xmlns:svg="http://www.w3.org/2000/svg"
   xmlns="http://www.w3.org/2000/svg"
   xmlns:xlink="http://www.w3.org/1999/xlink"
   id="svg18661"
   version="1.1"
   viewBox="0 0 128 128"
   height="128"
   width="128">
  <defs
     id="defs18655">
    <linearGradient
       gradientUnits="userSpaceOnUse"
       y2="-58.117355"
       x2="49.206364"
       y1="-61.141167"
       x1="119.73674"
       id="linearGradient18563"
       gradientTransform="matrix(0.19939498,0,0,0.19939498,56.292734,294.0504)">
      <stop
         style="stop-color:#00aa00;stop-opacity:1"
         offset="0"
         id="stop18565" />
      <stop
         style="stop-color:#00d400;stop-opacity:1"
         offset="1"
         id="stop18567" />
    </linearGradient>

    <linearGradient
       gradientUnits="userSpaceOnUse"
       y2="-75.039185"
       x2="62.006531"
       y1="-70.228333"
       x1="-34.745037"
       id="linearGradient18561"
       gradientTransform="matrix(0.19939498,0,0,0.19939498,56.292734,294.0504)">
      <stop
         id="stop18555"
         offset="0"
         style="stop-color:#00ff00;stop-opacity:1" />
      <stop
         id="stop18557"
         offset="1"
         style="stop-color:#00aa00;stop-opacity:1" />
    </linearGradient>
	
  </defs>
  <metadata
     id="metadata18658">
    <rdf:RDF>
      <cc:Work
         rdf:about="">
        <dc:format>image/svg+xml</dc:format>
        <dc:type
           rdf:resource="http://purl.org/dc/dcmitype/StillImage" />
        <dc:title></dc:title>
      </cc:Work>
    </rdf:RDF>
  </metadata>
  <g
     transform="translate(0,-263.13332)"
     id="layer1">
    <path
       id="path18466"
       d="m 76.803156,328.94063 a 1.296197,1.296197 0 0 0 -0.822504,2.25642 l 9.806573,9.12739 -7.092541,7.47069 a 1.296197,1.296197 0 1 0 1.87984,1.78482 l 7.994103,-8.42015 a 1.296197,1.296197 0 0 0 -0.05725,-1.84129 L 77.746388,329.29969 a 1.296197,1.296197 0 0 0 -0.943232,-0.35906 z"
       style="color:#000000;font-style:normal;font-variant:normal;font-weight:normal;font-stretch:normal;font-size:medium;line-height:normal;font-family:sans-serif;font-variant-ligatures:normal;font-variant-position:normal;font-variant-caps:normal;font-variant-numeric:normal;font-variant-alternates:normal;font-feature-settings:normal;text-indent:0;text-align:start;text-decoration:none;text-decoration-line:none;text-decoration-style:solid;text-decoration-color:#000000;letter-spacing:normal;word-spacing:normal;text-transform:none;writing-mode:lr-tb;direction:ltr;text-orientation:mixed;dominant-baseline:auto;baseline-shift:baseline;text-anchor:start;white-space:normal;shape-padding:0;clip-rule:nonzero;display:inline;overflow:visible;visibility:visible;opacity:1;isolation:auto;mix-blend-mode:normal;color-interpolation:sRGB;color-interpolation-filters:linearRGB;solid-color:#000000;solid-opacity:1;vector-effect:none;fill:#1c241f;fill-opacity:1;fill-rule:nonzero;stroke:none;stroke-width:2.59213471;stroke-linecap:round;stroke-linejoin:round;stroke-miterlimit:4;stroke-dasharray:none;stroke-dashoffset:0;stroke-opacity:1;color-rendering:auto;image-rendering:auto;shape-rendering:auto;text-rendering:auto;enable-background:accumulate" />
    <path
       id="path18429"
       d="M 83.365173,379.49046 C 66.354518,362.47537 58.888739,349.90709 55.866397,339.92179 50.287438,321.48986 50.29306,318.50375 50.173275,310.82111 c -0.08814,-5.65321 7.476058,-9.89894 12.45025,-10.04968 4.974193,-0.15073 13.211568,0.95858 14.777202,6.57074 1.455234,5.21643 0.841964,7.06655 0.220742,17.36461 -0.273647,4.5363 -1.559859,21.47584 -0.829032,26.15219 1.180004,7.55051 6.572736,28.63149 6.572736,28.63149 z"
       style="fill:#ff7f2a;stroke:none;stroke-width:0.25223461;stroke-linecap:butt;stroke-linejoin:miter;stroke-miterlimit:4;stroke-dasharray:none;stroke-opacity:1" />
    <circle
       r="5.010623"
       cy="318.67435"
       cx="57.314377"
       id="path18431"
       style="opacity:1;fill:#1c241f;fill-opacity:1;fill-rule:nonzero;stroke:none;stroke-width:0.32881194;stroke-linecap:round;stroke-linejoin:round;stroke-miterlimit:4;stroke-dasharray:none;stroke-dashoffset:0;stroke-opacity:1;paint-order:markers fill stroke" />
    <circle
       r="2.0377774"
       cy="317.36603"
       cx="56.583572"
       id="path18433"
       style="opacity:1;fill:#b7bec8;fill-opacity:1;fill-rule:nonzero;stroke:none;stroke-width:0.28416565;stroke-linecap:round;stroke-linejoin:round;stroke-miterlimit:4;stroke-dasharray:none;stroke-dashoffset:0;stroke-opacity:1;paint-order:markers fill stroke" />
    <circle
       r="0.96038395"
       cy="320.92685"
       cx="59.440529"
       id="path18435"
       style="opacity:1;fill:#b7bec8;fill-opacity:1;fill-rule:nonzero;stroke:none;stroke-width:0.2457051;stroke-linecap:round;stroke-linejoin:round;stroke-miterlimit:4;stroke-dasharray:none;stroke-dashoffset:0;stroke-opacity:1;paint-order:markers fill stroke" />
    <circle
       r="5.010623"
       cy="318.62595"
       cx="71.389038"
       id="path18431-3"
       style="opacity:1;fill:#1c241f;fill-opacity:1;fill-rule:nonzero;stroke:none;stroke-width:0.32881194;stroke-linecap:round;stroke-linejoin:round;stroke-miterlimit:4;stroke-dasharray:none;stroke-dashoffset:0;stroke-opacity:1;paint-order:markers fill stroke" />
    <circle
       r="2.0377774"
       cy="317.31766"
       cx="70.658234"
       id="path18433-4"
       style="opacity:1;fill:#b7bec8;fill-opacity:1;fill-rule:nonzero;stroke:none;stroke-width:0.28416565;stroke-linecap:round;stroke-linejoin:round;stroke-miterlimit:4;stroke-dasharray:none;stroke-dashoffset:0;stroke-opacity:1;paint-order:markers fill stroke" />
    <circle
       r="0.96038395"
       cy="320.87848"
       cx="73.51519"
       id="path18435-9"
       style="opacity:1;fill:#b7bec8;fill-opacity:1;fill-rule:nonzero;stroke:none;stroke-width:0.2457051;stroke-linecap:round;stroke-linejoin:round;stroke-miterlimit:4;stroke-dasharray:none;stroke-dashoffset:0;stroke-opacity:1;paint-order:markers fill stroke" />
    <path
       id="path18460"
       d="m 60.48665,326.48908 a 0.99707463,0.99707463 0 0 0 -0.79758,1.57257 c 1.536123,2.23835 3.796132,2.61775 5.136758,2.5415 3.075984,-0.17494 4.41356,-2.65639 4.41356,-2.65639 a 0.99707463,0.99707463 0 1 0 -1.780145,-0.89845 c 0,0 -0.644656,1.44448 -2.746354,1.56401 -0.925465,0.0526 -2.277884,-0.0736 -3.379589,-1.67889 a 0.99707463,0.99707463 0 0 0 -0.84665,-0.44435 z"
       style="color:#000000;font-style:normal;font-variant:normal;font-weight:normal;font-stretch:normal;font-size:medium;line-height:normal;font-family:sans-serif;font-variant-ligatures:normal;font-variant-position:normal;font-variant-caps:normal;font-variant-numeric:normal;font-variant-alternates:normal;font-feature-settings:normal;text-indent:0;text-align:start;text-decoration:none;text-decoration-line:none;text-decoration-style:solid;text-decoration-color:#000000;letter-spacing:normal;word-spacing:normal;text-transform:none;writing-mode:lr-tb;direction:ltr;text-orientation:mixed;dominant-baseline:auto;baseline-shift:baseline;text-anchor:start;white-space:normal;shape-padding:0;clip-rule:nonzero;display:inline;overflow:visible;visibility:visible;opacity:1;isolation:auto;mix-blend-mode:normal;color-interpolation:sRGB;color-interpolation-filters:linearRGB;solid-color:#000000;solid-opacity:1;vector-effect:none;fill:#1c1f24;fill-opacity:1;fill-rule:nonzero;stroke:none;stroke-width:1.99394977;stroke-linecap:round;stroke-linejoin:miter;stroke-miterlimit:4;stroke-dasharray:none;stroke-dashoffset:0;stroke-opacity:1;color-rendering:auto;image-rendering:auto;shape-rendering:auto;text-rendering:auto;enable-background:accumulate" />
    <path
       id="path18464"
       d="m 55.825403,332.03008 a 1.296197,1.296197 0 0 0 -0.970882,0.49965 l -9.805794,12.25734 a 1.296197,1.296197 0 0 0 0.599353,2.03796 l 13.642589,4.58336 a 1.296197,1.296197 0 1 0 0.82562,-2.45739 l -11.885421,-3.99257 8.647589,-10.8094 a 1.296197,1.296197 0 0 0 -1.053054,-2.11895 z"
       style="color:#000000;font-style:normal;font-variant:normal;font-weight:normal;font-stretch:normal;font-size:medium;line-height:normal;font-family:sans-serif;font-variant-ligatures:normal;font-variant-position:normal;font-variant-caps:normal;font-variant-numeric:normal;font-variant-alternates:normal;font-feature-settings:normal;text-indent:0;text-align:start;text-decoration:none;text-decoration-line:none;text-decoration-style:solid;text-decoration-color:#000000;letter-spacing:normal;word-spacing:normal;text-transform:none;writing-mode:lr-tb;direction:ltr;text-orientation:mixed;dominant-baseline:auto;baseline-shift:baseline;text-anchor:start;white-space:normal;shape-padding:0;clip-rule:nonzero;display:inline;overflow:visible;visibility:visible;opacity:1;isolation:auto;mix-blend-mode:normal;color-interpolation:sRGB;color-interpolation-filters:linearRGB;solid-color:#000000;solid-opacity:1;vector-effect:none;fill:#1c241f;fill-opacity:1;fill-rule:nonzero;stroke:none;stroke-width:2.59213471;stroke-linecap:round;stroke-linejoin:round;stroke-miterlimit:4;stroke-dasharray:none;stroke-dashoffset:0;stroke-opacity:1;color-rendering:auto;image-rendering:auto;shape-rendering:auto;text-rendering:auto;enable-background:accumulate" />
    <path
       id="path18468"
       d="m 63.855724,345.65086 a 0.89736714,0.89736714 0 0 0 -0.553788,0.20289 l -3.610919,2.87098 a 0.89736714,0.89736714 0 1 0 1.116923,1.40472 l 3.610919,-2.87137 a 0.89736714,0.89736714 0 0 0 -0.563135,-1.60722 z"
       style="color:#000000;font-style:normal;font-variant:normal;font-weight:normal;font-stretch:normal;font-size:medium;line-height:normal;font-family:sans-serif;font-variant-ligatures:normal;font-variant-position:normal;font-variant-caps:normal;font-variant-numeric:normal;font-variant-alternates:normal;font-feature-settings:normal;text-indent:0;text-align:start;text-decoration:none;text-decoration-line:none;text-decoration-style:solid;text-decoration-color:#000000;letter-spacing:normal;word-spacing:normal;text-transform:none;writing-mode:lr-tb;direction:ltr;text-orientation:mixed;dominant-baseline:auto;baseline-shift:baseline;text-anchor:start;white-space:normal;shape-padding:0;clip-rule:nonzero;display:inline;overflow:visible;visibility:visible;opacity:1;isolation:auto;mix-blend-mode:normal;color-interpolation:sRGB;color-interpolation-filters:linearRGB;solid-color:#000000;solid-opacity:1;vector-effect:none;fill:#1c241f;fill-opacity:1;fill-rule:nonzero;stroke:none;stroke-width:1.79455495;stroke-linecap:round;stroke-linejoin:miter;stroke-miterlimit:4;stroke-dasharray:none;stroke-dashoffset:0;stroke-opacity:1;color-rendering:auto;image-rendering:auto;shape-rendering:auto;text-rendering:auto;enable-background:accumulate" />
    <path
       id="path18468-5"
       d="m 59.902485,349.82959 a 0.89736714,0.89736714 0 0 0 -0.491088,1.65045 l 3.835237,2.56371 a 0.89736714,0.89736714 0 1 0 0.997365,-1.49196 l -3.835238,-2.56371 a 0.89736714,0.89736714 0 0 0 -0.506276,-0.15849 z"
       style="color:#000000;font-style:normal;font-variant:normal;font-weight:normal;font-stretch:normal;font-size:medium;line-height:normal;font-family:sans-serif;font-variant-ligatures:normal;font-variant-position:normal;font-variant-caps:normal;font-variant-numeric:normal;font-variant-alternates:normal;font-feature-settings:normal;text-indent:0;text-align:start;text-decoration:none;text-decoration-line:none;text-decoration-style:solid;text-decoration-color:#000000;letter-spacing:normal;word-spacing:normal;text-transform:none;writing-mode:lr-tb;direction:ltr;text-orientation:mixed;dominant-baseline:auto;baseline-shift:baseline;text-anchor:start;white-space:normal;shape-padding:0;clip-rule:nonzero;display:inline;overflow:visible;visibility:visible;opacity:1;isolation:auto;mix-blend-mode:normal;color-interpolation:sRGB;color-interpolation-filters:linearRGB;solid-color:#000000;solid-opacity:1;vector-effect:none;fill:#1c241f;fill-opacity:1;fill-rule:nonzero;stroke:none;stroke-width:1.79455495;stroke-linecap:round;stroke-linejoin:miter;stroke-miterlimit:4;stroke-dasharray:none;stroke-dashoffset:0;stroke-opacity:1;color-rendering:auto;image-rendering:auto;shape-rendering:auto;text-rendering:auto;enable-background:accumulate" />
    <path
       id="path18468-7"
       d="m 60.333599,349.12391 a 0.89736714,0.89736714 0 0 0 -0.0331,1.79339 l 4.602441,0.31584 a 0.89736714,0.89736714 0 1 0 0.122675,-1.79027 l -4.602444,-0.31585 a 0.89736714,0.89736714 0 0 0 -0.08957,-0.003 z"
       style="color:#000000;font-style:normal;font-variant:normal;font-weight:normal;font-stretch:normal;font-size:medium;line-height:normal;font-family:sans-serif;font-variant-ligatures:normal;font-variant-position:normal;font-variant-caps:normal;font-variant-numeric:normal;font-variant-alternates:normal;font-feature-settings:normal;text-indent:0;text-align:start;text-decoration:none;text-decoration-line:none;text-decoration-style:solid;text-decoration-color:#000000;letter-spacing:normal;word-spacing:normal;text-transform:none;writing-mode:lr-tb;direction:ltr;text-orientation:mixed;dominant-baseline:auto;baseline-shift:baseline;text-anchor:start;white-space:normal;shape-padding:0;clip-rule:nonzero;display:inline;overflow:visible;visibility:visible;opacity:1;isolation:auto;mix-blend-mode:normal;color-interpolation:sRGB;color-interpolation-filters:linearRGB;solid-color:#000000;solid-opacity:1;vector-effect:none;fill:#1c241f;fill-opacity:1;fill-rule:nonzero;stroke:none;stroke-width:1.79455495;stroke-linecap:round;stroke-linejoin:miter;stroke-miterlimit:4;stroke-dasharray:none;stroke-dashoffset:0;stroke-opacity:1;color-rendering:auto;image-rendering:auto;shape-rendering:auto;text-rendering:auto;enable-background:accumulate" />
    <path
       id="path18468-4"
       d="m 78.945875,347.98517 a 0.89736714,0.89736714 0 0 0 -0.407359,0.0931 l -4.163149,1.98693 a 0.89736714,0.89736714 0 1 0 0.773045,1.6197 l 4.16315,-1.98733 a 0.89736714,0.89736714 0 0 0 -0.365687,-1.71239 z"
       style="color:#000000;font-style:normal;font-variant:normal;font-weight:normal;font-stretch:normal;font-size:medium;line-height:normal;font-family:sans-serif;font-variant-ligatures:normal;font-variant-position:normal;font-variant-caps:normal;font-variant-numeric:normal;font-variant-alternates:normal;font-feature-settings:normal;text-indent:0;text-align:start;text-decoration:none;text-decoration-line:none;text-decoration-style:solid;text-decoration-color:#000000;letter-spacing:normal;word-spacing:normal;text-transform:none;writing-mode:lr-tb;direction:ltr;text-orientation:mixed;dominant-baseline:auto;baseline-shift:baseline;text-anchor:start;white-space:normal;shape-padding:0;clip-rule:nonzero;display:inline;overflow:visible;visibility:visible;opacity:1;isolation:auto;mix-blend-mode:normal;color-interpolation:sRGB;color-interpolation-filters:linearRGB;solid-color:#000000;solid-opacity:1;vector-effect:none;fill:#1c241f;fill-opacity:1;fill-rule:nonzero;stroke:none;stroke-width:1.79455495;stroke-linecap:round;stroke-linejoin:miter;stroke-miterlimit:4;stroke-dasharray:none;stroke-dashoffset:0;stroke-opacity:1;color-rendering:auto;image-rendering:auto;shape-rendering:auto;text-rendering:auto;enable-background:accumulate" />
    <path
       id="path18468-2"
       d="m 74.935776,345.58932 a 0.89736714,0.89736714 0 0 0 -0.41943,1.67033 l 3.942724,2.39507 a 0.89736714,0.89736714 0 1 0 0.931938,-1.53362 l -3.942725,-2.39508 a 0.89736714,0.89736714 0 0 0 -0.512507,-0.1367 z"
       style="color:#000000;font-style:normal;font-variant:normal;font-weight:normal;font-stretch:normal;font-size:medium;line-height:normal;font-family:sans-serif;font-variant-ligatures:normal;font-variant-position:normal;font-variant-caps:normal;font-variant-numeric:normal;font-variant-alternates:normal;font-feature-settings:normal;text-indent:0;text-align:start;text-decoration:none;text-decoration-line:none;text-decoration-style:solid;text-decoration-color:#000000;letter-spacing:normal;word-spacing:normal;text-transform:none;writing-mode:lr-tb;direction:ltr;text-orientation:mixed;dominant-baseline:auto;baseline-shift:baseline;text-anchor:start;white-space:normal;shape-padding:0;clip-rule:nonzero;display:inline;overflow:visible;visibility:visible;opacity:1;isolation:auto;mix-blend-mode:normal;color-interpolation:sRGB;color-interpolation-filters:linearRGB;solid-color:#000000;solid-opacity:1;vector-effect:none;fill:#1c241f;fill-opacity:1;fill-rule:nonzero;stroke:none;stroke-width:1.79455495;stroke-linecap:round;stroke-linejoin:miter;stroke-miterlimit:4;stroke-dasharray:none;stroke-dashoffset:0;stroke-opacity:1;color-rendering:auto;image-rendering:auto;shape-rendering:auto;text-rendering:auto;enable-background:accumulate" />
    <path
       id="path18468-50"
       d="m 79.806545,348.29946 a 0.89736714,0.89736714 0 0 0 -0.798358,0.44669 l -2.371713,3.95674 a 0.89736714,0.89736714 0 1 0 1.539079,0.9226 l 2.371711,-3.95675 a 0.89736714,0.89736714 0 0 0 -0.740719,-1.36928 z"
       style="color:#000000;font-style:normal;font-variant:normal;font-weight:normal;font-stretch:normal;font-size:medium;line-height:normal;font-family:sans-serif;font-variant-ligatures:normal;font-variant-position:normal;font-variant-caps:normal;font-variant-numeric:normal;font-variant-alternates:normal;font-feature-settings:normal;text-indent:0;text-align:start;text-decoration:none;text-decoration-line:none;text-decoration-style:solid;text-decoration-color:#000000;letter-spacing:normal;word-spacing:normal;text-transform:none;writing-mode:lr-tb;direction:ltr;text-orientation:mixed;dominant-baseline:auto;baseline-shift:baseline;text-anchor:start;white-space:normal;shape-padding:0;clip-rule:nonzero;display:inline;overflow:visible;visibility:visible;opacity:1;isolation:auto;mix-blend-mode:normal;color-interpolation:sRGB;color-interpolation-filters:linearRGB;solid-color:#000000;solid-opacity:1;vector-effect:none;fill:#1c241f;fill-opacity:1;fill-rule:nonzero;stroke:none;stroke-width:1.79455495;stroke-linecap:round;stroke-linejoin:miter;stroke-miterlimit:4;stroke-dasharray:none;stroke-dashoffset:0;stroke-opacity:1;color-rendering:auto;image-rendering:auto;shape-rendering:auto;text-rendering:auto;enable-background:accumulate" />
    <ellipse
       ry="2.1744511"
       rx="4.2652693"
       cy="302.61456"
       cx="64.106506"
       id="path18571"
       style="opacity:1;fill:#00aa00;fill-opacity:1;fill-rule:nonzero;stroke:none;stroke-width:3.79234886;stroke-linecap:round;stroke-linejoin:round;stroke-miterlimit:4;stroke-dasharray:none;stroke-dashoffset:0;stroke-opacity:1;paint-order:markers fill stroke" />
    <path
       id="path18518"
       d="M 63.200006,303.01902 58.564653,289.98636"
       style="fill:none;stroke:#00aa00;stroke-width:2.39273977;stroke-linecap:butt;stroke-linejoin:miter;stroke-miterlimit:4;stroke-dasharray:none;stroke-opacity:1" />
    <path
       id="path18518-6"
       d="m 64.313169,302.95661 -0.05321,-13.7293"
       style="fill:none;stroke:#00aa00;stroke-width:2.39273977;stroke-linecap:butt;stroke-linejoin:miter;stroke-miterlimit:4;stroke-dasharray:none;stroke-opacity:1" />
    <path
       id="path18518-2"
       d="m 65.414589,303.19174 4.414622,-12.85811"
       style="fill:#00aa00;stroke:#00aa00;stroke-width:2.39273977;stroke-linecap:butt;stroke-linejoin:miter;stroke-miterlimit:4;stroke-dasharray:none;stroke-opacity:1" />
    <path
       id="path18543"
       d="m 52.029358,289.42664 c -1.027931,-2.29772 -0.717414,-4.11826 0.139349,-5.08707 0.653454,-0.73891 1.825289,-0.73715 1.779171,-1.52116 -0.04106,-0.69798 -0.95343,-0.40167 -1.959357,-0.55917 -1.605426,-0.25137 -3.267812,-1.94112 -3.156695,-3.81079 0.24269,-4.08353 3.160066,-5.54263 5.435985,-5.38512 1.313528,0.0909 2.423844,1.3519 2.930891,0.96187 0.532985,-0.40999 -0.203968,-0.9478 -0.454034,-2.08403 -0.40003,-1.81761 0.70248,-4.60457 4.344365,-4.5775 4.729011,0.0351 6.714817,3.94363 6.608233,5.86215 -0.06786,1.22149 -1.078134,3.28209 -2.405669,4.3191 -0.757536,0.59175 -1.979467,-0.11768 -1.537954,0.37061 0.506276,0.55991 1.600595,1.0241 3.594793,1.90544 1.481707,0.65484 2.861421,2.54652 2.906856,3.63695 0.106584,2.55802 -0.213169,6.71482 -7.887246,8.42017 -7.674077,1.70535 -10.338688,-2.45145 -10.338688,-2.45145 z"
       style="fill:url(#linearGradient18561);fill-opacity:1;stroke:none;stroke-width:0.45162964;stroke-linecap:butt;stroke-linejoin:miter;stroke-miterlimit:4;stroke-dasharray:none;stroke-opacity:1" />
    <path
       id="path18541"
       d="m 71.854057,292.73076 c 2.66461,0 6.608234,-1.59876 6.714818,-4.79629 0.106584,-3.19754 -5.009467,-3.19754 -5.222636,-4.47655 -0.114593,-0.68756 1.950452,-0.61423 3.819416,-2.45495 2.295377,-2.35323 2.70729,-4.03625 1.430216,-6.97851 -0.585193,-0.99385 -2.253518,-1.47118 -3.221877,-1.25892 -1.112775,0.24392 -2.097413,1.05013 -2.421083,0.90856 0.92561,-1.66983 1.807999,-3.17798 -0.365938,-4.87427 -1.793922,-1.37236 -6.202405,0.66261 -7.820778,2.08113 -2.936872,2.57419 -2.296959,5.79957 -1.231464,7.05561 0.886969,1.04559 3.0772,1.32391 2.883522,2.24388 -0.379045,1.80047 -3.943623,-0.13323 -4.902883,2.95772 -0.959259,3.09094 1.172429,7.78066 4.369961,8.8465 3.197532,1.06585 5.968726,0.74609 5.968726,0.74609 z"
       style="fill:url(#linearGradient18563);fill-opacity:1;stroke:none;stroke-width:0.45162964;stroke-linecap:butt;stroke-linejoin:miter;stroke-miterlimit:4;stroke-dasharray:none;stroke-opacity:1" />
    <rect
       id="rect23212"
       width="40.42857"
       height="40.42857"
       x="25.571428"
       y="348.20474"
       style="fill:none;stroke-width:1.68452382" />
    <path
       style="fill:#0c0c0c;fill-opacity:1;stroke-width:1.68452382"
       id="path23214"
       d="m 30.625,354.94284 v -5.05358 h 3.369048 v 5.05358 h 5.053571 v 3.36904 h -5.053571 v 5.05357 H 30.625 v -5.05357 h -5.053571 v -3.36904 z m 5.053572,10.10714 v -5.05357 h 5.053571 v -5.05357 H 52.52381 l 3.082678,3.36904 h 5.339941 c 1.852976,0 3.369047,1.51607 3.369047,3.36905 v 20.21429 c 0,1.85297 -1.516071,3.36904 -3.369047,3.36904 H 33.994048 c -1.852976,0 -3.369048,-1.51607 -3.369048,-3.36904 v -16.84524 z m 11.791666,15.16071 c 4.649286,0 8.422619,-3.77333 8.422619,-8.42262 0,-4.64928 -3.773333,-8.42262 -8.422619,-8.42262 -4.649285,0 -8.422619,3.77334 -8.422619,8.42262 0,4.64929 3.773334,8.42262 8.422619,8.42262 z m -5.390476,-8.42262 c 0,2.98161 2.408869,5.39048 5.390476,5.39048 2.981608,0 5.390477,-2.40887 5.390477,-5.39048 0,-2.9816 -2.408869,-5.39047 -5.390477,-5.39047 -2.981607,0 -5.390476,2.40887 -5.390476,5.39047 z" />
  </g>
</svg>
