<?xml version="1.0" encoding="UTF-8" standalone="no"?>
<svg
   xmlns:dc="http://purl.org/dc/elements/1.1/"
   xmlns:cc="http://creativecommons.org/ns#"
   xmlns:rdf="http://www.w3.org/1999/02/22-rdf-syntax-ns#"
   xmlns:svg="http://www.w3.org/2000/svg"
   xmlns="http://www.w3.org/2000/svg"
   id="svg8"
   version="1.1"
   viewBox="0 0 64 64"
   height="64"
   width="64">
  <defs
     id="defs2" />
  <metadata
     id="metadata5">
    <rdf:RDF>
      <cc:Work
         rdf:about="">
        <dc:format>image/svg+xml</dc:format>
        <dc:type
           rdf:resource="http://purl.org/dc/dcmitype/StillImage" />
        <dc:title></dc:title>
      </cc:Work>
    </rdf:RDF>
  </metadata>
  <g
     transform="translate(0,-280.06665)"
     id="layer1">
    <g
       transform="matrix(0.3856137,0,0,0.3856137,26.248594,190.35603)"
       id="g4954">
      <path
         style="color:#000000;font-style:normal;font-variant:normal;font-weight:normal;font-stretch:normal;font-size:medium;line-height:normal;font-family:sans-serif;font-variant-ligatures:normal;font-variant-position:normal;font-variant-caps:normal;font-variant-numeric:normal;font-variant-alternates:normal;font-feature-settings:normal;text-indent:0;text-align:start;text-decoration:none;text-decoration-line:none;text-decoration-style:solid;text-decoration-color:#000000;letter-spacing:normal;word-spacing:normal;text-transform:none;writing-mode:lr-tb;direction:ltr;text-orientation:mixed;dominant-baseline:auto;baseline-shift:baseline;text-anchor:start;white-space:normal;shape-padding:0;clip-rule:nonzero;display:inline;overflow:visible;visibility:visible;opacity:1;isolation:auto;mix-blend-mode:normal;color-interpolation:sRGB;color-interpolation-filters:linearRGB;solid-color:#000000;solid-opacity:1;vector-effect:none;fill:#a75e2e;fill-opacity:1;fill-rule:nonzero;stroke:none;stroke-width:3.20000005;stroke-linecap:round;stroke-linejoin:miter;stroke-miterlimit:4;stroke-dasharray:none;stroke-dashoffset:0;stroke-opacity:1;color-rendering:auto;image-rendering:auto;shape-rendering:auto;text-rendering:auto;enable-background:accumulate"
         d="m -36.641391,250.10334 c -1.40229,-0.0593 -2.23364,1.54796 -1.375,2.65821 0.075,0.0999 0.11523,0.16062 0.1875,0.25781 -0.26278,-0.11968 -0.51579,-0.2485 -0.79102,-0.35547 -0.19839,-0.0805 -0.41092,-0.12033 -0.625,-0.11719 -1.77039,0.0256 -2.19448,2.48189 -0.53515,3.09961 3.24133,1.25974 5.30626,3.51549 7.0039,6.58789 1.69765,3.07241 2.6201,6.93323 4.02344,11.01367 5.605391,20.64159 8.330293,39.50487 9.310547,62.42579 -0.01983,2.18206 6.492533,2.40535 6.414063,0.2246 -1.403472,-23.96227 -5.343798,-42.76024 -12.382813,-63.6914 -1.387166,-4.03343 -2.643131,-8.04232 -4.564453,-11.51953 -0.06336,-0.11466 -0.134194,-0.22436 -0.199214,-0.33789 0.08,0.0245 0.1487,0.0591 0.230464,0.082 1.90675,0.53389 5.895416,1.12227 10.705078,2.47461 4.809662,1.35233 10.2534385,3.42806 14.3730475,6.58203 21.4260625,19.02162 32.9003905,39.33203 32.9003905,39.33203 1.05339,1.98026 6.554643,-1.87232 5.425781,-3.81055 0,0 -12.830844,-19.70654 -36.3046865,-38.13086 l -0.0078,-0.006 -0.0078,-0.006 c -4.668464,-3.57418 -10.4640215,-5.72459 -15.4863295,-7.13671 -5.022307,-1.41213 -9.457054,-2.12657 -10.707031,-2.47657 -1.350484,-0.37813 -1.885904,-0.74455 -2.722654,-1.67578 -0.83676,-0.93123 -1.86711,-2.48687 -3.59961,-4.79687 -0.29635,-0.40721 -0.76243,-0.6568 -1.26563,-0.67774 z"
         id="path4873" />
      <path
         style="fill:#d40000;fill-opacity:1;stroke:none;stroke-width:1px;stroke-linecap:butt;stroke-linejoin:miter;stroke-opacity:1"
         d="m -37.053572,342.01307 c -6.696429,7.41072 -7.053571,19.73215 -5.267857,27.76787 1.785715,8.03571 10,16.78571 15.714286,19.82142 6.4719,4.04587 16.9642858,5.71429 28.0357144,3.57143 C 12.5,391.03094 23.571429,379.95951 25.892857,369.06665 28.214286,358.17379 26.67697,343.4556 10.714286,333.17379 c -12.2093901,-7.86426 -22.382704,-1.57743 -25,0 -1.239168,0.69263 -2.426034,0.98214 -4.642857,0.98214 -1.964286,0 -6.25,0.26786 -10.535715,2.05357 -4.285714,1.78572 -7.589286,5.80357 -7.589286,5.80357 z"
         id="path4758" />
      <path
         style="fill:#d40000;fill-opacity:1;stroke:none;stroke-width:0.99527258px;stroke-linecap:butt;stroke-linejoin:miter;stroke-opacity:1"
         d="m 15.157013,320.76554 c -4.348933,11.26459 -0.774705,22.84434 3.549481,30.05148 4.324182,7.20713 16.010946,12.70355 22.248845,13.82327 7.268564,1.85618 18.83403,1.62285 27.971279,-4.92589 12.178258,-8.72824 14.641245,-20.36436 13.111983,-31.64235 -1.529259,-11.27796 -7.865772,-25.02987 -25.894877,-29.90104 -13.789935,-3.72582 -20.97772,5.59292 -22.840325,7.95167 -0.900022,1.0643 -1.887347,1.72192 -3.912664,2.42703 -1.794599,0.62475 -5.799839,1.72875 -9.116939,4.81968 -3.317099,3.09096 -5.116783,7.39615 -5.116783,7.39615 z"
         id="path4758-3" />
      <path
         style="opacity:0.153;fill:#000000;stroke:none;stroke-width:1px;stroke-linecap:butt;stroke-linejoin:miter;stroke-opacity:1"
         d="m -9.5234375,50.728516 c -2.2550895,0.859717 -3.9116485,1.866573 -4.7617185,2.378906 -1.239168,0.69263 -2.425755,0.982422 -4.642578,0.982422 -1.964286,0 -6.251395,0.267024 -10.53711,2.052734 -4.285713,1.78572 -7.58789,5.804688 -7.58789,5.804688 -6.69643,7.41072 -7.055242,19.731858 -5.269532,27.767578 1.78572,8.03571 10.000558,16.784606 15.714844,19.820316 6.4719,4.04587 16.9637274,5.71512 28.0351564,3.57226 4.1388229,-0.80106 8.2772785,-2.85108 11.9589846,-5.67187 -9.0071406,2.32124 -17.6157293,1.98295 -23.576172,-0.50196 -6.085792,-2.04947 -15.46882,-9.246866 -18.394531,-16.755856 -2.925709,-7.50895 -4.351848,-19.506145 1.195312,-27.734375 0,0 1.702275,-3.06863 5.679688,-5.46875 3.67473,-2.217458 5.413586,0.532051 12.1855465,-6.246093 z"
         transform="translate(0,280.06665)"
         id="path4758-0" />
      <path
         style="opacity:0.15100002;fill:#000000;stroke:none;stroke-width:0.99527258px;stroke-linecap:butt;stroke-linejoin:miter;stroke-opacity:1"
         d="m 37.085938,22.048828 c -1.897267,1.615923 -3.153318,3.210144 -3.783204,4.007813 -0.900022,1.0643 -1.886792,1.720671 -3.912109,2.425781 -1.794599,0.62475 -5.800088,1.729382 -9.117187,4.820312 -3.317099,3.09096 -5.117188,7.396485 -5.117188,7.396485 -4.348933,11.26459 -0.773405,22.843641 3.550781,30.050781 4.324181,7.20713 16.010148,12.704499 22.248047,13.824219 7.268564,1.85618 18.833454,1.622959 27.970703,-4.925781 1.734464,-1.243102 3.25056,-2.552663 4.607422,-3.904297 -4.678315,2.295556 -9.611504,3.351199 -14.121094,3.349609 -6.302274,0.6682 -18.681605,-2.858822 -24.847656,-8.570312 -6.166058,-5.711491 -13.213095,-14.316517 -12.185547,-26.347657 0,0 0.524602,-4.63643 2.845703,-8.53125 2.321111,-3.8948 5.859709,-6.074391 7.408203,-7.175781 1.747561,-1.24303 2.511402,-2.150418 3.078126,-3.423828 0.259504,-0.640105 0.698132,-1.721704 1.375,-2.996094 z"
         transform="translate(0,280.06665)"
         id="path4758-3-5" />
      <path
         style="opacity:0.50199998;fill:#ffffff;fill-opacity:1;fill-rule:nonzero;stroke:none;stroke-width:0.70890677;stroke-linecap:round;stroke-linejoin:round;stroke-miterlimit:4;stroke-dasharray:none;stroke-dashoffset:0;stroke-opacity:1;paint-order:markers fill stroke"
         d="m 57.736866,304.99258 c -5.306419,-0.35998 -7.74679,1.09984 -1.673765,3.44238 4.363556,2.53495 5.818576,4.29769 6.470093,9.28823 0.105005,6.39419 10.005694,6.35712 8.92778,-0.8477 7.34e-4,-6.67118 -7.052927,-11.88263 -13.724108,-11.88291 z"
         id="path4840" />
      <path
         style="opacity:0.50199998;fill:#ffffff;fill-opacity:1;fill-rule:nonzero;stroke:none;stroke-width:0.73540574;stroke-linecap:round;stroke-linejoin:round;stroke-miterlimit:4;stroke-dasharray:none;stroke-dashoffset:0;stroke-opacity:1;paint-order:markers fill stroke"
         d="m 0.85871016,335.80318 c -5.27490686,-1.61782 -8.08495176,-0.72007 -2.50429076,3.08152 3.8084511,3.59191 4.8615245,5.71635 4.3400718,10.91125 -1.4052466,6.48357 8.6041558,8.78622 9.2182708,1.25389 1.577519,-6.73835 -4.3155891,-13.6696 -11.05405184,-15.24666 z"
         id="path4840-6" />
      <g
         id="g4934">
        <path
           id="path4882"
           d="m -27.274119,254.41561 c 2.272843,-10.35406 15.392208,-17.67766 25.506352,-17.67766 12.374369,-1e-5 27.02158,9.59644 36.112954,18.68781 7.955958,7.95596 15.404826,13.13199 15.404826,13.13199 0,0 -15.425962,10.17647 -37.123106,10.85914 -20.722496,0.652 -29.041885,-8.83884 -33.335034,-13.38452 -4.293148,-4.54569 -6.565992,-11.61676 -6.565992,-11.61676 z"
           style="fill:#88d949;fill-opacity:1;stroke:none;stroke-width:1px;stroke-linecap:butt;stroke-linejoin:miter;stroke-opacity:1" />
        <path
           id="path4882-1-1"
           d="m -21.542461,254.21124 c 2.077769,-7.70601 12.835689,-12.8648 20.996311,-12.60841 9.98429,0.31368 21.576355,7.88057 28.697575,14.92791 6.231859,6.16718 12.120059,10.23708 12.120059,10.23708 0,0 -12.686213,7.23944 -30.208687,7.20129 -16.735356,-0.0364 -23.224289,-7.36372 -26.58114,-10.88097 -3.35685,-3.51727 -5.024118,-8.8769 -5.024118,-8.8769 z"
           style="fill:#99ef56;fill-opacity:1;stroke:none;stroke-width:0.77819568px;stroke-linecap:butt;stroke-linejoin:miter;stroke-opacity:1" />
        <path
           id="path4882-1"
           transform="translate(0,280.06665)"
           d="m -0.54492188,-38.462891 c -7.76105632,-0.243836 -17.86628912,4.411153 -20.62500012,11.496094 7.989126,-0.493614 17.5134595,-0.806205 22.685547,0.05273 9.744619,1.618309 20.722873,7.220126 26.53125,9.998046 5.808377,2.77792 12.224609,3.617188 12.224609,3.617188 0,0 -5.887281,-4.069148 -12.11914,-10.236328 -7.12122,-7.04734 -18.7129758,-14.614055 -28.69726588,-14.927735 z"
           style="fill:#72c730;fill-opacity:1;stroke:none;stroke-width:0.77819568px;stroke-linecap:butt;stroke-linejoin:miter;stroke-opacity:1" />
      </g>
      <path
         style="color:#000000;font-style:normal;font-variant:normal;font-weight:normal;font-stretch:normal;font-size:medium;line-height:normal;font-family:sans-serif;font-variant-ligatures:normal;font-variant-position:normal;font-variant-caps:normal;font-variant-numeric:normal;font-variant-alternates:normal;font-feature-settings:normal;text-indent:0;text-align:start;text-decoration:none;text-decoration-line:none;text-decoration-style:solid;text-decoration-color:#000000;letter-spacing:normal;word-spacing:normal;text-transform:none;writing-mode:lr-tb;direction:ltr;text-orientation:mixed;dominant-baseline:auto;baseline-shift:baseline;text-anchor:start;white-space:normal;shape-padding:0;clip-rule:nonzero;display:inline;overflow:visible;visibility:visible;opacity:0.353;isolation:auto;mix-blend-mode:normal;color-interpolation:sRGB;color-interpolation-filters:linearRGB;solid-color:#000000;solid-opacity:1;vector-effect:none;fill:#ffffff;fill-opacity:1;fill-rule:nonzero;stroke:none;stroke-width:1.39999998;stroke-linecap:round;stroke-linejoin:miter;stroke-miterlimit:4;stroke-dasharray:none;stroke-dashoffset:0;stroke-opacity:1;color-rendering:auto;image-rendering:auto;shape-rendering:auto;text-rendering:auto;enable-background:accumulate"
         d="m -27.802734,269.51953 c -0.469311,0.022 -0.360079,0.5355 -0.202847,0.97823 5.089092,19.98689 9.34289,39.62354 11.057758,60.59766 0.08593,0.92969 2.641178,0.62222 2.555245,-0.30747 -2.039901,-24.01153 -6.135026,-41.0946 -12.712891,-60.78795 -0.09824,-0.2985 -0.383349,-0.49496 -0.697265,-0.48047 z"
         id="path4923" />
      <path
         style="color:#000000;font-style:normal;font-variant:normal;font-weight:normal;font-stretch:normal;font-size:medium;line-height:normal;font-family:sans-serif;font-variant-ligatures:normal;font-variant-position:normal;font-variant-caps:normal;font-variant-numeric:normal;font-variant-alternates:normal;font-feature-settings:normal;text-indent:0;text-align:start;text-decoration:none;text-decoration-line:none;text-decoration-style:solid;text-decoration-color:#000000;letter-spacing:normal;word-spacing:normal;text-transform:none;writing-mode:lr-tb;direction:ltr;text-orientation:mixed;dominant-baseline:auto;baseline-shift:baseline;text-anchor:start;white-space:normal;shape-padding:0;clip-rule:nonzero;display:inline;overflow:visible;visibility:visible;opacity:0.35100002;isolation:auto;mix-blend-mode:normal;color-interpolation:sRGB;color-interpolation-filters:linearRGB;solid-color:#000000;solid-opacity:1;vector-effect:none;fill:#ffffff;fill-opacity:1;fill-rule:nonzero;stroke:none;stroke-width:0.80000001;stroke-linecap:butt;stroke-linejoin:miter;stroke-miterlimit:4;stroke-dasharray:none;stroke-dashoffset:0;stroke-opacity:1;color-rendering:auto;image-rendering:auto;shape-rendering:auto;text-rendering:auto;enable-background:accumulate"
         d="m 15.267164,285.22455 -0.424169,0.96005 c 6.557643,7.52828 10.54563,13.42464 15.008055,19.45646 l 2.025388,-1.32639 c -5.651503,-6.99366 -9.499247,-12.84208 -16.609274,-19.09012 z"
         id="path4927" />
      <path
         style="color:#000000;font-style:normal;font-variant:normal;font-weight:normal;font-stretch:normal;font-size:medium;line-height:normal;font-family:sans-serif;font-variant-ligatures:normal;font-variant-position:normal;font-variant-caps:normal;font-variant-numeric:normal;font-variant-alternates:normal;font-feature-settings:normal;text-indent:0;text-align:start;text-decoration:none;text-decoration-line:none;text-decoration-style:solid;text-decoration-color:#000000;letter-spacing:normal;word-spacing:normal;text-transform:none;writing-mode:lr-tb;direction:ltr;text-orientation:mixed;dominant-baseline:auto;baseline-shift:baseline;text-anchor:start;white-space:normal;shape-padding:0;clip-rule:nonzero;display:inline;overflow:visible;visibility:visible;opacity:1;isolation:auto;mix-blend-mode:normal;color-interpolation:sRGB;color-interpolation-filters:linearRGB;solid-color:#000000;solid-opacity:1;vector-effect:none;fill:#88d949;fill-opacity:1;fill-rule:nonzero;stroke:none;stroke-width:3.29999995;stroke-linecap:round;stroke-linejoin:miter;stroke-miterlimit:4;stroke-dasharray:none;stroke-dashoffset:0;stroke-opacity:1;color-rendering:auto;image-rendering:auto;shape-rendering:auto;text-rendering:auto;enable-background:accumulate"
         d="m -26.285156,252.74414 c -3.569148,0.1942 -7.910279,1.12239 -7.910279,1.12239 -1.196045,0.2745 -1.914568,1.14509 -1.573368,1.99848 0.270579,0.67676 1.248601,1.17825 2.197089,0.96056 0,0 4.481885,-0.85236 7.202573,-0.7826 2.234141,0.093 2.319961,-3.27806 0.08398,-3.29883 z"
         id="path4936" />
    </g>
  </g>
</svg>
