<?xml version="1.0" encoding="UTF-8" standalone="no"?>
<!-- Created with Inkscape (http://www.inkscape.org/) -->

<svg
   xmlns:dc="http://purl.org/dc/elements/1.1/"
   xmlns:cc="http://creativecommons.org/ns#"
   xmlns:rdf="http://www.w3.org/1999/02/22-rdf-syntax-ns#"
   xmlns:svg="http://www.w3.org/2000/svg"
   xmlns="http://www.w3.org/2000/svg"
   xmlns:xlink="http://www.w3.org/1999/xlink"
   xmlns:sodipodi="http://sodipodi.sourceforge.net/DTD/sodipodi-0.dtd"
   xmlns:inkscape="http://www.inkscape.org/namespaces/inkscape"
   width="512"
   height="512"
   viewBox="0 0 135.46667 135.46667"
   version="1.1"
   id="svg8"
   inkscape:version="0.92.5 (2060ec1f9f, 2020-04-08)"
   sodipodi:docname="cookie_delete_ic.svg">
  <defs
     id="defs2">
    <linearGradient
       inkscape:collect="always"
       id="linearGradient4947">
      <stop
         style="stop-color:#da9c3d;stop-opacity:1"
         offset="0"
         id="stop4943" />
      <stop
         style="stop-color:#d5b166;stop-opacity:1"
         offset="1"
         id="stop4945" />
    </linearGradient>
    <linearGradient
       inkscape:collect="always"
       xlink:href="#linearGradient4947"
       id="linearGradient4949"
       x1="1123.2897"
       y1="1623.5554"
       x2="-40.406101"
       y2="653.8089"
       gradientUnits="userSpaceOnUse"
       gradientTransform="matrix(0.05110886,0,0,0.05110886,39.071645,180.59311)" />
  </defs>
  <sodipodi:namedview
     id="base"
     pagecolor="#ffffff"
     bordercolor="#666666"
     borderopacity="1.0"
     inkscape:pageopacity="0.0"
     inkscape:pageshadow="2"
     inkscape:zoom="0.7"
     inkscape:cx="215.58148"
     inkscape:cy="136.84928"
     inkscape:document-units="mm"
     inkscape:current-layer="layer1"
     showgrid="false"
     inkscape:snap-global="true"
     showguides="false"
     inkscape:pagecheckerboard="true"
     units="px"
     inkscape:window-width="1366"
     inkscape:window-height="706"
     inkscape:window-x="-8"
     inkscape:window-y="-8"
     inkscape:window-maximized="1" />
  <metadata
     id="metadata5">
    <rdf:RDF>
      <cc:Work
         rdf:about="">
        <dc:format>image/svg+xml</dc:format>
        <dc:type
           rdf:resource="http://purl.org/dc/dcmitype/StillImage" />
        <dc:title />
      </cc:Work>
    </rdf:RDF>
  </metadata>
  <g
     inkscape:label="Layer 1"
     inkscape:groupmode="layer"
     id="layer1"
     transform="translate(0,-161.53332)">
    <path
       style="color:#000000;font-style:normal;font-variant:normal;font-weight:normal;font-stretch:normal;font-size:medium;line-height:normal;font-family:sans-serif;font-variant-ligatures:normal;font-variant-position:normal;font-variant-caps:normal;font-variant-numeric:normal;font-variant-alternates:normal;font-feature-settings:normal;text-indent:0;text-align:start;text-decoration:none;text-decoration-line:none;text-decoration-style:solid;text-decoration-color:#000000;letter-spacing:normal;word-spacing:normal;text-transform:none;writing-mode:lr-tb;direction:ltr;text-orientation:mixed;dominant-baseline:auto;baseline-shift:baseline;text-anchor:start;white-space:normal;shape-padding:0;clip-rule:nonzero;display:inline;overflow:visible;visibility:visible;opacity:1;isolation:auto;mix-blend-mode:normal;color-interpolation:sRGB;color-interpolation-filters:linearRGB;solid-color:#000000;solid-opacity:1;vector-effect:none;fill:#dba147;fill-opacity:1;fill-rule:nonzero;stroke:none;stroke-width:1.54533887;stroke-linecap:round;stroke-linejoin:miter;stroke-miterlimit:4;stroke-dasharray:none;stroke-dashoffset:0;stroke-opacity:1;color-rendering:auto;image-rendering:auto;shape-rendering:auto;text-rendering:auto;enable-background:accumulate"
       d="m 48.485429,208.01557 c -0.186337,-0.002 -0.366873,0.0648 -0.508345,0.18607 -2.45394,1.20011 -3.792571,2.86872 -4.516467,4.37759 -0.371649,0.77467 -0.593845,1.50352 -0.758719,2.09617 -0.164868,0.59264 -0.294875,1.06635 -0.369987,1.21896 -0.297739,0.60491 -1.097033,1.02229 -2.110734,1.58913 -1.013702,0.56685 -2.221563,1.3641 -2.685298,2.91489 -0.740531,2.47646 -3.284879,3.19811 -3.284879,3.19811 l -0.393647,0.10966 -0.130975,0.38708 c 0,0 -0.282334,0.83218 -0.705809,1.7834 -0.423483,0.95121 -1.058304,2.0275 -1.413026,2.32878 -0.131839,0.11197 -0.632814,0.37259 -1.242517,0.58956 -0.609704,0.21696 -1.34228,0.42502 -2.041497,0.60233 -1.346857,0.34154 -2.471425,0.54963 -2.5594,0.56602 -0.237695,0.0125 -0.456351,0.1339 -0.592709,0.32898 -0.0066,0.009 -0.01275,0.0175 -0.0189,0.0265 l -4.11e-4,3.9e-4 c -0.124608,0.18802 -0.160846,0.42112 -0.0992,0.6381 0.01561,0.0935 0.113415,0.72445 -0.118646,1.57469 -0.249825,0.91534 -0.823935,1.952 -2.491042,2.6374 l -0.04857,0.02 -0.04563,0.0262 c -0.525186,0.30467 -2.203463,0.85547 -4.442966,1.05144 -2.232379,0.19535 -5.071829,0.0835 -8.1642274,-0.73411 -0.287461,-0.0922 -0.602292,-0.008 -0.80609,0.21415 -0.01621,0.0177 -0.0316,0.0361 -0.04609,0.0551 -0.0021,0.003 -0.0041,0.005 -0.0062,0.008 -0.01194,0.0161 -0.02327,0.0326 -0.03394,0.0497 -0.0038,0.006 -0.0073,0.0118 -0.01083,0.0179 -0.0086,0.0147 -0.01678,0.0297 -0.02443,0.0449 -0.0048,0.01 -0.0093,0.0191 -0.01364,0.0289 -0.0048,0.0109 -0.0094,0.0219 -0.01371,0.033 -0.0062,0.0154 -0.01201,0.031 -0.01727,0.0469 -0.0021,0.006 -0.0037,0.0125 -0.0056,0.0188 -0.0057,0.019 -0.01064,0.0384 -0.01481,0.0579 -0.0012,0.004 -0.002,0.009 -0.0029,0.0135 -0.0043,0.0219 -0.0076,0.044 -0.01004,0.0663 -1.33e-4,0.002 -3.87e-4,0.004 -5.76e-4,0.006 -0.0024,0.0245 -0.0037,0.049 -0.0037,0.0735 -0.0012,0.30914 0.181993,0.58925 0.465692,0.71209 10.2021724,5.75142 19.6998444,5.05033 27.4261654,0.49889 8.299157,-4.88891 12.388573,-12.18042 13.504549,-16.23727 1.650354,-5.99938 -0.703473,-12.14138 -0.872897,-12.57198 -0.043,-0.26285 -0.218429,-0.48502 -0.464123,-0.5879 -0.01736,-0.007 -0.03501,-0.0143 -0.05289,-0.0204 -7.32e-4,-3.9e-4 -0.0022,-7.3e-4 -0.003,-0.002 h -3.89e-4 c -0.08028,-0.0285 -0.164721,-0.0435 -0.249905,-0.0445 z"
       id="path4956-7"
       inkscape:connector-curvature="0"
       sodipodi:nodetypes="ccsccssccccccscccccscccscccccccccccccccccssccccccc" />
    <path
       style="opacity:0.98000004;fill:#dba147;fill-opacity:1;stroke:none;stroke-width:1.54533887;stroke-linecap:round;stroke-linejoin:miter;stroke-miterlimit:4;stroke-dasharray:none;stroke-opacity:1"
       d="m 48.855343,207.8826 c 8.031392,-2.92051 7.885372,-3.94269 8.323448,-5.84102 0.438074,-1.89833 1.168203,-2.3364 2.482427,-2.92051 1.314223,-0.5841 3.650631,-5.54896 3.650631,-5.54896 0,0 3.650632,-1.7523 4.526788,-2.9205 0.87615,-1.1682 0.87615,-7.15524 1.168205,-8.32345 0.292047,-1.16819 2.3364,-5.69498 2.3364,-6.86319 0,-1.1682 1.460258,-5.91401 1.460258,-5.91401 0,0 4.526781,4.89183 4.672808,8.83452 0.14602,3.94268 -4.234733,18.54522 -6.133066,19.85945 -1.898326,1.31422 -10.075745,8.61548 -12.120099,9.19958 -2.044352,0.58412 -10.3678,0.43809 -10.3678,0.43809 z"
       id="path5003"
       inkscape:connector-curvature="0"
       sodipodi:nodetypes="csscccscsssc" />
    <path
       style="color:#000000;font-style:normal;font-variant:normal;font-weight:normal;font-stretch:normal;font-size:medium;line-height:normal;font-family:sans-serif;font-variant-ligatures:normal;font-variant-position:normal;font-variant-caps:normal;font-variant-numeric:normal;font-variant-alternates:normal;font-feature-settings:normal;text-indent:0;text-align:start;text-decoration:none;text-decoration-line:none;text-decoration-style:solid;text-decoration-color:#000000;letter-spacing:normal;word-spacing:normal;text-transform:none;writing-mode:lr-tb;direction:ltr;text-orientation:mixed;dominant-baseline:auto;baseline-shift:baseline;text-anchor:start;white-space:normal;shape-padding:0;clip-rule:nonzero;display:inline;overflow:visible;visibility:visible;opacity:1;isolation:auto;mix-blend-mode:normal;color-interpolation:sRGB;color-interpolation-filters:linearRGB;solid-color:#000000;solid-opacity:1;vector-effect:none;fill:#784421;fill-opacity:1;fill-rule:nonzero;stroke:none;stroke-width:1.54533887;stroke-linecap:round;stroke-linejoin:miter;stroke-miterlimit:4;stroke-dasharray:none;stroke-dashoffset:0;stroke-opacity:1;color-rendering:auto;image-rendering:auto;shape-rendering:auto;text-rendering:auto;enable-background:accumulate"
       d="m 71.748273,168.40344 -0.39463,1.282 c 0,0 -0.367965,1.19576 -0.736831,2.54211 -0.184426,0.67318 -0.369211,1.38426 -0.510455,2.01279 -0.141244,0.62853 -0.247122,1.13345 -0.247122,1.58647 0,0.0666 -0.0983,0.58147 -0.286356,1.16315 -0.188059,0.58168 -0.448872,1.2844 -0.720598,1.99091 -0.54347,1.413 -1.114189,2.75371 -1.306152,3.52153 -0.110676,0.44271 -0.148409,1.00857 -0.203728,1.76001 -0.0553,0.75143 -0.109687,1.64226 -0.181847,2.52626 -0.07215,0.884 -0.163051,1.7623 -0.283719,2.46478 -0.120667,0.70246 -0.338504,1.25771 -0.367467,1.29632 -0.240273,0.32038 -1.362592,1.1226 -2.357248,1.69098 -0.994656,0.56837 -1.88602,0.9964 -1.88602,0.9964 l -0.247496,0.11921 -0.11696,0.24863 c 0,0 -0.574601,1.21945 -1.305009,2.50212 -0.365204,0.64134 -0.769634,1.2968 -1.143532,1.80378 -0.373906,0.50698 -0.781846,0.85031 -0.816816,0.86586 -0.674099,0.2996 -1.294665,0.59609 -1.814343,1.13938 -0.519669,0.54329 -0.870055,1.28536 -1.107309,2.31348 -0.230106,0.9971 -0.187195,1.38842 -1.057895,2.11919 -0.870698,0.73076 -2.78963,1.71968 -6.7767,3.16952 l 0.250514,1.49856 c 0,0 2.091227,0.0368 4.442841,0 1.175816,-0.0184 2.41752,-0.0547 3.505689,-0.1245 1.088176,-0.0698 1.992681,-0.15692 2.645112,-0.34333 0.789105,-0.22546 1.626262,-0.81416 2.731125,-1.61664 1.104871,-0.80248 2.385237,-1.81721 3.658865,-2.85262 2.547256,-2.07078 5.132133,-4.26636 5.957629,-4.83785 0.455406,-0.31529 0.722408,-0.74912 1.047324,-1.32388 0.324922,-0.57476 0.660174,-1.29067 1.005453,-2.11654 0.690566,-1.65176 1.416776,-3.741 2.079572,-5.91349 0.662789,-2.17248 1.260722,-4.42476 1.686438,-6.39603 0.425725,-1.97126 0.689109,-3.62725 0.646659,-4.77335 -0.08351,-2.25462 -1.335422,-4.52805 -2.521361,-6.29755 -1.185938,-1.7695 -2.356493,-3.03333 -2.356493,-3.03333 z m 0.679863,3.12539 c 0.385297,0.48071 0.826507,1.04057 1.303881,1.75284 1.113954,1.6621 2.198519,3.80628 2.261039,5.49434 0.03062,0.82524 -0.199157,2.47298 -0.61308,4.38965 -0.413931,1.91666 -1.002567,4.13625 -1.653995,6.27152 -0.651434,2.13526 -1.366958,4.18918 -2.027124,5.76823 -0.330094,0.78953 -0.647656,1.46128 -0.925096,1.95206 -0.277441,0.49076 -0.562207,0.8005 -0.581385,0.81378 -1.072837,0.74274 -3.525957,2.85512 -6.053082,4.90955 -1.263556,1.02721 -2.52939,2.02945 -3.592082,2.8013 -1.062692,0.77185 -2.014386,1.31463 -2.247458,1.38122 -0.369745,0.10565 -1.272075,0.21958 -2.319516,0.28674 -1.047449,0.0672 -2.270386,0.10373 -3.430987,0.12185 -0.194226,0.003 -0.177817,-0.002 -0.367467,0 1.632935,-0.71658 2.747614,-1.3347 3.468338,-1.9396 1.173646,-0.98502 1.362254,-2.05399 1.570239,-2.95522 0.200812,-0.87021 0.434866,-1.29653 0.718335,-1.59288 0.283469,-0.29635 0.684882,-0.5108 1.325007,-0.79531 0.622148,-0.27651 0.999109,-0.77263 1.432914,-1.36085 0.433803,-0.58821 0.85996,-1.28367 1.243133,-1.95657 0.695532,-1.22142 1.138118,-2.16472 1.23446,-2.36743 0.187648,-0.0912 0.821415,-0.39419 1.744548,-0.9217 1.049697,-0.59982 2.191076,-1.25738 2.826952,-2.10522 0.409118,-0.54548 0.519333,-1.17706 0.654204,-1.96223 0.134879,-0.78516 0.226831,-1.69578 0.300691,-2.6006 0.07387,-0.90481 0.128791,-1.80251 0.182983,-2.53871 0.05421,-0.7362 0.126124,-1.35678 0.161477,-1.49818 0.100091,-0.40037 0.697831,-1.90708 1.249557,-3.34156 0.275858,-0.71725 0.544142,-1.43837 0.748522,-2.07052 0.20438,-0.63215 0.361431,-1.12112 0.361431,-1.63852 0,-0.13108 0.07684,-0.6578 0.209391,-1.24767 0.132556,-0.58988 0.31285,-1.28407 0.493482,-1.94337 0.16023,-0.58484 0.19178,-0.6681 0.320688,-1.10694 z"
       id="path5003-1"
       inkscape:connector-curvature="0" />
    <path
       style="fill:url(#linearGradient4949);fill-opacity:1;stroke:none;stroke-width:1.88627934;stroke-linecap:butt;stroke-linejoin:miter;stroke-miterlimit:4;stroke-dasharray:none;stroke-opacity:1"
       d="m 71.657638,167.34493 c 8.053932,10.94509 2.459903,22.44718 -2.478179,29.94411 -6.933107,10.52574 -21.270675,9.91252 -21.270675,9.91252 l -0.518666,0.36665 c 0.06358,0.0573 0.123752,0.11379 0.176082,0.1684 2.206577,2.30249 1.913907,12.02631 -0.274415,16.40494 -2.753239,5.509 -9.178661,11.82615 -15.564138,14.13938 -7.517429,2.72331 -15.21411,2.45927 -23.2032304,-2.43555 2.7028494,32.17007 30.5883954,38.47546 41.2430574,38.88526 10.73857,0.41303 37.378421,1.44554 54.105846,-23.12926 19.53571,-28.70061 3.30421,-64.01837 -6.608345,-72.27881 -9.912525,-8.26044 -25.607337,-11.97764 -25.607337,-11.97764 z m -63.0955884,67.66713 -0.09683,0.0685 c 0.0069,0.0971 0.01504,0.19284 0.02236,0.28949 0.02083,-0.10165 0.04539,-0.21958 0.07447,-0.35797 z"
       id="path4758-2-8"
       inkscape:connector-curvature="0" />
    <path
       style="color:#000000;font-style:normal;font-variant:normal;font-weight:normal;font-stretch:normal;font-size:medium;line-height:normal;font-family:sans-serif;font-variant-ligatures:normal;font-variant-position:normal;font-variant-caps:normal;font-variant-numeric:normal;font-variant-alternates:normal;font-feature-settings:normal;text-indent:0;text-align:start;text-decoration:none;text-decoration-line:none;text-decoration-style:solid;text-decoration-color:#000000;letter-spacing:normal;word-spacing:normal;text-transform:none;writing-mode:lr-tb;direction:ltr;text-orientation:mixed;dominant-baseline:auto;baseline-shift:baseline;text-anchor:start;white-space:normal;shape-padding:0;clip-rule:nonzero;display:inline;overflow:visible;visibility:visible;opacity:1;isolation:auto;mix-blend-mode:normal;color-interpolation:sRGB;color-interpolation-filters:linearRGB;solid-color:#000000;solid-opacity:1;vector-effect:none;fill:#784421;fill-opacity:1;fill-rule:nonzero;stroke:none;stroke-width:1.54533887;stroke-linecap:round;stroke-linejoin:miter;stroke-miterlimit:4;stroke-dasharray:none;stroke-dashoffset:0;stroke-opacity:1;color-rendering:auto;image-rendering:auto;shape-rendering:auto;text-rendering:auto;enable-background:accumulate"
       d="m 47.57565,207.50986 c -0.186344,-0.002 -0.366881,0.0648 -0.508352,0.18608 -2.45394,1.2001 -3.792572,2.86871 -4.516467,4.37759 -0.371643,0.77467 -0.593845,1.50351 -0.758712,2.09616 -0.164868,0.59264 -0.294875,1.06635 -0.369987,1.21896 -0.297746,0.60491 -1.097032,1.02229 -2.110734,1.58914 -1.013709,0.56684 -2.221571,1.36409 -2.685298,2.91489 -0.740539,2.47645 -3.284879,3.19809 -3.284879,3.19809 l -0.393655,0.10967 -0.130967,0.38709 c 0,0 -0.282334,0.83217 -0.705816,1.78339 -0.423476,0.95121 -1.058297,2.02749 -1.413019,2.32877 -0.131846,0.11198 -0.632815,0.37261 -1.242518,0.58957 -0.609703,0.21696 -1.342279,0.42502 -2.041496,0.60233 -1.346857,0.34154 -2.471425,0.54963 -2.5594,0.56603 -0.237695,0.0126 -0.456351,0.13388 -0.592709,0.32897 -0.0066,0.009 -0.01275,0.0175 -0.0189,0.0265 l -4.03e-4,3.9e-4 c -0.124616,0.18803 -0.160854,0.42112 -0.0992,0.6381 0.01561,0.0935 0.113416,0.72446 -0.118646,1.57471 -0.249825,0.91532 -0.823935,1.95197 -2.491042,2.63738 l -0.04857,0.02 -0.04563,0.0262 c -0.525186,0.30469 -2.20347,0.85548 -4.442966,1.05146 -2.232382,0.19535 -5.071832,0.0835 -8.1642274,-0.73412 -0.287458,-0.0922 -0.60229,-0.009 -0.806091,0.21415 -0.0162,0.0177 -0.03159,0.0361 -0.04609,0.0552 -0.0021,0.003 -0.0041,0.005 -0.0062,0.008 -0.01196,0.0161 -0.02327,0.0327 -0.03394,0.0497 -0.0037,0.006 -0.0073,0.0119 -0.01083,0.0179 -0.0086,0.0147 -0.01678,0.0297 -0.02444,0.0449 -0.0048,0.01 -0.0093,0.0191 -0.01364,0.0289 -0.0048,0.0109 -0.0094,0.0219 -0.01371,0.0329 -0.0062,0.0154 -0.01201,0.031 -0.01727,0.0469 -0.002,0.006 -0.0037,0.0126 -0.0056,0.0188 -0.0057,0.0191 -0.01062,0.0384 -0.01482,0.0579 -9.5e-4,0.004 -0.002,0.009 -0.0029,0.0135 -0.0043,0.022 -0.0077,0.044 -0.01004,0.0663 -1.93e-4,0.002 -3.86e-4,0.004 -5.75e-4,0.006 -0.0024,0.0245 -0.0037,0.049 -0.0037,0.0736 -0.0012,0.30914 0.182006,0.58922 0.465695,0.71206 10.2021484,5.75145 19.6998214,5.05037 27.4261484,0.49891 8.299143,-4.88889 12.388566,-12.18041 13.504542,-16.23726 1.650353,-5.99938 -0.70348,-12.14137 -0.872898,-12.57196 -0.043,-0.26288 -0.218435,-0.48504 -0.46413,-0.58791 -0.01744,-0.007 -0.03501,-0.0143 -0.05289,-0.0205 -7.32e-4,-3.9e-4 -0.0022,-7.4e-4 -0.003,-0.002 l -3.8e-4,-1e-5 c -0.08028,-0.0285 -0.164721,-0.0435 -0.249891,-0.0445 z m 0.153529,12.81569 c -1.342602,5.58041 -4.893033,10.65841 -12.798967,15.31567 -6.11972,3.60504 -14.202902,4.96553 -22.035268,1.66119 1.20633,0.0605 3.224362,0.087 4.236381,-0.002 2.403286,-0.21029 4.135814,-0.70457 5.083619,-1.25444 l -0.09388,0.0465 c 2.087909,-0.85841 3.048129,-2.3915 3.394309,-3.65983 0.165945,-0.60801 0.20156,-1.16279 0.197267,-1.58374 0.429255,-0.0838 0.981529,-0.1811 2.080899,-0.45988 0.72818,-0.18465 1.496774,-0.40115 2.179457,-0.64407 0.682678,-0.24292 1.265344,-0.47726 1.725057,-0.86771 0.828404,-0.7036 1.368431,-1.85416 1.824473,-2.87851 0.370947,-0.83322 0.528716,-1.30942 0.616099,-1.5587 0.83145,-0.30717 3.150725,-1.37193 3.967972,-4.10494 0.300244,-1.00406 1.015277,-1.48124 1.959206,-2.00906 0.943922,-0.52782 2.137229,-1.0254 2.74275,-2.25561 0.222157,-0.45135 0.316323,-0.92613 0.472415,-1.48724 0.156099,-0.5611 0.351219,-1.19129 0.663286,-1.84174 0.544216,-1.13436 1.692496,-2.4866 3.413172,-3.47805 0.971925,3.09827 1.01343,8.53972 0.371753,11.06171 z"
       id="path4956"
       inkscape:connector-curvature="0"
       sodipodi:nodetypes="ccssccscccsccccccccccccscccccccccccccccccssccccccccsccccccsccscccssccc" />
    <path
       style="color:#000000;font-style:normal;font-variant:normal;font-weight:normal;font-stretch:normal;font-size:medium;line-height:normal;font-family:sans-serif;font-variant-ligatures:normal;font-variant-position:normal;font-variant-caps:normal;font-variant-numeric:normal;font-variant-alternates:normal;font-feature-settings:normal;text-indent:0;text-align:start;text-decoration:none;text-decoration-line:none;text-decoration-style:solid;text-decoration-color:#000000;letter-spacing:normal;word-spacing:normal;text-transform:none;writing-mode:lr-tb;direction:ltr;text-orientation:mixed;dominant-baseline:auto;baseline-shift:baseline;text-anchor:start;white-space:normal;shape-padding:0;clip-rule:nonzero;display:inline;overflow:visible;visibility:visible;opacity:1;isolation:auto;mix-blend-mode:normal;color-interpolation:sRGB;color-interpolation-filters:linearRGB;solid-color:#000000;solid-opacity:1;vector-effect:none;fill:#784421;fill-opacity:1;fill-rule:nonzero;stroke:none;stroke-width:2.31800818;stroke-linecap:round;stroke-linejoin:bevel;stroke-miterlimit:4;stroke-dasharray:none;stroke-dashoffset:0;stroke-opacity:1;color-rendering:auto;image-rendering:auto;shape-rendering:auto;text-rendering:auto;enable-background:accumulate"
       d="m 71.967442,167.03517 -1.200501,1.81472 c 3.836178,5.21328 4.390811,10.41692 3.428716,15.3568 -0.962096,4.93989 -3.511549,9.57393 -5.941404,13.26291 -6.438373,9.77465 -19.815104,9.39877 -20.143352,9.38823 a 1.1591201,1.1591201 0 0 0 -1.138259,0.51801 1.1591201,1.1591201 0 0 0 -0.02564,1.2469 c 0.130784,0.28986 1.37169,3.15072 1.163538,7.49882 -0.21936,4.58216 -2.06534,10.62401 -8.973226,16.63088 -1.436042,1.24874 -5.636919,4.14092 -11.069398,5.49056 -5.408116,1.34358 -12.018521,1.24435 -18.8251414,-3.2548 a 1.1591201,1.1591201 0 0 0 -1.294448,-0.12035 1.1591201,1.1591201 0 0 0 -0.06074,0.0358 1.1591201,1.1591201 0 0 0 -0.02414,0.0147 1.1591201,1.1591201 0 0 0 -0.493105,1.2503 c 1.230501,16.62786 9.0891274,26.78384 17.9924864,32.67962 8.937692,5.91852 18.842754,7.64489 24.402853,7.85874 10.737992,0.41301 38.050557,1.42501 55.108559,-23.63546 9.97629,-14.65655 10.81777,-31.02043 7.91458,-44.69712 -2.9032,-13.67669 -9.39789,-24.67303 -14.739225,-29.12412 -10.243378,-8.53615 -26.082122,-12.2152 -26.082122,-12.2152 z m 2.314615,3.0522 c 4.922142,1.47565 15.21075,5.04967 22.283668,10.94376 4.571205,3.80933 11.148835,14.6023 13.955615,27.82477 2.80677,13.22248 1.99607,28.86739 -7.56335,42.91145 C 86.561163,275.85649 60.59383,274.80363 49.854687,274.39057 44.676215,274.1914 35.090868,272.51036 26.642534,266.9159 18.5951,261.58691 11.518916,252.78061 9.8807366,238.04908 c 6.7328594,3.72644 13.3804604,3.77662 18.7459154,2.44364 5.900675,-1.46595 10.270038,-4.45954 12.031457,-5.9912 7.341369,-6.38381 9.52249,-13.14518 9.767781,-18.26903 0.150414,-3.14201 -0.405207,-5.57331 -0.868495,-7.08495 3.996511,-0.15785 14.714806,-1.41831 20.632682,-10.40273 2.508226,-3.80797 5.22503,-8.67352 6.280961,-14.09519 0.89666,-4.6039 0.520124,-9.63826 -2.188981,-14.56225 z"
       id="path4758"
       inkscape:connector-curvature="0" />
    <path
       style="fill:#28170b;stroke:none;stroke-width:1.15900409;stroke-linecap:butt;stroke-linejoin:miter;stroke-miterlimit:4;stroke-dasharray:none;stroke-opacity:1"
       d="m 30.46779,251.13312 c -0.187715,-0.004 -0.381715,0.01 -0.580667,0.0441 -0.828022,0.14235 -1.353881,0.33431 -1.778822,0.53614 -0.412993,0.19615 -0.713889,0.37759 -1.186187,0.5614 -0.04937,0.0103 -0.943277,0.19834 -1.92756,0.34598 -0.778308,0.11675 -1.477268,0.65805 -2.145976,1.33373 -0.668707,0.67567 -1.26461,1.50388 -1.566408,2.3489 -0.208225,0.58303 -0.117422,1.21325 0.04183,1.93546 0.159241,0.7222 0.424801,1.52049 0.733088,2.29949 0.308287,0.779 0.659251,1.53597 0.994825,2.16445 0.33558,0.62847 0.623943,1.10907 0.947811,1.43294 0.757152,0.75716 3.064545,3.92399 6.400186,2.98767 0.916555,-0.25727 1.597554,-0.93276 2.080291,-1.75287 0.482744,-0.82012 0.793998,-1.80347 1.002413,-2.81868 0.41684,-2.03041 0.417447,-4.17962 0.279206,-5.39618 -0.127714,-1.12389 -0.250411,-2.6403 -0.729997,-3.90103 -0.239796,-0.63037 -0.574513,-1.21384 -1.10134,-1.62231 -0.395119,-0.30636 -0.899553,-0.48618 -1.46269,-0.49922 z"
       id="path4760"
       inkscape:connector-curvature="0" />
    <path
       style="fill:#28170b;stroke:none;stroke-width:1.15900409;stroke-linecap:butt;stroke-linejoin:miter;stroke-miterlimit:4;stroke-dasharray:none;stroke-opacity:1"
       d="m 66.55414,249.85849 c -0.116427,4.4e-4 -0.235454,0.004 -0.357162,0.0118 l -0.07587,0.005 -0.07208,0.0238 c 0,0 -0.657112,0.21925 -1.533261,0.51129 -1.050247,0.35009 -2.238836,1.22325 -3.881477,2.08029 -0.733279,0.38258 -2.139148,0.79689 -3.353626,1.17411 -0.607242,0.18861 -1.169192,0.37026 -1.617412,0.56289 -0.224114,0.0963 -0.419571,0.19246 -0.596438,0.31914 -0.176873,0.12667 -0.395339,0.29648 -0.435422,0.65723 -0.03282,0.29578 0.06395,0.47808 0.158113,0.65532 0.0942,0.17724 0.213727,0.34734 0.354267,0.52787 0.281097,0.36104 0.648117,0.75859 1.040945,1.16991 0.78566,0.82263 1.685918,1.71659 2.06372,2.22034 0.432288,0.57637 1.612908,2.18211 2.932575,3.66905 0.659829,0.74348 1.354014,1.45939 2.028977,2.01581 0.674964,0.55642 1.307411,0.98765 2.028685,1.04313 1.243162,0.0957 2.646951,-0.6004 3.945967,-1.31065 1.29901,-0.71024 2.496947,-1.51289 2.801307,-1.6789 0.252954,-0.13799 0.412371,-0.38875 0.481337,-0.61461 0.06893,-0.22586 0.07574,-0.44341 0.06226,-0.66512 -0.02689,-0.4434 -0.14662,-0.91544 -0.294669,-1.3978 -0.296106,-0.96474 -0.72835,-1.99041 -0.848892,-2.38215 -0.05787,-0.18818 0.0022,-1.12267 0.104119,-2.02869 0.101695,-0.90601 0.273647,-1.8197 -0.147837,-2.60246 -0.176148,-0.32713 -0.474494,-1.40808 -1.202756,-2.34442 -0.682743,-0.87782 -1.839022,-1.62978 -3.585408,-1.6221 z"
       id="path4762"
       inkscape:connector-curvature="0" />
    <path
       style="fill:#28170b;stroke:none;stroke-width:1.15900409;stroke-linecap:round;stroke-linejoin:miter;stroke-miterlimit:4;stroke-dasharray:none;stroke-opacity:1"
       d="m 69.378206,211.14553 c -0.651721,7.2e-4 -1.391278,0.1471 -2.201478,0.58225 -0.03223,0.0126 -0.487733,0.1891 -1.040541,0.51269 -0.57203,0.33484 -1.248092,0.78902 -1.606432,1.50572 -0.182126,0.36423 -0.859844,1.1819 -1.47288,2.02149 -0.613037,0.8396 -1.24528,1.71893 -1.168116,2.72204 0.06285,0.81732 0.407887,1.55525 0.661024,2.17543 0.247341,0.606 0.333536,1.0767 0.305555,1.18279 -0.0022,-0.0202 -0.153383,0.17493 -0.435724,0.34858 -0.303225,0.18649 -0.722585,0.39035 -1.158637,0.58625 -0.436045,0.19591 -0.889642,0.38588 -1.28351,0.5637 -0.393867,0.17782 -0.707699,0.31316 -0.979353,0.53954 -0.303277,0.25273 -0.442887,0.57204 -0.563694,0.91936 -0.120807,0.34731 -0.203252,0.73257 -0.258843,1.1217 -0.111174,0.77824 -0.144753,1.50925 0.01656,2.0739 0.08339,0.29185 0.250718,0.43831 0.416157,0.57578 0.165439,0.13745 0.353726,0.25675 0.564793,0.37762 0.422143,0.24171 0.936355,0.48298 1.459694,0.7285 0.523348,0.24551 1.054481,0.49418 1.482762,0.7289 0.42828,0.23471 0.7548,0.486 0.822837,0.57348 0.234588,0.30161 0.752163,1.45068 1.275524,2.56283 0.523355,1.11214 1.026103,2.22741 1.83552,2.81608 0.392468,0.28542 0.942919,0.51434 1.635484,0.76134 0.692573,0.24698 1.510312,0.4898 2.34552,0.70025 1.670411,0.42089 3.329379,0.73826 4.382483,0.60662 1.000032,-0.12501 1.642794,-0.71059 2.006423,-1.24089 0.181818,-0.26515 0.308631,-0.51785 0.406679,-0.70015 0.06322,-0.11756 0.122528,-0.19568 0.142943,-0.2275 0.06117,-0.0217 0.256455,-0.11181 0.480341,-0.18566 0.307576,-0.10147 0.70622,-0.22776 1.127696,-0.39091 0.842937,-0.3263 1.809376,-0.77821 2.349702,-1.65624 0.562501,-0.91405 0.701613,-2.34896 0.806963,-3.71847 0.105351,-1.36952 0.104911,-2.62573 0.104911,-2.88386 0,0.19932 0.03765,-0.0666 0.187862,-0.30975 0.150254,-0.24304 0.365893,-0.55231 0.586358,-0.87005 0.220473,-0.31773 0.445906,-0.6441 0.626683,-0.9507 0.180771,-0.30661 0.354568,-0.53844 0.354568,-0.96698 0,-0.22231 -0.05362,-0.36135 -0.115394,-0.53195 -0.06175,-0.17059 -0.14265,-0.35479 -0.238075,-0.55501 -0.190842,-0.40043 -0.440528,-0.86296 -0.702147,-1.32733 -0.523245,-0.92876 -1.100827,-1.87447 -1.292592,-2.21006 -0.05611,-0.0982 -0.183291,-0.86502 -0.248163,-1.66942 -0.0649,-0.80441 -0.119686,-1.68621 -0.450095,-2.41311 -0.274562,-0.60403 -0.797506,-1.59935 -1.422769,-2.48286 -0.312623,-0.44176 -0.648058,-0.85441 -1.013386,-1.1802 -0.365328,-0.32578 -0.771172,-0.60023 -1.292197,-0.60023 -1.135811,0 -2.811086,-0.002 -4.413431,0.21132 -0.591302,0.0788 -1.214718,-0.16153 -2.070108,-0.32981 -0.213851,-0.0421 -0.442214,-0.0745 -0.683585,-0.0891 -0.08946,-0.005 -0.1808,-0.008 -0.273911,-0.008 z"
       id="path4764"
       inkscape:connector-curvature="0" />
    <path
       style="fill:#28170b;stroke:none;stroke-width:1.15900409;stroke-linecap:round;stroke-linejoin:miter;stroke-miterlimit:4;stroke-dasharray:none;stroke-opacity:1"
       d="m 100.48073,227.67195 -0.13884,0.0729 c 0,0 -0.941485,0.48164 -1.409095,0.81564 -0.2146,0.1533 -0.32161,0.31307 -0.45538,0.50071 -0.13377,0.18764 -0.26818,0.39907 -0.40148,0.6104 -0.25455,0.40356 -0.5235,0.79979 -0.63188,0.92057 -0.008,-2e-4 0,-7.3e-4 -0.0162,-0.002 -0.099,-0.003 -0.29191,-0.035 -0.53045,-0.0573 -0.47706,-0.0448 -1.22881,0.0257 -1.77812,0.64365 -0.78755,0.88599 -1.00373,1.85424 -1.08428,2.29801 -0.22323,0.0568 -0.49084,0.11701 -0.99222,0.28749 -0.33908,0.11528 -0.68182,0.24607 -0.97646,0.40517 -0.14732,0.0795 -0.28351,0.16306 -0.41386,0.28559 -0.13036,0.12254 -0.293479,0.31351 -0.293479,0.6195 0,0.30292 0.0705,0.53996 0.156119,0.91836 0.0856,0.3784 0.19528,0.8293 0.29737,1.27592 0.10209,0.44664 0.19647,0.88993 0.25045,1.2348 0.027,0.17244 0.0434,0.32104 0.0476,0.42065 0.004,0.0996 -0.0264,0.1631 0.0128,0.0653 -0.26587,0.66471 -0.15231,0.97009 -0.801663,1.37595 -0.303143,0.18946 -0.527075,0.47224 -0.632781,0.77082 -0.105696,0.2986 -0.106763,0.59322 -0.07426,0.86137 0.06493,0.53629 0.259089,1.01644 0.34857,1.37434 0.09986,0.39943 0.406509,0.67806 0.696864,0.82323 0.29035,0.14518 0.58647,0.20172 0.85977,0.23209 0.28186,0.0314 0.34187,0.008 0.53384,-4.4e-4 0.0996,0.32316 0.24597,0.7546 0.47505,1.25366 0.19429,0.42327 0.42912,0.85424 0.74358,1.21104 0.31446,0.35679 0.76643,0.6815 1.32842,0.63467 0.71115,-0.0593 1.70739,-0.2964 2.73793,-0.52826 1.03053,-0.23188 2.088075,-0.45791 2.727735,-0.5036 1.30083,-0.0929 3.16919,0.34792 4.73568,-0.0136 0.63483,-0.14651 0.96911,-0.6798 1.21144,-1.22921 0.24232,-0.5494 0.40357,-1.19632 0.53045,-1.84411 0.12689,-0.6478 0.21523,-1.29465 0.28479,-1.81397 0.0696,-0.51932 0.15434,-0.98588 0.14794,-0.96667 0.03,-0.0899 0.32151,-0.49322 0.60851,-0.78021 0.287,-0.28701 0.55082,-0.5033 0.55082,-0.5033 l 0.3924,-0.32063 -0.26562,-0.43163 c 0,0 -0.82524,-1.34229 -1.32913,-2.2493 -0.0114,-0.0204 -0.0951,-0.39382 -0.0951,-0.86406 0,-0.47022 0.038,-1.05348 0.0641,-1.64266 0.0262,-0.58918 0.0423,-1.18306 -0.0159,-1.71775 -0.0582,-0.53468 -0.15603,-1.06293 -0.62059,-1.42425 -0.61244,-0.47634 -1.30835,-0.48398 -1.85889,-0.42893 -0.55053,0.0551 -1.02081,0.13816 -1.5672,0.0121 -0.18174,-0.042 -0.24811,-0.10351 -0.36676,-0.27921 -0.11864,-0.1757 -0.23983,-0.46311 -0.41156,-0.79228 -0.17176,-0.32918 -0.40833,-0.70778 -0.80517,-1.00541 -0.39684,-0.29763 -0.93687,-0.48909 -1.61962,-0.51877 z"
       id="path4766"
       inkscape:connector-curvature="0" />
    <path
       style="fill:#28170b;stroke:none;stroke-width:1.15900409;stroke-linecap:butt;stroke-linejoin:miter;stroke-miterlimit:4;stroke-dasharray:none;stroke-opacity:1"
       d="m 100.09552,189.37055 c -0.484185,0 -0.786225,0.24805 -1.099725,0.50141 -0.31351,0.25336 -0.62358,0.56243 -0.93194,0.86435 -0.30837,0.30195 -0.61453,0.59637 -0.88093,0.80468 -0.2664,0.2083 -0.49876,0.30519 -0.55231,0.31054 -0.0574,0.006 -0.20441,-0.0285 -0.42107,-0.1668 -0.21665,-0.13834 -0.47746,-0.35835 -0.75714,-0.58476 -0.27967,-0.22641 -0.57673,-0.46262 -0.93873,-0.62398 -0.34671,-0.15457 -0.80984,-0.22228 -1.23,-0.0369 -0.0497,0.015 -0.24994,0.0758 -0.50021,0.1656 -0.14158,0.0508 -0.29074,0.10774 -0.43083,0.17119 -0.14008,0.0634 -0.25485,0.096 -0.42783,0.26903 -0.11557,0.11555 -0.12403,0.16458 -0.15164,0.2207 -0.0276,0.0561 -0.0501,0.11048 -0.074,0.17128 -0.0475,0.12164 -0.0975,0.26703 -0.15283,0.43762 -0.11058,0.34122 -0.240304,0.77945 -0.375723,1.24998 -0.270856,0.94107 -0.56391,2.01212 -0.742881,2.62063 -0.137392,0.46716 -0.78203,1.74386 -1.362765,2.95143 -0.290378,0.60379 -0.567606,1.20489 -0.769627,1.7408 -0.202029,0.53592 -0.366698,0.96305 -0.294678,1.46719 0.07105,0.49745 0.341405,0.86706 0.676092,1.32543 0.334687,0.45838 0.755123,0.95271 1.182799,1.42686 0.855331,0.94831 1.747753,1.82172 1.955413,2.02938 0.28594,0.28595 0.73543,0.28964 1.00241,0.20564 0.26696,-0.084 0.47159,-0.21672 0.66032,-0.3377 0.16204,-0.10387 0.2923,-0.18742 0.3938,-0.24527 0.004,0.004 7.3e-4,7.3e-4 0.005,0.005 0.10064,0.10156 0.2353,0.24492 0.3901,0.41266 0.30961,0.33551 0.70098,0.76987 1.10163,1.20276 0.40066,0.43289 0.80944,0.86356 1.16952,1.20315 0.18004,0.1698 0.34646,0.3165 0.5071,0.43622 0.16063,0.11973 0.27292,0.23722 0.58405,0.27612 0.29409,0.0368 0.4761,-0.0655 0.63497,-0.15842 0.15887,-0.0929 0.29994,-0.20591 0.44361,-0.3343 0.28736,-0.25681 0.57885,-0.5779 0.85118,-0.8983 0.524825,-0.61749 0.938405,-1.19138 0.970375,-1.2356 l 1.81207,-1.86568 0.0422,-0.098 c 0,0 0.40221,-0.93395 0.80557,-1.93584 0.20168,-0.50094 0.40354,-1.01859 0.55832,-1.4529 0.0774,-0.21717 0.14291,-0.41298 0.19205,-0.58257 0.0491,-0.16959 0.0917,-0.27698 0.0917,-0.49122 0,-0.36087 -0.11409,-0.56217 -0.23887,-0.85937 -0.12478,-0.2972 -0.28294,-0.62739 -0.43883,-0.9489 -0.15588,-0.32153 -0.30959,-0.63414 -0.41914,-0.87684 -0.0278,-0.0616 -0.0414,-0.0996 -0.0625,-0.15014 0.0774,-0.041 0.14341,-0.0783 0.25544,-0.13016 0.17197,-0.0797 0.36553,-0.1661 0.55462,-0.27691 0.18909,-0.11081 0.39743,-0.22793 0.54623,-0.52557 0.22421,-0.44839 0.13423,-0.85583 0.0491,-1.26724 -0.0851,-0.4114 -0.21342,-0.84555 -0.31125,-1.2858 -0.0827,-0.37209 -0.27602,-0.76573 -0.54144,-1.26465 -0.26541,-0.49891 -0.6026,-1.06383 -0.96208,-1.60304 -0.35949,-0.53921 -0.73829,-1.05017 -1.10355,-1.44911 -0.18262,-0.19947 -0.36018,-0.37148 -0.55041,-0.51049 -0.19024,-0.13903 -0.39217,-0.27312 -0.71274,-0.27312 z"
       id="path4768"
       inkscape:connector-curvature="0" />
    <path
       inkscape:connector-curvature="0"
       style="fill:#784421;stroke:none;stroke-width:1.15900409;stroke-linecap:butt;stroke-linejoin:miter;stroke-miterlimit:4;stroke-dasharray:none;stroke-opacity:1"
       d="m 31.6916,250.34932 c -0.187715,-0.004 -0.381715,0.01 -0.580667,0.0441 -0.828023,0.14235 -1.353882,0.33431 -1.778823,0.53614 -0.412993,0.19616 -0.713889,0.37759 -1.186187,0.5614 -0.04937,0.0103 -0.943277,0.19834 -1.927561,0.34598 -0.778306,0.11676 -1.477267,0.65805 -2.145974,1.33371 -0.668709,0.67569 -1.264611,1.50389 -1.566408,2.34893 -0.208225,0.58302 -0.117423,1.21323 0.04183,1.93545 0.159249,0.72221 0.424809,1.5205 0.733096,2.2995 0.308287,0.77899 0.659244,1.53596 0.994825,2.16444 0.33558,0.62848 0.623943,1.10908 0.947811,1.43295 0.757152,0.75715 3.064537,3.92399 6.400186,2.98766 0.916555,-0.25728 1.597554,-0.93276 2.08029,-1.75288 0.482737,-0.82011 0.793991,-1.80346 1.002414,-2.81867 0.416839,-2.0304 0.417447,-4.17962 0.279199,-5.39617 -0.127715,-1.1239 -0.250411,-2.64031 -0.729997,-3.90104 -0.239798,-0.63036 -0.574506,-1.21384 -1.101333,-1.62232 -0.39512,-0.30636 -0.899553,-0.48616 -1.462697,-0.4992 z"
       id="path4760-0" />
    <path
       inkscape:connector-curvature="0"
       style="fill:#784421;stroke:none;stroke-width:1.15900409;stroke-linecap:butt;stroke-linejoin:miter;stroke-miterlimit:4;stroke-dasharray:none;stroke-opacity:1"
       d="m 67.777956,249.0747 c -0.116426,4.4e-4 -0.23546,0.004 -0.357168,0.0118 l -0.07587,0.005 -0.07208,0.0238 c 0,0 -0.657112,0.21924 -1.533269,0.51129 -1.05024,0.35009 -2.238829,1.22326 -3.881477,2.08029 -0.733272,0.38258 -2.139141,0.79689 -3.353618,1.17411 -0.607242,0.18861 -1.169193,0.37026 -1.617413,0.5629 -0.224113,0.0963 -0.419571,0.19245 -0.596444,0.31912 -0.176866,0.12668 -0.39534,0.29648 -0.435423,0.65723 -0.03282,0.29579 0.06395,0.4781 0.158121,0.65534 0.0942,0.17724 0.213719,0.34733 0.354267,0.52785 0.281089,0.36106 0.648116,0.7586 1.040944,1.16992 0.785661,0.82263 1.685917,1.71659 2.06372,2.22034 0.432281,0.57638 1.612901,2.18211 2.932575,3.66906 0.659829,0.74348 1.354014,1.45938 2.028977,2.0158 0.674963,0.55642 1.307405,0.98766 2.028685,1.04314 1.243155,0.0956 2.646951,-0.6004 3.945961,-1.31066 1.299016,-0.71025 2.496946,-1.5129 2.801307,-1.6789 0.25296,-0.13798 0.412377,-0.38875 0.481337,-0.61461 0.06901,-0.22586 0.07575,-0.44342 0.06226,-0.66511 -0.02689,-0.44342 -0.146614,-0.91545 -0.29467,-1.39781 -0.296105,-0.96474 -0.728349,-1.9904 -0.848885,-2.38215 -0.05787,-0.18817 0.0022,-1.12267 0.104113,-2.02869 0.101696,-0.90601 0.273646,-1.81971 -0.147837,-2.60245 -0.176148,-0.32714 -0.474488,-1.40809 -1.202749,-2.34443 -0.68275,-0.87781 -1.839021,-1.62977 -3.585409,-1.6221 z"
       id="path4762-2" />
    <path
       inkscape:connector-curvature="0"
       style="fill:#784421;stroke:none;stroke-width:1.15900409;stroke-linecap:round;stroke-linejoin:miter;stroke-miterlimit:4;stroke-dasharray:none;stroke-opacity:1"
       d="m 70.602015,210.36172 c -0.651713,7.4e-4 -1.39127,0.14711 -2.201471,0.58227 -0.03231,0.0126 -0.487739,0.18909 -1.040548,0.51268 -0.572023,0.33485 -1.248084,0.78902 -1.606432,1.50572 -0.182119,0.36423 -0.859836,1.18189 -1.472873,2.02149 -0.613036,0.8396 -1.245279,1.71894 -1.168115,2.72205 0.06285,0.81731 0.40788,1.55524 0.661015,2.17542 0.247349,0.606 0.333545,1.07669 0.305556,1.18279 -0.0022,-0.0202 -0.153375,0.17493 -0.435723,0.34858 -0.303226,0.18649 -0.722578,0.39034 -1.158631,0.58625 -0.436053,0.19591 -0.889649,0.38588 -1.283516,0.5637 -0.393861,0.17781 -0.7077,0.31316 -0.979354,0.53953 -0.303269,0.25274 -0.442887,0.57205 -0.563694,0.91936 -0.1208,0.34732 -0.203244,0.73258 -0.258835,1.1217 -0.111174,0.77825 -0.14476,1.50925 0.01656,2.07391 0.08339,0.29185 0.25072,0.43831 0.416159,0.57576 0.165438,0.13747 0.353724,0.25678 0.564792,0.37763 0.422143,0.24172 0.936355,0.48299 1.459702,0.72851 0.523339,0.24552 1.054474,0.49417 1.482754,0.72889 0.428274,0.23472 0.754801,0.48601 0.822829,0.57348 0.234597,0.30162 0.752171,1.45069 1.275526,2.56283 0.523362,1.11215 1.02611,2.22742 1.835527,2.81608 0.39246,0.28544 0.94291,0.51435 1.635484,0.76134 0.69258,0.24699 1.510319,0.48981 2.34552,0.70026 1.67041,0.42088 3.329378,0.73825 4.382482,0.60661 1.000032,-0.12499 1.642795,-0.71059 2.006431,-1.24088 0.18181,-0.26515 0.308631,-0.51785 0.406671,-0.70015 0.06322,-0.11757 0.122528,-0.19569 0.142944,-0.2275 0.06117,-0.0217 0.256454,-0.1118 0.48034,-0.18567 0.307584,-0.10147 0.706221,-0.22775 1.127689,-0.3909 0.842952,-0.32631 1.809384,-0.7782 2.34971,-1.65624 0.5625,-0.91405 0.701612,-2.34897 0.806963,-3.71848 0.105351,-1.36951 0.104911,-2.62572 0.104911,-2.88386 0,0.19932 0.03765,-0.0667 0.187861,-0.30974 0.150254,-0.24305 0.365893,-0.55232 0.586359,-0.87005 0.220473,-0.31774 0.445912,-0.6441 0.626683,-0.95071 0.180778,-0.30659 0.354568,-0.53843 0.354568,-0.96697 0,-0.22232 -0.05362,-0.36136 -0.115394,-0.53195 -0.06175,-0.1706 -0.142658,-0.3548 -0.238075,-0.55502 -0.190843,-0.40042 -0.440521,-0.86294 -0.702148,-1.32733 -0.523244,-0.92875 -1.100834,-1.87446 -1.292592,-2.21005 -0.05611,-0.0982 -0.183291,-0.86501 -0.248163,-1.66943 -0.06483,-0.80441 -0.119685,-1.6862 -0.450094,-2.41309 -0.274563,-0.60405 -0.797507,-1.59937 -1.422769,-2.48288 -0.312623,-0.44176 -0.648058,-0.85441 -1.013386,-1.18019 -0.365336,-0.32579 -0.77118,-0.60023 -1.292197,-0.60023 -1.135812,0 -2.811086,-0.002 -4.413431,0.21132 -0.591303,0.0788 -1.214719,-0.16154 -2.070108,-0.32982 -0.213845,-0.0421 -0.442214,-0.0745 -0.683586,-0.0891 -0.08946,-0.005 -0.1808,-0.008 -0.27391,-0.008 z"
       id="path4764-6" />
    <path
       inkscape:connector-curvature="0"
       style="fill:#784421;stroke:none;stroke-width:1.15900409;stroke-linecap:round;stroke-linejoin:miter;stroke-miterlimit:4;stroke-dasharray:none;stroke-opacity:1"
       d="m 101.70456,226.88815 -0.13885,0.0729 c 0,0 -0.94149,0.48164 -1.40911,0.81565 -0.214595,0.15329 -0.321605,0.31307 -0.455375,0.50071 -0.13377,0.18764 -0.26817,0.39906 -0.40148,0.61041 -0.25454,0.40355 -0.52349,0.79979 -0.63188,0.92056 -0.008,-2e-4 0,-7.3e-4 -0.0162,-0.002 -0.099,-0.003 -0.29192,-0.035 -0.53045,-0.0573 -0.47707,-0.0448 -1.22881,0.0257 -1.77813,0.64366 -0.78754,0.88597 -1.00373,1.85423 -1.08427,2.29799 -0.22324,0.0568 -0.49085,0.11702 -0.99223,0.2875 -0.33907,0.11527 -0.68182,0.24606 -0.97646,0.40517 -0.14733,0.0795 -0.2835,0.16305 -0.41386,0.28559 -0.13036,0.12254 -0.29348,0.3135 -0.29348,0.6195 0,0.30292 0.0706,0.53996 0.15612,0.91835 0.0856,0.3784 0.19528,0.8293 0.29737,1.27593 0.10209,0.44663 0.19648,0.88993 0.25046,1.2348 0.027,0.17243 0.0434,0.32103 0.0476,0.42065 0.004,0.0996 -0.0264,0.1631 0.0127,0.0653 -0.26588,0.66471 -0.15231,0.9701 -0.80167,1.37595 -0.30313,0.18946 -0.52707,0.47222 -0.63277,0.77082 -0.1057,0.2986 -0.10677,0.59322 -0.0743,0.86137 0.065,0.5363 0.25909,1.01645 0.34858,1.37435 0.0999,0.39943 0.40649,0.67805 0.69685,0.82323 0.29035,0.14518 0.58648,0.20172 0.85976,0.23208 0.28187,0.0314 0.34188,0.008 0.53385,-4.4e-4 0.0996,0.32317 0.24597,0.7546 0.47506,1.25367 0.19429,0.42328 0.4291,0.85425 0.74357,1.21103 0.31447,0.35681 0.76643,0.68151 1.32844,0.63468 0.71113,-0.0593 1.70737,-0.29639 2.73791,-0.52826 1.030545,-0.23187 2.088095,-0.45791 2.727755,-0.5036 1.30082,-0.0929 3.16917,0.34793 4.73566,-0.0136 0.63483,-0.14649 0.96911,-0.6798 1.21144,-1.22921 0.24233,-0.5494 0.40356,-1.19631 0.53045,-1.84411 0.12689,-0.64779 0.21523,-1.29464 0.2848,-1.81396 0.0696,-0.51932 0.15434,-0.98588 0.14794,-0.96668 0.0299,-0.0899 0.32152,-0.4932 0.60852,-0.78021 0.28699,-0.287 0.55081,-0.5033 0.55081,-0.5033 l 0.39239,-0.32063 -0.26562,-0.43163 c 0,0 -0.82525,-1.34228 -1.32914,-2.24929 -0.0114,-0.0205 -0.0951,-0.39381 -0.0951,-0.86405 0,-0.47024 0.0379,-1.0535 0.0642,-1.64267 0.0262,-0.58919 0.0423,-1.18306 -0.0159,-1.71774 -0.0582,-0.53468 -0.15603,-1.06294 -0.62059,-1.42426 -0.61243,-0.47634 -1.30835,-0.48399 -1.85888,-0.42893 -0.55054,0.0551 -1.02082,0.13816 -1.56721,0.0121 -0.18173,-0.0419 -0.24809,-0.10351 -0.36674,-0.2792 -0.11865,-0.17569 -0.23982,-0.46311 -0.41157,-0.79229 -0.17174,-0.32917 -0.40833,-0.70778 -0.80518,-1.0054 -0.39683,-0.29763 -0.93686,-0.4891 -1.61962,-0.51878 z"
       id="path4766-5" />
    <path
       inkscape:connector-curvature="0"
       style="fill:#784421;stroke:none;stroke-width:1.15900409;stroke-linecap:butt;stroke-linejoin:miter;stroke-miterlimit:4;stroke-dasharray:none;stroke-opacity:1"
       d="m 101.31934,188.58675 c -0.48419,0 -0.78623,0.24805 -1.09975,0.50141 -0.313495,0.25335 -0.623575,0.56242 -0.931925,0.86436 -0.30836,0.30192 -0.61453,0.59636 -0.88093,0.80466 -0.2664,0.20829 -0.49875,0.30519 -0.55232,0.31055 -0.0574,0.006 -0.2044,-0.0284 -0.42105,-0.16681 -0.21665,-0.13835 -0.47746,-0.35835 -0.75714,-0.58476 -0.27969,-0.2264 -0.57673,-0.46261 -0.93873,-0.62399 -0.34671,-0.15456 -0.80986,-0.22226 -1.23001,-0.0369 -0.0497,0.015 -0.24994,0.0758 -0.5002,0.1656 -0.14159,0.0508 -0.29075,0.10776 -0.43083,0.1712 -0.14008,0.0634 -0.25486,0.096 -0.42784,0.26902 -0.11556,0.11556 -0.12403,0.16459 -0.15164,0.2207 -0.0276,0.0562 -0.0501,0.11048 -0.074,0.1713 -0.0475,0.12163 -0.0975,0.26702 -0.15282,0.43762 -0.11058,0.34121 -0.2403,0.77944 -0.37573,1.24996 -0.27084,0.94108 -0.56389,2.01213 -0.74287,2.62063 -0.1374,0.46717 -0.782033,1.74387 -1.362768,2.95145 -0.290372,0.60379 -0.567605,1.20487 -0.76963,1.74079 -0.202028,0.5359 -0.366698,0.96305 -0.294677,1.46718 0.07105,0.49745 0.341409,0.86706 0.676095,1.32545 0.334687,0.45836 0.755123,0.95269 1.182789,1.42685 0.855331,0.9483 1.747751,1.82172 1.955421,2.02938 0.28594,0.28595 0.73544,0.28964 1.00241,0.20563 0.26696,-0.084 0.47159,-0.21672 0.66032,-0.3377 0.16205,-0.10387 0.29231,-0.18741 0.3938,-0.24526 0.004,0.004 7.3e-4,7.4e-4 0.005,0.005 0.10065,0.10156 0.2353,0.24491 0.3901,0.41266 0.30961,0.33551 0.70099,0.76987 1.10164,1.20276 0.40065,0.43289 0.80943,0.86355 1.16951,1.20315 0.18004,0.1698 0.34647,0.31649 0.5071,0.43623 0.16064,0.11973 0.27292,0.23721 0.58405,0.2761 0.2941,0.0368 0.47611,-0.0655 0.63498,-0.15842 0.15886,-0.0929 0.29993,-0.2059 0.44361,-0.3343 0.287345,-0.25679 0.578845,-0.57788 0.851175,-0.8983 0.52483,-0.61749 0.93841,-1.19137 0.97038,-1.23559 l 1.81208,-1.86568 0.0421,-0.098 c 0,0 0.40222,-0.93395 0.80558,-1.93585 0.20168,-0.50095 0.40355,-1.0186 0.55831,-1.45292 0.0774,-0.21715 0.14292,-0.41296 0.19205,-0.58255 0.0491,-0.16959 0.0917,-0.27699 0.0917,-0.49123 0,-0.36087 -0.1141,-0.56216 -0.23888,-0.85937 -0.12476,-0.29719 -0.28292,-0.62739 -0.43882,-0.94891 -0.15588,-0.3215 -0.30959,-0.63412 -0.41914,-0.87684 -0.0277,-0.0616 -0.0414,-0.0996 -0.0625,-0.15012 0.0774,-0.041 0.14341,-0.0783 0.25545,-0.13017 0.17197,-0.0796 0.36552,-0.1661 0.55461,-0.27691 0.18909,-0.11081 0.39741,-0.22794 0.54622,-0.52556 0.22419,-0.44839 0.13424,-0.85584 0.0491,-1.26724 -0.0851,-0.4114 -0.21341,-0.84556 -0.31123,-1.28581 -0.0827,-0.37208 -0.27602,-0.76572 -0.54144,-1.26464 -0.26542,-0.49892 -0.6026,-1.06383 -0.9621,-1.60304 -0.35948,-0.53922 -0.73827,-1.05018 -1.10352,-1.44912 -0.18263,-0.19947 -0.3602,-0.37147 -0.55043,-0.5105 -0.19023,-0.139 -0.39216,-0.2731 -0.71273,-0.2731 z"
       id="path4768-4" />
    <path
       style="opacity:1;fill:#ffffff;fill-opacity:1;fill-rule:nonzero;stroke:none;stroke-width:1.22283328;stroke-linecap:round;stroke-linejoin:bevel;stroke-miterlimit:4;stroke-dasharray:none;stroke-dashoffset:0;stroke-opacity:0;paint-order:markers fill stroke"
       d="m 127.60328,267.14874 a 26.576607,26.576607 0 0 1 -26.5766,26.5766 26.576607,26.576607 0 0 1 -26.576574,-26.5766 26.576607,26.576607 0 0 1 26.576574,-26.57661 26.576607,26.576607 0 0 1 26.5766,26.57661 z"
       id="path5022"
       inkscape:connector-curvature="0" />
    <g
       aria-label="✖"
       style="font-style:normal;font-variant:normal;font-weight:bold;font-stretch:normal;font-size:4.23333311px;line-height:1.25;font-family:sans-serif;-inkscape-font-specification:'sans-serif Bold';letter-spacing:0px;word-spacing:0px;fill:#000000;fill-opacity:1;stroke:none;stroke-width:0.26458332"
       id="text5026"
       transform="matrix(0.18742015,0,0,0.18742015,27.834104,186.70542)">
      <path
         d="m 370.25303,429.16036 -59.16325,-59.1633 20.43434,-20.11336 58.94929,59.16325 59.16325,-59.16325 20.32734,20.11336 -59.16325,59.1633 59.16325,59.16326 -20.32734,20.22033 -59.16325,-58.94928 -58.94929,58.94928 -20.43434,-20.22033 z"
         style="font-style:normal;font-variant:normal;font-weight:normal;font-stretch:normal;font-size:50.79999924px;font-family:Meiryo;-inkscape-font-specification:Meiryo;stroke-width:1.14118409"
         id="path5028"
         inkscape:connector-curvature="0" />
    </g>
  </g>
</svg>
