<?xml version="1.0" encoding="UTF-8" standalone="no"?>
<!-- Created with Inkscape (http://www.inkscape.org/) -->

<svg
   xmlns:dc="http://purl.org/dc/elements/1.1/"
   xmlns:cc="http://creativecommons.org/ns#"
   xmlns:rdf="http://www.w3.org/1999/02/22-rdf-syntax-ns#"
   xmlns:svg="http://www.w3.org/2000/svg"
   xmlns="http://www.w3.org/2000/svg"
   xmlns:sodipodi="http://sodipodi.sourceforge.net/DTD/sodipodi-0.dtd"
   xmlns:inkscape="http://www.inkscape.org/namespaces/inkscape"
   width="512"
   height="512"
   viewBox="0 0 135.46667 135.46667"
   version="1.1"
   id="svg8"
   inkscape:version="0.92.5 (2060ec1f9f, 2020-04-08)"
   sodipodi:docname="cookie_delete_ic_simplified_for_notificaiton.svg">
  <defs
     id="defs2" />
  <sodipodi:namedview
     id="base"
     pagecolor="#ffffff"
     bordercolor="#666666"
     borderopacity="1.0"
     inkscape:pageopacity="0.0"
     inkscape:pageshadow="2"
     inkscape:zoom="0.49497475"
     inkscape:cx="130.33854"
     inkscape:cy="222.85118"
     inkscape:document-units="mm"
     inkscape:current-layer="layer1"
     showgrid="false"
     inkscape:snap-global="true"
     showguides="false"
     inkscape:pagecheckerboard="true"
     units="px"
     inkscape:window-width="1366"
     inkscape:window-height="706"
     inkscape:window-x="-8"
     inkscape:window-y="-8"
     inkscape:window-maximized="1" />
  <metadata
     id="metadata5">
    <rdf:RDF>
      <cc:Work
         rdf:about="">
        <dc:format>image/svg+xml</dc:format>
        <dc:type
           rdf:resource="http://purl.org/dc/dcmitype/StillImage" />
        <dc:title></dc:title>
      </cc:Work>
    </rdf:RDF>
  </metadata>
  <g
     inkscape:label="Layer 1"
     inkscape:groupmode="layer"
     id="layer1"
     transform="translate(0,-161.53332)">
    <path
       style="color:#000000;font-style:normal;font-variant:normal;font-weight:normal;font-stretch:normal;font-size:medium;line-height:normal;font-family:sans-serif;font-variant-ligatures:normal;font-variant-position:normal;font-variant-caps:normal;font-variant-numeric:normal;font-variant-alternates:normal;font-feature-settings:normal;text-indent:0;text-align:start;text-decoration:none;text-decoration-line:none;text-decoration-style:solid;text-decoration-color:#000000;letter-spacing:normal;word-spacing:normal;text-transform:none;writing-mode:lr-tb;direction:ltr;text-orientation:mixed;dominant-baseline:auto;baseline-shift:baseline;text-anchor:start;white-space:normal;shape-padding:0;clip-rule:nonzero;display:inline;overflow:visible;visibility:visible;opacity:1;isolation:auto;mix-blend-mode:normal;color-interpolation:sRGB;color-interpolation-filters:linearRGB;solid-color:#000000;solid-opacity:1;vector-effect:none;fill:#dba147;fill-opacity:1;fill-rule:nonzero;stroke:none;stroke-width:1.74748266;stroke-linecap:round;stroke-linejoin:miter;stroke-miterlimit:4;stroke-dasharray:none;stroke-dashoffset:0;stroke-opacity:1;color-rendering:auto;image-rendering:auto;shape-rendering:auto;text-rendering:auto;enable-background:accumulate"
       d="m 81.70257,213.37617 c 0.210712,-0.002 0.414863,0.0733 0.574841,0.21041 2.774937,1.3571 4.288672,3.24397 5.10726,4.95022 0.420264,0.876 0.671525,1.70019 0.857966,2.37036 0.186435,0.67017 0.333448,1.20584 0.418385,1.37842 0.336686,0.68403 1.240534,1.15601 2.386836,1.797 1.146303,0.641 2.512163,1.54253 3.036559,3.29618 0.837399,2.8004 3.714569,3.61645 3.714569,3.61645 l 0.44514,0.12401 0.148108,0.43771 c 0,0 0.319265,0.94104 0.798135,2.01668 0.478878,1.07564 1.196741,2.29272 1.597861,2.63341 0.14909,0.12661 0.71559,0.42133 1.40505,0.66668 0.68946,0.24534 1.51786,0.48061 2.30854,0.68112 1.52304,0.38621 2.79471,0.62152 2.89419,0.64006 0.26879,0.0141 0.51605,0.15141 0.67024,0.37201 0.007,0.0102 0.0144,0.0198 0.0214,0.03 l 4.6e-4,4.4e-4 c 0.14091,0.21261 0.18189,0.47621 0.11218,0.72157 -0.0177,0.10573 -0.12825,0.81921 0.13416,1.78067 0.28251,1.03508 0.93172,2.20734 2.8169,2.9824 l 0.0549,0.0226 0.0516,0.0296 c 0.59388,0.34452 2.49169,0.96737 5.02414,1.18898 2.52439,0.2209 5.73527,0.0944 9.23218,-0.83014 0.32506,-0.10426 0.68108,-0.009 0.91154,0.24216 0.0183,0.02 0.0357,0.0408 0.0521,0.0623 0.002,0.003 0.005,0.006 0.007,0.009 0.0135,0.0182 0.0263,0.0369 0.0383,0.0562 0.005,0.007 0.008,0.0133 0.0122,0.0202 0.0102,0.0166 0.019,0.0336 0.0276,0.0508 0.006,0.0113 0.0102,0.0216 0.0154,0.0327 0.006,0.0123 0.0102,0.0248 0.0155,0.0373 0.007,0.0174 0.0136,0.0351 0.0196,0.053 0.002,0.007 0.005,0.0141 0.007,0.0213 0.007,0.0215 0.012,0.0434 0.0167,0.0655 10e-4,0.005 0.002,0.0102 0.003,0.0153 0.005,0.0248 0.009,0.0498 0.0113,0.075 1.5e-4,0.002 4.5e-4,0.005 6.6e-4,0.007 0.002,0.0277 0.005,0.0554 0.005,0.0831 10e-4,0.34958 -0.2058,0.66633 -0.52661,0.80524 -11.53671,6.50376 -22.27675,5.71096 -31.013746,0.56415 -9.384759,-5.52842 -14.009106,-13.77372 -15.271061,-18.36125 -1.866235,-6.78415 0.795493,-13.72957 0.987079,-14.2165 0.04863,-0.29723 0.247002,-0.54846 0.524835,-0.6648 0.01963,-0.008 0.03959,-0.0162 0.05981,-0.0231 8.28e-4,-4.4e-4 0.0025,-8.3e-4 0.0034,-0.002 h 4.39e-4 c 0.09078,-0.0322 0.186268,-0.0492 0.282595,-0.0503 z"
       id="path4956-7"
       inkscape:connector-curvature="0"
       sodipodi:nodetypes="ccsccssccccccscccccscccscccccccccccccccccssccccccc" />
    <path
       style="opacity:0.98000004;fill:#dba147;fill-opacity:1;stroke:none;stroke-width:1.74748266;stroke-linecap:round;stroke-linejoin:miter;stroke-miterlimit:4;stroke-dasharray:none;stroke-opacity:1"
       d="m 81.284268,213.22581 c -9.081968,-3.30254 -8.916847,-4.45843 -9.412227,-6.60508 -0.495378,-2.14665 -1.321014,-2.64202 -2.80715,-3.30254 -1.486135,-0.6605 -4.128166,-6.27481 -4.128166,-6.27481 0,0 -4.128166,-1.98152 -5.118931,-3.30253 -0.990758,-1.32101 -0.990758,-8.0912 -1.321016,-9.41223 -0.33025,-1.321 -2.642022,-6.43993 -2.642022,-7.76095 0,-1.32101 -1.651272,-6.68761 -1.651272,-6.68761 0,0 -5.118924,5.53172 -5.284052,9.99015 -0.165121,4.45841 4.788673,20.97109 6.935324,22.45724 2.146644,1.48613 11.39374,9.74246 13.705514,10.40296 2.311771,0.66053 11.723998,0.4954 11.723998,0.4954 z"
       id="path5003"
       inkscape:connector-curvature="0"
       sodipodi:nodetypes="csscccscsssc" />
    <path
       style="color:#000000;font-style:normal;font-variant:normal;font-weight:normal;font-stretch:normal;font-size:medium;line-height:normal;font-family:sans-serif;font-variant-ligatures:normal;font-variant-position:normal;font-variant-caps:normal;font-variant-numeric:normal;font-variant-alternates:normal;font-feature-settings:normal;text-indent:0;text-align:start;text-decoration:none;text-decoration-line:none;text-decoration-style:solid;text-decoration-color:#000000;letter-spacing:normal;word-spacing:normal;text-transform:none;writing-mode:lr-tb;direction:ltr;text-orientation:mixed;dominant-baseline:auto;baseline-shift:baseline;text-anchor:start;white-space:normal;shape-padding:0;clip-rule:nonzero;display:inline;overflow:visible;visibility:visible;opacity:1;isolation:auto;mix-blend-mode:normal;color-interpolation:sRGB;color-interpolation-filters:linearRGB;solid-color:#000000;solid-opacity:1;vector-effect:none;fill:#784421;fill-opacity:1;fill-rule:nonzero;stroke:none;stroke-width:1.74748266;stroke-linecap:round;stroke-linejoin:miter;stroke-miterlimit:4;stroke-dasharray:none;stroke-dashoffset:0;stroke-opacity:1;color-rendering:auto;image-rendering:auto;shape-rendering:auto;text-rendering:auto;enable-background:accumulate"
       d="m 55.396744,168.58243 0.446251,1.4497 c 0,0 0.416098,1.35217 0.833215,2.87464 0.20855,0.76123 0.417507,1.56533 0.577226,2.27608 0.15972,0.71074 0.279448,1.28171 0.279448,1.79399 0,0.0753 0.111159,0.65753 0.323814,1.3153 0.212659,0.65777 0.507588,1.45241 0.814859,2.25134 0.61456,1.59783 1.259934,3.11392 1.477008,3.98218 0.125153,0.50062 0.167822,1.1405 0.230377,1.99023 0.06253,0.84972 0.124035,1.85708 0.205634,2.85672 0.08159,0.99963 0.18438,1.99282 0.320832,2.78719 0.136451,0.79435 0.382783,1.42223 0.415535,1.46589 0.271703,0.36229 1.540831,1.26945 2.665597,1.91218 1.124765,0.64272 2.132727,1.12674 2.132727,1.12674 l 0.279871,0.1348 0.132259,0.28115 c 0,0 0.649764,1.37897 1.475716,2.82942 0.412976,0.72523 0.870309,1.46643 1.293116,2.03973 0.422816,0.5733 0.884118,0.96154 0.923663,0.97912 0.762277,0.33879 1.464018,0.67407 2.051674,1.28842 0.587647,0.61436 0.983866,1.4535 1.252155,2.61611 0.260206,1.12753 0.211682,1.57003 1.196277,2.3964 0.984593,0.82635 3.154538,1.94462 7.663151,3.58412 l -0.283283,1.69458 c 0,0 -2.364778,0.0416 -5.024003,0 -1.329623,-0.0208 -2.733753,-0.0619 -3.964264,-0.14078 -1.230519,-0.0789 -2.253341,-0.17745 -2.991116,-0.38825 -0.892327,-0.25495 -1.838991,-0.92065 -3.08838,-1.82811 -1.249397,-0.90745 -2.697246,-2.05491 -4.137476,-3.22576 -2.880459,-2.34166 -5.803461,-4.82444 -6.736939,-5.47069 -0.514977,-0.35653 -0.816905,-0.84711 -1.184323,-1.49705 -0.367425,-0.64994 -0.74653,-1.4595 -1.136975,-2.3934 -0.780898,-1.86783 -1.602103,-4.23036 -2.351598,-6.68703 -0.749488,-2.45666 -1.425636,-5.00356 -1.907039,-7.23269 -0.481413,-2.22911 -0.77925,-4.10172 -0.731247,-5.39774 0.09443,-2.54955 1.510106,-5.12036 2.851176,-7.12133 1.34107,-2.00096 2.664743,-3.43011 2.664743,-3.43011 z m -0.768795,3.53422 c -0.435698,0.54359 -0.934622,1.17668 -1.47444,1.98212 -1.259669,1.87952 -2.486105,4.30418 -2.556803,6.21305 -0.03462,0.93319 0.225208,2.79647 0.693276,4.96386 0.468077,2.16737 1.133712,4.6773 1.870352,7.09189 0.736647,2.41457 1.545768,4.73716 2.29229,6.52276 0.373273,0.89281 0.732375,1.65243 1.046106,2.20741 0.313733,0.55495 0.635749,0.90521 0.657435,0.92023 1.213174,0.83989 3.987183,3.22859 6.844878,5.55176 1.42884,1.16158 2.860257,2.29492 4.061958,3.16773 1.201701,0.87282 2.277885,1.4866 2.541445,1.5619 0.418111,0.11947 1.438473,0.2483 2.622929,0.32425 1.184464,0.076 2.567372,0.1173 3.87979,0.13779 0.219632,0.003 0.201077,-0.002 0.415535,0 -1.846537,-0.81032 -3.107026,-1.50929 -3.922027,-2.19332 -1.327169,-1.11387 -1.540449,-2.32267 -1.77564,-3.34179 -0.22708,-0.98404 -0.49175,-1.46613 -0.812299,-1.80124 -0.32055,-0.33512 -0.774471,-0.57762 -1.49833,-0.89935 -0.70353,-0.31268 -1.129801,-0.87369 -1.620352,-1.53886 -0.490548,-0.66515 -0.97245,-1.45158 -1.405745,-2.2125 -0.786514,-1.3812 -1.286994,-2.44789 -1.395938,-2.67711 -0.212194,-0.10313 -0.928864,-0.44576 -1.97275,-1.04227 -1.187007,-0.67828 -2.477688,-1.42186 -3.196742,-2.3806 -0.462635,-0.61683 -0.587267,-1.33103 -0.73978,-2.21891 -0.152522,-0.88786 -0.256502,-1.9176 -0.340024,-2.94078 -0.08353,-1.02317 -0.145638,-2.03829 -0.206919,-2.87079 -0.0613,-0.83251 -0.142622,-1.53426 -0.182599,-1.69416 -0.113184,-0.45274 -0.789114,-2.15654 -1.41301,-3.77866 -0.311943,-0.81108 -0.615321,-1.62653 -0.846435,-2.34137 -0.231115,-0.71484 -0.40871,-1.26777 -0.40871,-1.85285 0,-0.14823 -0.08689,-0.74385 -0.236781,-1.41088 -0.149895,-0.66704 -0.353773,-1.45203 -0.558034,-2.19757 -0.181189,-0.66135 -0.216866,-0.7555 -0.362636,-1.25174 z"
       id="path5003-1"
       inkscape:connector-curvature="0" />
    <path
       style="fill:#d5b166;fill-opacity:1;stroke:none;stroke-width:2.13302112;stroke-linecap:butt;stroke-linejoin:miter;stroke-miterlimit:4;stroke-dasharray:none;stroke-opacity:1"
       d="m 55.499234,167.38546 c -9.107456,12.3768 -2.781679,25.38346 2.802347,33.86106 7.840018,11.9026 24.053064,11.20916 24.053064,11.20916 l 0.586512,0.41461 c -0.0719,0.0648 -0.139939,0.12868 -0.199115,0.19043 -2.495216,2.60368 -2.164262,13.59946 0.310311,18.55085 3.113387,6.22962 10.37931,13.37311 17.600067,15.98893 8.50077,3.07955 17.20424,2.78097 26.23841,-2.75414 -3.05641,36.3782 -34.589623,43.50839 -46.638007,43.97179 -12.143269,0.46706 -42.267845,1.63463 -61.183362,-26.15477 -22.0911513,-32.4549 -3.73643,-72.39253 7.472774,-81.7335 11.209169,-9.34098 28.956999,-13.54442 28.956999,-13.54442 z m 71.349046,76.51858 0.10946,0.0775 c -0.008,0.1098 -0.017,0.21806 -0.0253,0.32736 -0.0235,-0.11495 -0.0513,-0.24831 -0.0843,-0.4048 z"
       id="path4758-2-8"
       inkscape:connector-curvature="0" />
    <path
       style="color:#000000;font-style:normal;font-variant:normal;font-weight:normal;font-stretch:normal;font-size:medium;line-height:normal;font-family:sans-serif;font-variant-ligatures:normal;font-variant-position:normal;font-variant-caps:normal;font-variant-numeric:normal;font-variant-alternates:normal;font-feature-settings:normal;text-indent:0;text-align:start;text-decoration:none;text-decoration-line:none;text-decoration-style:solid;text-decoration-color:#000000;letter-spacing:normal;word-spacing:normal;text-transform:none;writing-mode:lr-tb;direction:ltr;text-orientation:mixed;dominant-baseline:auto;baseline-shift:baseline;text-anchor:start;white-space:normal;shape-padding:0;clip-rule:nonzero;display:inline;overflow:visible;visibility:visible;opacity:1;isolation:auto;mix-blend-mode:normal;color-interpolation:sRGB;color-interpolation-filters:linearRGB;solid-color:#000000;solid-opacity:1;vector-effect:none;fill:#784421;fill-opacity:1;fill-rule:nonzero;stroke:none;stroke-width:1.74748266;stroke-linecap:round;stroke-linejoin:miter;stroke-miterlimit:4;stroke-dasharray:none;stroke-dashoffset:0;stroke-opacity:1;color-rendering:auto;image-rendering:auto;shape-rendering:auto;text-rendering:auto;enable-background:accumulate"
       d="m 82.731356,212.80431 c 0.21072,-0.002 0.414872,0.0733 0.574849,0.21042 2.774937,1.35708 4.288674,3.24396 5.10726,4.95022 0.420257,0.876 0.671525,1.70018 0.857958,2.37035 0.186435,0.67017 0.333448,1.20584 0.418385,1.37841 0.336694,0.68404 1.240533,1.15602 2.386836,1.79702 1.146311,0.64099 2.512172,1.54252 3.036559,3.29618 0.837408,2.80039 3.714569,3.61643 3.714569,3.61643 l 0.445149,0.12401 0.148099,0.43773 c 0,0 0.319265,0.94102 0.79814,2.01667 0.47887,1.07564 1.19673,2.29271 1.59786,2.6334 0.14909,0.12662 0.71559,0.42135 1.40505,0.66669 0.68945,0.24534 1.51786,0.48061 2.30854,0.68112 1.52304,0.38621 2.79471,0.62152 2.89419,0.64007 0.26879,0.0143 0.51605,0.15139 0.67024,0.372 0.007,0.0102 0.0144,0.0198 0.0214,0.03 l 4.6e-4,4.4e-4 c 0.14092,0.21262 0.18189,0.4762 0.11217,0.72157 -0.0177,0.10573 -0.12825,0.81922 0.13417,1.78069 0.28251,1.03505 0.93171,2.20731 2.8169,2.98237 l 0.055,0.0226 0.0516,0.0296 c 0.59388,0.34454 2.4917,0.96738 5.02414,1.189 2.5244,0.2209 5.73528,0.0944 9.23218,-0.83015 0.32506,-0.10426 0.68107,-0.0102 0.91153,0.24216 0.0183,0.02 0.0357,0.0408 0.0521,0.0624 0.002,0.003 0.005,0.006 0.007,0.009 0.0136,0.0182 0.0263,0.037 0.0383,0.0562 0.005,0.007 0.008,0.0135 0.0122,0.0202 0.0102,0.0166 0.019,0.0336 0.0276,0.0508 0.006,0.0113 0.0102,0.0216 0.0154,0.0327 0.006,0.0123 0.0102,0.0248 0.0155,0.0372 0.007,0.0174 0.0136,0.035 0.0196,0.053 0.002,0.007 0.005,0.0143 0.007,0.0213 0.007,0.0216 0.012,0.0434 0.0167,0.0655 0.001,0.005 0.002,0.0102 0.003,0.0153 0.005,0.0249 0.009,0.0498 0.0113,0.075 2.3e-4,0.002 4.4e-4,0.005 6.6e-4,0.007 0.002,0.0277 0.005,0.0554 0.005,0.0832 10e-4,0.34958 -0.20582,0.66629 -0.52662,0.8052 -11.53668,6.50379 -22.27672,5.711 -31.013723,0.56417 -9.384743,-5.5284 -14.009098,-13.77371 -15.271054,-18.36123 -1.866233,-6.78415 0.795502,-13.72957 0.987081,-14.21648 0.04863,-0.29727 0.247008,-0.54849 0.524842,-0.66482 0.01972,-0.008 0.03959,-0.0162 0.05981,-0.0232 8.28e-4,-4.4e-4 0.0025,-8.4e-4 0.0034,-0.002 l 4.3e-4,-1e-5 c 0.09078,-0.0322 0.186268,-0.0492 0.282579,-0.0503 z m -0.173612,14.49209 c 1.518226,6.31038 5.533085,12.05263 14.473184,17.3191 6.920232,4.07661 16.060772,5.61506 24.917672,1.87848 -1.36413,0.0684 -3.64614,0.0984 -4.79054,-0.002 -2.71765,-0.23779 -4.67681,-0.79673 -5.7486,-1.41853 l 0.10616,0.0526 c -2.36102,-0.97069 -3.44685,-2.70432 -3.83831,-4.13856 -0.18765,-0.68755 -0.22793,-1.3149 -0.22307,-1.79091 -0.48541,-0.0948 -1.10992,-0.20479 -2.3531,-0.52004 -0.82343,-0.2088 -1.69257,-0.45362 -2.46455,-0.72832 -0.77198,-0.27469 -1.43086,-0.53969 -1.95071,-0.98121 -0.936765,-0.79564 -1.547433,-2.0967 -2.063129,-3.25504 -0.41947,-0.94222 -0.597876,-1.48071 -0.69669,-1.7626 -0.940211,-0.34735 -3.562867,-1.55139 -4.487017,-4.6419 -0.339519,-1.1354 -1.148084,-1.675 -2.215487,-2.27186 -1.067396,-0.59686 -2.416798,-1.15953 -3.101526,-2.55066 -0.251217,-0.51039 -0.357701,-1.04728 -0.534211,-1.68179 -0.176518,-0.6345 -0.397161,-1.34712 -0.75005,-2.08265 -0.615404,-1.28275 -1.913889,-2.81187 -3.859644,-3.93301 -1.099061,3.50355 -1.145996,9.65679 -0.420382,12.50867 z"
       id="path4956"
       inkscape:connector-curvature="0"
       sodipodi:nodetypes="ccssccscccsccccccccccccscccccccccccccccccssccccccccsccccccsccscccssccc" />
    <path
       style="color:#000000;font-style:normal;font-variant:normal;font-weight:normal;font-stretch:normal;font-size:medium;line-height:normal;font-family:sans-serif;font-variant-ligatures:normal;font-variant-position:normal;font-variant-caps:normal;font-variant-numeric:normal;font-variant-alternates:normal;font-feature-settings:normal;text-indent:0;text-align:start;text-decoration:none;text-decoration-line:none;text-decoration-style:solid;text-decoration-color:#000000;letter-spacing:normal;word-spacing:normal;text-transform:none;writing-mode:lr-tb;direction:ltr;text-orientation:mixed;dominant-baseline:auto;baseline-shift:baseline;text-anchor:start;white-space:normal;shape-padding:0;clip-rule:nonzero;display:inline;overflow:visible;visibility:visible;opacity:1;isolation:auto;mix-blend-mode:normal;color-interpolation:sRGB;color-interpolation-filters:linearRGB;solid-color:#000000;solid-opacity:1;vector-effect:none;fill:#784421;fill-opacity:1;fill-rule:nonzero;stroke:none;stroke-width:2.62122393;stroke-linecap:round;stroke-linejoin:bevel;stroke-miterlimit:4;stroke-dasharray:none;stroke-dashoffset:0;stroke-opacity:1;color-rendering:auto;image-rendering:auto;shape-rendering:auto;text-rendering:auto;enable-background:accumulate"
       d="m 55.148905,167.03518 1.357537,2.0521 c -4.337983,5.89522 -4.965167,11.77954 -3.877222,17.3656 1.087947,5.58607 3.970891,10.82629 6.718592,14.99782 7.280568,11.05326 22.407092,10.62821 22.778278,10.61629 a 1.3107431,1.3107431 0 0 1 1.287153,0.58577 1.3107431,1.3107431 0 0 1 0.02899,1.41 c -0.147892,0.32778 -1.551119,3.56287 -1.315739,8.47974 0.248054,5.18154 2.335504,12.01372 10.147002,18.80634 1.623889,1.41209 6.374277,4.68259 12.517374,6.20877 6.11555,1.51933 13.59065,1.40712 21.28763,-3.68055 a 1.3107431,1.3107431 0 0 1 1.46378,-0.1361 1.3107431,1.3107431 0 0 1 0.0686,0.0405 1.3107431,1.3107431 0 0 1 0.0273,0.0166 1.3107431,1.3107431 0 0 1 0.55761,1.41385 c -1.39146,18.80293 -10.27806,30.2874 -20.34606,36.9544 -10.106826,6.69271 -21.307556,8.64491 -27.594964,8.88673 -12.142525,0.46704 -43.027811,1.61141 -62.317148,-26.72718 C 6.656336,247.75211 5.7047831,229.24769 8.9877357,213.78197 12.270699,198.31625 19.614951,185.8815 25.65498,180.84816 37.238281,171.19541 55.14887,167.03511 55.14887,167.03511 Z m -2.617386,3.45145 c -5.566002,1.66868 -17.200449,5.71021 -25.198566,12.3753 -5.169159,4.30762 -12.6072,16.51241 -15.781131,31.46449 -3.1739202,14.9521 -2.2571736,32.6435 8.552702,48.52465 18.541675,27.2402 47.905761,26.04962 60.049677,25.58253 5.855862,-0.22522 16.695055,-2.12616 26.248509,-8.45242 9.10011,-6.02607 17.10191,-15.98431 18.95438,-32.64285 -7.61358,4.21389 -15.13074,4.27063 -21.19804,2.76329 -6.672536,-1.65771 -11.61345,-5.04289 -13.605278,-6.77491 -8.301684,-7.21886 -10.768115,-14.86468 -11.045492,-20.65877 -0.170089,-3.55302 0.458212,-6.30235 0.982102,-8.01173 -4.51929,-0.1785 -16.639631,-1.60383 -23.331617,-11.7635 -2.836324,-4.30608 -5.908509,-9.80809 -7.102565,-15.93896 -1.013951,-5.20613 -0.588161,-10.89903 2.475319,-16.46712 z"
       id="path4758"
       inkscape:connector-curvature="0" />
    <path
       inkscape:connector-curvature="0"
       style="fill:#784421;stroke:none;stroke-width:1.31061196;stroke-linecap:butt;stroke-linejoin:miter;stroke-miterlimit:4;stroke-dasharray:none;stroke-opacity:1"
       d="m 100.69318,261.24754 c 0.21227,-0.005 0.43164,0.0113 0.65662,0.0499 0.93634,0.16097 1.53098,0.37804 2.01151,0.60627 0.46702,0.22182 0.80727,0.42699 1.34135,0.63484 0.0558,0.0116 1.06667,0.22429 2.1797,0.39124 0.88012,0.13203 1.67051,0.74413 2.42669,1.50817 0.75618,0.76408 1.43003,1.70061 1.77131,2.65619 0.23546,0.65928 0.13278,1.37193 -0.0473,2.18862 -0.18008,0.81668 -0.48038,1.7194 -0.829,2.6003 -0.34861,0.88089 -0.74547,1.73687 -1.12495,2.44757 -0.37948,0.71069 -0.70556,1.25415 -1.0718,1.62039 -0.85619,0.85619 -3.4654,4.43728 -7.23738,3.37847 -1.03645,-0.29093 -1.806529,-1.05477 -2.352412,-1.98217 -0.545883,-0.92739 -0.897851,-2.03937 -1.133538,-3.18738 -0.471365,-2.29599 -0.472053,-4.72635 -0.315721,-6.10203 0.144422,-1.27092 0.283167,-2.98569 0.825487,-4.41133 0.271166,-0.71282 0.649657,-1.37263 1.245397,-1.83454 0.446805,-0.34643 1.017227,-0.54975 1.654027,-0.5645 z"
       id="path4760-0" />
    <path
       inkscape:connector-curvature="0"
       style="fill:#784421;stroke:none;stroke-width:1.31061196;stroke-linecap:butt;stroke-linejoin:miter;stroke-miterlimit:4;stroke-dasharray:none;stroke-opacity:1"
       d="m 59.886413,259.80619 c 0.131655,5e-4 0.26626,0.005 0.403888,0.0134 l 0.08579,0.006 0.08151,0.0269 c 0,0 0.743068,0.24792 1.733834,0.57817 1.187621,0.39589 2.531688,1.38328 4.389208,2.35242 0.829191,0.43262 2.41896,0.90113 3.792301,1.32769 0.686674,0.21328 1.322133,0.41869 1.828985,0.63653 0.253428,0.1089 0.474454,0.21763 0.674464,0.36086 0.200001,0.14326 0.447054,0.33527 0.49238,0.74321 0.03711,0.33448 -0.07232,0.54064 -0.178805,0.74106 -0.106522,0.20042 -0.241675,0.39276 -0.400608,0.5969 -0.317858,0.40829 -0.732895,0.85783 -1.177109,1.32295 -0.888432,0.93024 -1.906449,1.94114 -2.333672,2.51078 -0.488827,0.65178 -1.823883,2.46755 -3.316182,4.14901 -0.74614,0.84073 -1.53113,1.65028 -2.294384,2.27948 -0.763254,0.62921 -1.478425,1.11686 -2.294055,1.17959 -1.405771,0.10811 -2.993195,-0.67893 -4.462127,-1.4821 -1.468939,-0.80316 -2.823568,-1.7108 -3.167742,-1.89852 -0.28605,-0.15603 -0.46632,-0.4396 -0.544301,-0.695 -0.07804,-0.25541 -0.08566,-0.50143 -0.0704,-0.75211 0.03041,-0.50143 0.165793,-1.0352 0.333216,-1.58066 0.334838,-1.09094 0.823623,-2.25076 0.959926,-2.69376 0.06544,-0.21278 -0.0025,-1.26952 -0.117732,-2.29406 -0.114998,-1.02452 -0.309441,-2.05774 0.167176,-2.94287 0.199189,-0.36993 0.536555,-1.59228 1.360079,-2.6511 0.772059,-0.99264 2.079581,-1.84296 4.054411,-1.83429 z"
       id="path4762-2" />
    <path
       inkscape:connector-curvature="0"
       style="fill:#784421;stroke:none;stroke-width:1.31061196;stroke-linecap:round;stroke-linejoin:miter;stroke-miterlimit:4;stroke-dasharray:none;stroke-opacity:1"
       d="m 56.692942,216.02922 c 0.736963,8.3e-4 1.57326,0.16635 2.489443,0.65843 0.03654,0.0143 0.551539,0.21383 1.17666,0.57975 0.646849,0.37865 1.411345,0.89223 1.816568,1.70268 0.205941,0.41187 0.97231,1.33649 1.665537,2.28592 0.693227,0.94942 1.408173,1.94379 1.320915,3.07811 -0.07107,0.92423 -0.461234,1.75868 -0.747482,2.45999 -0.279704,0.68527 -0.377175,1.21753 -0.345525,1.33751 0.0025,-0.0228 0.173438,0.19781 0.492719,0.39418 0.342891,0.21088 0.817098,0.44139 1.31019,0.66293 0.493093,0.22154 1.006023,0.43636 1.451412,0.63744 0.445381,0.20107 0.800273,0.35412 1.107462,0.6101 0.342939,0.2858 0.50082,0.64688 0.63743,1.03962 0.136601,0.39276 0.22983,0.82841 0.292692,1.26843 0.125717,0.88005 0.163696,1.70668 -0.01873,2.3452 -0.0943,0.33002 -0.283516,0.49564 -0.470596,0.65107 -0.187079,0.15545 -0.399994,0.29037 -0.638672,0.42703 -0.477363,0.27334 -1.058838,0.54617 -1.650643,0.8238 -0.591797,0.27764 -1.192409,0.55882 -1.676712,0.82424 -0.484295,0.26542 -0.853535,0.54958 -0.930462,0.6485 -0.265284,0.34107 -0.850561,1.64045 -1.442376,2.89807 -0.591822,1.25763 -1.160334,2.51878 -2.07563,3.18444 -0.443797,0.32278 -1.06625,0.58164 -1.849419,0.86093 -0.783176,0.2793 -1.707882,0.55389 -2.652335,0.79186 -1.888914,0.47594 -3.764889,0.83482 -4.955748,0.68596 -1.130845,-0.14134 -1.857687,-0.80354 -2.26889,-1.40319 -0.205592,-0.29984 -0.349003,-0.58559 -0.459867,-0.79174 -0.07149,-0.13295 -0.138556,-0.22129 -0.161642,-0.25726 -0.06917,-0.0245 -0.290001,-0.12642 -0.543173,-0.20996 -0.347819,-0.11474 -0.798601,-0.25754 -1.275201,-0.44203 -0.953217,-0.36899 -2.046067,-0.87999 -2.657072,-1.87289 -0.63608,-1.03361 -0.793389,-2.65624 -0.912521,-4.20489 -0.119132,-1.54865 -0.118634,-2.96919 -0.118634,-3.26109 0,0.22539 -0.04257,-0.0754 -0.212435,-0.35026 -0.169909,-0.27484 -0.413755,-0.62457 -0.66306,-0.98386 -0.249313,-0.3593 -0.504241,-0.72835 -0.708659,-1.07507 -0.204425,-0.3467 -0.400948,-0.60886 -0.400948,-1.09346 0,-0.2514 0.06063,-0.40863 0.130488,-0.60153 0.06983,-0.19292 0.161319,-0.40121 0.269218,-0.62762 0.215807,-0.4528 0.498145,-0.97582 0.793995,-1.50096 0.591689,-1.05024 1.244832,-2.11966 1.461674,-2.49914 0.06345,-0.11105 0.207267,-0.97817 0.280625,-1.88781 0.07331,-0.90963 0.135341,-1.90677 0.50897,-2.72874 0.310478,-0.68307 0.901828,-1.80858 1.60888,-2.80767 0.353517,-0.49954 0.732829,-0.96617 1.145945,-1.33456 0.413126,-0.36841 0.872058,-0.67875 1.461228,-0.67875 1.284386,0 3.178801,-0.002 4.990746,0.23896 0.668651,0.0891 1.373615,-0.18267 2.340896,-0.37296 0.241818,-0.0476 0.50006,-0.0842 0.773005,-0.10076 0.101163,-0.006 0.204451,-0.009 0.30974,-0.009 z"
       id="path4764-6" />
    <path
       inkscape:connector-curvature="0"
       style="fill:#784421;stroke:none;stroke-width:1.31061196;stroke-linecap:round;stroke-linejoin:miter;stroke-miterlimit:4;stroke-dasharray:none;stroke-opacity:1"
       d="m 21.521913,234.71745 0.157013,0.0824 c 0,0 1.064645,0.54465 1.593434,0.92235 0.242666,0.17334 0.363674,0.35402 0.514942,0.56621 0.151268,0.21218 0.303249,0.45126 0.453997,0.69025 0.287836,0.45634 0.591967,0.90441 0.714535,1.04098 0.009,-2.3e-4 0,-8.3e-4 0.01832,-0.002 0.11195,-0.003 0.330105,-0.0396 0.599837,-0.0648 0.539475,-0.0507 1.389549,0.0291 2.010725,0.72786 0.890557,1.00186 1.135027,2.09678 1.226102,2.59859 0.252442,0.0642 0.555057,0.13232 1.122022,0.3251 0.383424,0.13035 0.771008,0.27825 1.10419,0.45817 0.166602,0.0899 0.320584,0.18438 0.467996,0.32295 0.147412,0.13857 0.33187,0.35451 0.33187,0.70054 0,0.34254 -0.07983,0.61059 -0.176542,1.03848 -0.0968,0.42789 -0.220824,0.93778 -0.336269,1.44283 -0.115444,0.50505 -0.222181,1.00634 -0.283222,1.39632 -0.03053,0.19499 -0.04908,0.36302 -0.05383,0.47568 -0.0045,0.11262 0.02985,0.18443 -0.01436,0.0738 0.30066,0.75166 0.172234,1.097 0.906536,1.55593 0.342782,0.21425 0.596015,0.53399 0.715542,0.87165 0.119526,0.33766 0.120736,0.67082 0.08402,0.97405 -0.0735,0.60645 -0.292982,1.14941 -0.394178,1.55413 -0.112967,0.45167 -0.459662,0.76674 -0.788004,0.93091 -0.32833,0.16417 -0.663196,0.22811 -0.972224,0.26244 -0.318741,0.0355 -0.386601,0.009 -0.603682,-5e-4 -0.112629,0.36545 -0.278145,0.85331 -0.537202,1.41766 -0.219705,0.47865 -0.48523,0.966 -0.840835,1.36945 -0.355606,0.40348 -0.866686,0.77065 -1.502212,0.7177 -0.804152,-0.0671 -1.930709,-0.33516 -3.096052,-0.59736 -1.16535,-0.2622 -2.361236,-0.51781 -3.08457,-0.56948 -1.470978,-0.10505 -3.583725,0.39344 -5.355125,-0.0154 -0.717871,-0.16565 -1.095878,-0.76872 -1.369907,-1.39 -0.274029,-0.62127 -0.456349,-1.3528 -0.599837,-2.08533 -0.143489,-0.73253 -0.243384,-1.46399 -0.322055,-2.05125 -0.0787,-0.58725 -0.174529,-1.11484 -0.167292,-1.09313 -0.03381,-0.10166 -0.363577,-0.55771 -0.688119,-0.88226 -0.324531,-0.32455 -0.622861,-0.56914 -0.622861,-0.56914 l -0.443718,-0.36257 0.300365,-0.48809 c 0,0 0.9332,-1.51786 1.503003,-2.54352 0.01289,-0.0232 0.10754,-0.44532 0.10754,-0.97707 0,-0.53176 -0.04286,-1.19131 -0.0726,-1.85755 -0.02963,-0.66626 -0.04783,-1.33781 0.01798,-1.94244 0.06581,-0.60462 0.17644,-1.20198 0.701769,-1.61056 0.692541,-0.53865 1.479493,-0.5473 2.102037,-0.48504 0.622556,0.0623 1.154353,0.15623 1.772215,0.0137 0.205502,-0.0474 0.280543,-0.11705 0.414713,-0.31572 0.13417,-0.19867 0.271191,-0.52369 0.465407,-0.89593 0.194205,-0.37222 0.461743,-0.80036 0.910504,-1.13691 0.448739,-0.33656 1.05941,-0.55308 1.831481,-0.58664 z"
       id="path4766-5" />
    <path
       inkscape:connector-curvature="0"
       style="fill:#784421;stroke:none;stroke-width:1.31061196;stroke-linecap:butt;stroke-linejoin:miter;stroke-miterlimit:4;stroke-dasharray:none;stroke-opacity:1"
       d="m 21.957523,191.40589 c 0.547527,0 0.889076,0.2805 1.243607,0.567 0.354503,0.28649 0.705144,0.63599 1.053829,0.97743 0.348696,0.34141 0.694916,0.67437 0.996164,0.90991 0.301247,0.23554 0.56399,0.34511 0.624568,0.35118 0.06491,0.007 0.231137,-0.0321 0.476127,-0.18863 0.24499,-0.15645 0.539916,-0.40523 0.85618,-0.66126 0.316276,-0.25601 0.652172,-0.52312 1.061524,-0.70561 0.392063,-0.17478 0.915797,-0.25133 1.390906,-0.0417 0.0562,0.017 0.282635,0.0857 0.565631,0.18727 0.160111,0.0574 0.328783,0.12185 0.487186,0.19359 0.158404,0.0717 0.288198,0.10856 0.483805,0.30421 0.130677,0.13068 0.140255,0.18612 0.171476,0.24957 0.03121,0.0635 0.05665,0.12493 0.08368,0.19371 0.05371,0.13754 0.110254,0.30195 0.17281,0.49486 0.125045,0.38585 0.271734,0.8814 0.424879,1.41347 0.306268,1.06418 0.637652,2.27533 0.840044,2.96343 0.155373,0.52828 0.88433,1.97198 1.54103,3.33752 0.328355,0.68278 0.641853,1.36248 0.870304,1.9685 0.228455,0.60601 0.414665,1.08903 0.333223,1.6591 -0.08034,0.56253 -0.386068,0.98048 -0.764534,1.49884 -0.378467,0.51831 -0.853899,1.07731 -1.337508,1.61349 -0.967215,1.07235 -1.976372,2.06002 -2.211207,2.29484 -0.323343,0.32335 -0.831642,0.32753 -1.133534,0.23253 -0.301881,-0.095 -0.533278,-0.24507 -0.746695,-0.38188 -0.183248,-0.11745 -0.330547,-0.21192 -0.445313,-0.27734 -0.0045,0.005 -8.25e-4,8.4e-4 -0.0057,0.006 -0.113816,0.11484 -0.266079,0.27694 -0.441128,0.46664 -0.35011,0.37939 -0.792686,0.87057 -1.245745,1.36009 -0.453058,0.48951 -0.91531,0.97651 -1.322492,1.36053 -0.20359,0.19201 -0.391791,0.35789 -0.573433,0.49329 -0.181653,0.13539 -0.30862,0.26824 -0.660449,0.31222 -0.33257,0.0416 -0.538389,-0.0741 -0.71804,-0.17914 -0.179641,-0.10506 -0.339164,-0.23284 -0.501639,-0.37803 -0.324932,-0.29038 -0.654562,-0.65348 -0.962516,-1.01581 -0.593482,-0.69826 -1.061162,-1.34721 -1.097314,-1.39721 l -2.049116,-2.10973 -0.04761,-0.11082 c 0,0 -0.454834,-1.05612 -0.910957,-2.18908 -0.228061,-0.56648 -0.456337,-1.15184 -0.631341,-1.64297 -0.08752,-0.24556 -0.161616,-0.46698 -0.217172,-0.65875 -0.05552,-0.19178 -0.103695,-0.31323 -0.103695,-0.55549 0,-0.40808 0.129025,-0.6357 0.270127,-0.97178 0.14108,-0.33607 0.319929,-0.70946 0.496222,-1.07304 0.17627,-0.36356 0.350087,-0.71707 0.473967,-0.99154 0.03132,-0.0697 0.04681,-0.11263 0.07067,-0.16976 -0.08752,-0.0464 -0.162169,-0.0885 -0.288865,-0.14719 -0.194465,-0.09 -0.413333,-0.18783 -0.627157,-0.31314 -0.213825,-0.1253 -0.449395,-0.25775 -0.617671,-0.5943 -0.253516,-0.50705 -0.1518,-0.96779 -0.05552,-1.43301 0.09623,-0.46521 0.241325,-0.95617 0.351941,-1.454 0.09352,-0.42076 0.312126,-0.86589 0.612265,-1.43007 0.300139,-0.56418 0.681425,-1.20299 1.087951,-1.81273 0.406503,-0.60976 0.834842,-1.18755 1.24787,-1.63868 0.20652,-0.22556 0.407318,-0.42006 0.622431,-0.57728 0.215114,-0.15718 0.443458,-0.30882 0.805962,-0.30882 z"
       id="path4768-4" />
  </g>
</svg>
