<?xml version="1.0" encoding="UTF-8" standalone="no"?>
<!-- Created with Inkscape (http://www.inkscape.org/) -->

<svg
   xmlns:dc="http://purl.org/dc/elements/1.1/"
   xmlns:cc="http://creativecommons.org/ns#"
   xmlns:rdf="http://www.w3.org/1999/02/22-rdf-syntax-ns#"
   xmlns:svg="http://www.w3.org/2000/svg"
   xmlns="http://www.w3.org/2000/svg"
   xmlns:sodipodi="http://sodipodi.sourceforge.net/DTD/sodipodi-0.dtd"
   xmlns:inkscape="http://www.inkscape.org/namespaces/inkscape"
   width="64"
   height="64"
   viewBox="0 0 64 64"
   version="1.1"
   id="svg8"
   sodipodi:docname="notification_options_ic2.svg"
   inkscape:version="0.92.5 (2060ec1f9f, 2020-04-08)">
  <defs
     id="defs2" />
  <sodipodi:namedview
     id="base"
     pagecolor="#ffffff"
     bordercolor="#666666"
     borderopacity="1.0"
     inkscape:pageopacity="0.0"
     inkscape:pageshadow="2"
     inkscape:zoom="7.6689655"
     inkscape:cx="28.69388"
     inkscape:cy="30.054164"
     inkscape:document-units="px"
     inkscape:current-layer="layer1"
     showgrid="false"
     units="px"
     inkscape:pagecheckerboard="false"
     inkscape:snap-global="true"
     showguides="true"
     inkscape:guide-bbox="true"
     inkscape:window-width="1366"
     inkscape:window-height="706"
     inkscape:window-x="-8"
     inkscape:window-y="-8"
     inkscape:window-maximized="1">
    <sodipodi:guide
       position="42.5,238"
       orientation="0,1"
       id="guide4923"
       inkscape:locked="false" />
    <sodipodi:guide
       position="63,110.5"
       orientation="0,1"
       id="guide4925"
       inkscape:locked="false" />
    <sodipodi:guide
       position="-54.447222,-51.618795"
       orientation="1,0"
       id="guide4946"
       inkscape:locked="false" />
    <sodipodi:guide
       position="87.5,89.5"
       orientation="0,1"
       id="guide4981"
       inkscape:locked="false" />
  </sodipodi:namedview>
  <metadata
     id="metadata5">
    <rdf:RDF>
      <cc:Work
         rdf:about="">
        <dc:format>image/svg+xml</dc:format>
        <dc:type
           rdf:resource="http://purl.org/dc/dcmitype/StillImage" />
        <dc:title></dc:title>
      </cc:Work>
    </rdf:RDF>
  </metadata>
  <g
     inkscape:label="Layer 1"
     inkscape:groupmode="layer"
     id="layer1"
     transform="translate(0,-280.06665)">
    <path
       style="opacity:1;fill:#000000;fill-opacity:1;fill-rule:nonzero;stroke:none;stroke-width:31.36493301;stroke-linecap:round;stroke-linejoin:round;stroke-miterlimit:4;stroke-dasharray:none;stroke-dashoffset:0;stroke-opacity:1;paint-order:markers fill stroke"
       d="m 15.556403,284.72683 -1.817605,13.48724 h -2.394896 c -5.9955481,0 -10.82180131,4.82817 -10.82180131,10.82371 v 9.17566 c 0,5.99556 4.82625321,10.82182 10.82180131,10.82182 h 17.402525 a 20.378993,20.378993 0 0 1 -0.03811,-0.11242 20.378993,20.378993 0 0 1 -0.445828,-1.98717 20.378993,20.378993 0 0 1 -0.245776,-2.02147 20.378993,20.378993 0 0 1 -0.04955,-1.44227 20.378993,20.378993 0 0 1 0.100974,-2.0348 20.378993,20.378993 0 0 1 0.02096,-0.14289 H 10.547498 a 2.3967101,2.3967101 0 0 1 -0.22863,-0.006 2.3967101,2.3967101 0 0 1 -0.238156,-0.0267 2.3967101,2.3967101 0 0 1 -0.2324396,-0.0533 2.3967101,2.3967101 0 0 1 -0.2286289,-0.0743 2.3967101,2.3967101 0 0 1 -0.2191036,-0.0972 2.3967101,2.3967101 0 0 1 -0.2076715,-0.11813 2.3967101,2.3967101 0 0 1 -0.1943365,-0.13908 2.3967101,2.3967101 0 0 1 -0.1809985,-0.15814 2.3967101,2.3967101 0 0 1 -0.1638508,-0.17529 2.3967101,2.3967101 0 0 1 -0.1447982,-0.19051 2.3967101,2.3967101 0 0 1 -0.1257466,-0.20388 2.3967101,2.3967101 0 0 1 -0.1047882,-0.21527 2.3967101,2.3967101 0 0 1 -0.083836,-0.22483 2.3967101,2.3967101 0 0 1 -0.059068,-0.23245 2.3967101,2.3967101 0 0 1 -0.036202,-0.23624 2.3967101,2.3967101 0 0 1 -0.013338,-0.24006 2.3967101,2.3967101 0 0 1 0.011427,-0.23817 2.3967101,2.3967101 0 0 1 0.036202,-0.23814 2.3967101,2.3967101 0 0 1 0.059067,-0.23245 2.3967101,2.3967101 0 0 1 0.08002,-0.22481 2.3967101,2.3967101 0 0 1 0.1047882,-0.21529 2.3967101,2.3967101 0 0 1 0.1238407,-0.20386 2.3967101,2.3967101 0 0 1 0.1447992,-0.19244 2.3967101,2.3967101 0 0 1 0.1638508,-0.17528 2.3967101,2.3967101 0 0 1 0.1790936,-0.15813 2.3967101,2.3967101 0 0 1 0.1943345,-0.14099 2.3967101,2.3967101 0 0 1 0.2076725,-0.11812 2.3967101,2.3967101 0 0 1 0.2191037,-0.099 2.3967101,2.3967101 0 0 1 0.226724,-0.0762 2.3967101,2.3967101 0 0 1 0.2343442,-0.0533 2.3967101,2.3967101 0 0 1 0.236252,-0.0286 2.3967101,2.3967101 0 0 1 0.240061,-0.006 h 18.675229 a 20.378993,20.378993 0 0 1 0.352471,-0.96597 20.378993,20.378993 0 0 1 0.885939,-1.83475 20.378993,20.378993 0 0 1 1.065034,-1.73757 20.378993,20.378993 0 0 1 0.924045,-1.21556 H 10.547509 a 2.3967994,2.3967994 0 0 1 -0.09907,-0.002 2.3967994,2.3967994 0 0 1 -0.24006,-0.0229 2.3967994,2.3967994 0 0 1 -0.2343449,-0.0457 2.3967994,2.3967994 0 0 1 -0.2286309,-0.0686 2.3967994,2.3967994 0 0 1 -0.2229144,-0.0915 2.3967994,2.3967994 0 0 1 -0.2114822,-0.11241 2.3967994,2.3967994 0 0 1 -0.1981442,-0.13336 2.3967994,2.3967994 0 0 1 -0.1848102,-0.15242 2.3967994,2.3967994 0 0 1 -0.1676615,-0.17148 2.3967994,2.3967994 0 0 1 -0.1505138,-0.18672 2.3967994,2.3967994 0 0 1 -0.1314631,-0.20004 2.3967994,2.3967994 0 0 1 -0.1105038,-0.21339 2.3967994,2.3967994 0 0 1 -0.087641,-0.22101 2.3967994,2.3967994 0 0 1 -0.066685,-0.23053 2.3967994,2.3967994 0 0 1 -0.043821,-0.23625 2.3967994,2.3967994 0 0 1 -0.017151,-0.23815 2.3967994,2.3967994 0 0 1 0.00379,-0.24007 2.3967994,2.3967994 0 0 1 0.028578,-0.23815 2.3967994,2.3967994 0 0 1 0.05334,-0.23435 2.3967994,2.3967994 0 0 1 0.074306,-0.22672 2.3967994,2.3967994 0 0 1 0.099069,-0.21911 2.3967994,2.3967994 0 0 1 0.1181262,-0.20768 2.3967994,2.3967994 0 0 1 0.1409874,-0.19433 2.3967994,2.3967994 0 0 1 0.1581362,-0.18099 2.3967994,2.3967994 0 0 1 0.1752819,-0.16195 2.3967994,2.3967994 0 0 1 0.1905258,-0.1448 2.3967994,2.3967994 0 0 1 0.2038608,-0.12575 2.3967994,2.3967994 0 0 1 0.2152929,-0.10478 2.3967994,2.3967994 0 0 1 0.2248192,-0.0819 2.3967994,2.3967994 0 0 1 0.2324396,-0.059 2.3967994,2.3967994 0 0 1 0.236251,-0.0361 2.3967994,2.3967994 0 0 1 0.240061,-0.0115 h 24.82346 a 2.3967994,2.3967994 0 0 1 0.09907,0.002 2.3967994,2.3967994 0 0 1 0.240059,0.021 2.3967994,2.3967994 0 0 1 0.234347,0.0457 2.3967994,2.3967994 0 0 1 0.228629,0.0705 2.3967994,2.3967994 0 0 1 0.222915,0.0915 2.3967994,2.3967994 0 0 1 0.211481,0.11242 2.3967994,2.3967994 0 0 1 0.198145,0.13336 2.3967994,2.3967994 0 0 1 0.175283,0.14481 20.378993,20.378993 0 0 1 0.354376,-0.25341 20.378993,20.378993 0 0 1 1.766164,-1.01358 20.378993,20.378993 0 0 1 1.859521,-0.8307 20.378993,20.378993 0 0 1 1.933826,-0.64397 20.378993,20.378993 0 0 1 1.987172,-0.44583 20.378993,20.378993 0 0 1 2.021467,-0.24577 20.378993,20.378993 0 0 1 1.442273,-0.0496 20.378993,20.378993 0 0 1 2.034803,0.10099 20.378993,20.378993 0 0 1 1.129811,0.17146 c -1.862225,-3.04789 -5.06701,-5.15177 -8.929892,-5.15177 H 30.964134 Z"
       id="rect4747"
       inkscape:connector-curvature="0" />
    <path
       style="opacity:1;fill:#000000;fill-opacity:1;fill-rule:nonzero;stroke:none;stroke-width:3.48930144;stroke-linecap:round;stroke-linejoin:round;stroke-miterlimit:4;stroke-dasharray:none;stroke-dashoffset:0;stroke-opacity:1;paint-order:markers fill stroke"
       d="m 47.032011,306.99512 c -1.871902,0 -3.378924,1.50677 -3.378924,3.37868 -1.35e-4,0.2432 0.0021,0.47871 0.0055,0.72007 0.0031,0.0618 0.003,0.1256 0.003,0.18236 5e-6,0.0801 -0.004,0.16011 -0.01203,0.23978 -0.0078,0.0798 -0.01989,0.15877 -0.03575,0.23714 -0.01593,0.0783 -0.03581,0.15608 -0.0595,0.23248 -0.02362,0.0766 -0.05103,0.15167 -0.08217,0.22542 -0.03118,0.0738 -0.066,0.14588 -0.104373,0.21603 -0.0384,0.0703 -0.0803,0.13848 -0.125504,0.20455 -0.04523,0.0662 -0.09371,0.12999 -0.145322,0.19124 -0.05149,0.0614 -0.105989,0.11979 -0.163324,0.17557 -0.05742,0.0558 -0.117594,0.10865 -0.180282,0.15838 -0.06278,0.0498 -0.127987,0.0964 -0.195415,0.13957 -0.06729,0.0433 -0.136689,0.083 -0.207938,0.11932 -0.07136,0.0362 -0.144508,0.0691 -0.219159,0.0981 -0.07462,0.0289 -0.150625,0.0541 -0.227764,0.0756 -0.0771,0.0213 -0.155189,0.0389 -0.234029,0.0525 -0.07887,0.0141 -0.158367,0.0233 -0.238203,0.0289 -0.05653,0.003 -0.113169,0.008 -0.169843,0.008 -0.08006,0 -0.160096,-0.003 -0.23977,-0.0125 -0.07961,-0.009 -0.15875,-0.0198 -0.237159,-0.0356 -0.07841,-0.0161 -0.156006,-0.0356 -0.232463,-0.0594 -0.07647,-0.0238 -0.15169,-0.0511 -0.225414,-0.0822 -0.07369,-0.0311 -0.145795,-0.0661 -0.216028,-0.1045 -0.07024,-0.0385 -0.138844,-0.0797 -0.204546,-0.12545 -0.01581,-0.0113 -0.02924,-0.0252 -0.04592,-0.0349 l -0.54241,-0.31306 c -1.621116,-0.93595 -3.679642,-0.38446 -4.615596,1.23667 l -1.309458,2.26801 c -0.935953,1.62112 -0.389317,3.68811 1.236668,4.61559 0.254584,0.15372 0.538625,0.30162 0.785832,0.44406 0.06927,0.0398 0.136499,0.0835 0.201415,0.13025 0.06499,0.0468 0.127589,0.0966 0.18759,0.14947 0.05998,0.0529 0.117279,0.10903 0.171672,0.16776 0.05433,0.0589 0.105726,0.12017 0.153936,0.18393 0.04834,0.0638 0.09343,0.13027 0.135137,0.19856 0.04159,0.0683 0.07972,0.13865 0.11426,0.2108 0.03462,0.0722 0.06561,0.14604 0.09289,0.22124 0.02721,0.0753 0.05065,0.152 0.07018,0.22961 0.01964,0.0774 0.03541,0.1559 0.04724,0.23506 0.01179,0.0792 0.01946,0.15897 0.02322,0.23899 0.0038,0.0801 0.0035,0.16008 -8e-4,0.24002 -0.0043,0.0798 -0.01241,0.15943 -0.02453,0.23845 -0.01228,0.0792 -0.02829,0.15759 -0.04829,0.23507 -0.02007,0.0774 -0.04401,0.15404 -0.07174,0.22908 -0.02761,0.075 -0.05894,0.1487 -0.09392,0.22071 -0.02483,0.0511 -0.05146,0.10109 -0.07984,0.15027 -0.03999,0.0693 -0.08347,0.13643 -0.130182,0.20142 -0.04668,0.0649 -0.09658,0.12751 -0.149494,0.1876 -0.05302,0.0598 -0.109023,0.11729 -0.167761,0.17166 -0.05873,0.0542 -0.120114,0.10576 -0.183935,0.15387 -0.06388,0.0482 -0.130157,0.0934 -0.198546,0.13519 -0.06833,0.0417 -0.138672,0.0797 -0.210805,0.11429 -0.176974,0.085 -0.382262,0.20804 -0.582335,0.32065 -1.621113,0.93595 -2.172619,2.99474 -1.236668,4.61585 l 1.30946,2.26775 c 0.935954,1.62113 2.994481,2.17288 4.615595,1.23694 l 0.582331,-0.33632 c 0.01505,-0.0102 0.03787,-0.0239 0.05086,-0.032 0.04692,-0.0318 0.09496,-0.0618 0.144023,-0.0904 0.06935,-0.04 0.140664,-0.0766 0.213677,-0.1094 0.07293,-0.033 0.147472,-0.0624 0.223332,-0.0877 0.07591,-0.0252 0.153071,-0.047 0.231158,-0.0648 0.07797,-0.0177 0.156773,-0.0316 0.236114,-0.0415 0.07948,-0.0102 0.159426,-0.0159 0.239505,-0.0177 0.07997,-0.003 0.160004,4e-4 0.239771,0.008 0.07986,0.008 0.15935,0.0163 0.2382,0.0299 0.07878,0.0141 0.156788,0.0321 0.233767,0.054 0.07699,0.0219 0.152823,0.0475 0.227245,0.0771 0.07438,0.0295 0.147284,0.0625 0.218373,0.0991 0.07119,0.0365 0.14051,0.0768 0.20768,0.12068 0.06709,0.0438 0.131979,0.0908 0.19437,0.14085 0.06237,0.0502 0.122166,0.10328 0.179237,0.15916 0.0571,0.0561 0.111352,0.11503 0.162542,0.17663 0.05126,0.0616 0.09941,0.12543 0.144273,0.19175 0.0317,0.047 0.06171,0.0952 0.09003,0.14399 0.04008,0.0693 0.07665,0.14068 0.109585,0.21366 0.03284,0.073 0.06203,0.14746 0.08742,0.22334 0.0255,0.0759 0.04719,0.15308 0.06496,0.23116 0.01775,0.078 0.0316,0.15686 0.04148,0.23613 0.0099,0.0794 0.0157,0.15941 0.01747,0.2395 0.0018,0.0801 -1.32e-4,0.15999 -0.0064,0.23977 -0.0061,0.0797 -0.01621,0.15916 -0.03027,0.23794 -0.01397,0.0789 -0.02725,0.14336 -0.04121,0.22828 -0.0087,0.0694 -0.01331,0.0942 -0.01331,0.13835 0,1.87189 1.50702,3.37893 3.378924,3.37893 h 2.618922 c 1.871906,0 3.378924,-1.50704 3.378924,-3.37893 v -0.53773 c -4e-4,-0.1019 -0.0032,-0.1275 -0.0022,-0.19489 -0.0041,-0.0567 -0.0061,-0.11303 -0.0064,-0.16986 3e-6,-0.08 0.004,-0.15992 0.01203,-0.23949 0.0078,-0.0798 0.02004,-0.15893 0.03602,-0.23743 0.01586,-0.0783 0.03562,-0.15606 0.05922,-0.23243 0.0237,-0.0766 0.05123,-0.15168 0.08244,-0.22544 0.03118,-0.0738 0.06598,-0.14588 0.104373,-0.21603 0.03841,-0.0703 0.08028,-0.13849 0.125502,-0.20455 0.04515,-0.066 0.09357,-0.1297 0.145056,-0.19099 0.05155,-0.0613 0.106178,-0.11979 0.163587,-0.17556 0.05741,-0.0558 0.117592,-0.10866 0.180281,-0.15837 0.0627,-0.0498 0.127822,-0.0964 0.195154,-0.13958 0.06735,-0.0433 0.136854,-0.0831 0.208197,-0.11957 0.07136,-0.0364 0.144523,-0.0691 0.21916,-0.0981 0.07453,-0.0287 0.150451,-0.0543 0.227503,-0.0757 0.07717,-0.0213 0.155363,-0.0389 0.23429,-0.0525 0.07887,-0.0141 0.158369,-0.0232 0.238202,-0.0287 0.05654,-0.003 0.113184,-0.008 0.169845,-0.008 0.07998,1e-5 0.159921,0.003 0.239507,0.0125 0.07968,0.009 0.158926,0.02 0.237421,0.0357 0.07841,0.016 0.15602,0.0356 0.232463,0.0594 0.07648,0.0238 0.151691,0.0509 0.225417,0.0822 0.07369,0.0309 0.145811,0.0659 0.216026,0.10439 0.07022,0.0385 0.138502,0.0802 0.204546,0.12545 0.127865,0.0912 0.193848,0.13835 0.314275,0.22296 l 0.291275,0.20023 c 1.621116,0.93595 3.679644,0.38443 4.615596,-1.23668 l 1.30946,-2.268 c 0.935952,-1.62114 0.384445,-3.67964 -1.23667,-4.61561 l -0.536672,-0.30994 c -0.04306,-0.023 -0.06539,-0.0344 -0.09911,-0.0542 -0.05094,-0.0249 -0.100963,-0.0514 -0.150014,-0.08 -0.06926,-0.0399 -0.136496,-0.0835 -0.201416,-0.13024 -0.06499,-0.0468 -0.127603,-0.0966 -0.187587,-0.14981 -0.06,-0.0529 -0.11728,-0.10878 -0.171671,-0.16749 -0.05445,-0.0586 -0.10589,-0.12019 -0.154187,-0.18393 -0.04825,-0.0638 -0.09325,-0.13025 -0.134878,-0.19857 -0.04159,-0.0684 -0.07973,-0.13865 -0.114298,-0.21078 -0.03462,-0.0722 -0.06561,-0.14603 -0.0929,-0.22127 -0.02732,-0.0752 -0.0508,-0.15198 -0.07044,-0.22957 -0.01955,-0.0778 -0.03526,-0.15607 -0.04696,-0.23533 -0.01179,-0.0792 -0.01946,-0.15882 -0.02321,-0.23873 -0.0038,-0.08 -0.0035,-0.16009 8.04e-4,-0.24004 0.0043,-0.08 0.01241,-0.1596 0.02453,-0.23872 0.01215,-0.0791 0.0283,-0.15739 0.04825,-0.2348 0.02,-0.0776 0.04385,-0.15388 0.07149,-0.22908 0.0277,-0.0751 0.05913,-0.14869 0.09418,-0.22071 0.02473,-0.0511 0.05129,-0.10109 0.07956,-0.15027 0.04,-0.0693 0.08347,-0.13641 0.130183,-0.20142 0.04675,-0.0649 0.09673,-0.12763 0.149766,-0.18758 0.05304,-0.0598 0.109021,-0.11729 0.167758,-0.17165 0.05869,-0.0545 0.120086,-0.1059 0.183935,-0.1542 0.0638,-0.0484 0.129977,-0.0933 0.198285,-0.13493 0.06841,-0.0415 0.138845,-0.0798 0.211069,-0.11427 0.04352,-0.0198 0.09796,-0.0484 0.139659,-0.0719 l 0.44659,-0.24571 c 1.621115,-0.93595 2.172622,-2.99449 1.23667,-4.61558 l -1.30946,-2.26803 c -0.935952,-1.62111 -2.994475,-2.17288 -4.615597,-1.23693 l -0.589635,0.34048 c -0.06262,0.0409 -0.131171,0.0836 -0.187581,0.11817 -0.06936,0.04 -0.14068,0.0766 -0.213679,0.1094 -0.07293,0.033 -0.147471,0.0625 -0.223329,0.0877 -0.07582,0.0252 -0.1529,0.0471 -0.230897,0.0648 -0.07804,0.0177 -0.15694,0.0316 -0.236378,0.0415 -0.0794,0.0102 -0.15925,0.0159 -0.239245,0.0177 -0.08006,0.003 -0.160175,-1.2e-4 -0.24003,-0.008 -0.07977,-0.008 -0.15918,-0.0162 -0.237941,-0.0302 -0.07887,-0.0141 -0.156969,-0.0321 -0.234025,-0.0541 -0.07698,-0.0218 -0.152822,-0.0475 -0.227248,-0.0769 -0.07438,-0.0295 -0.147283,-0.0625 -0.218375,-0.0991 -0.07109,-0.0365 -0.140335,-0.0769 -0.207412,-0.12068 -0.0671,-0.0437 -0.131954,-0.0905 -0.194372,-0.14054 -0.06247,-0.0502 -0.122356,-0.10324 -0.1795,-0.15943 -0.0571,-0.0561 -0.111355,-0.11515 -0.162542,-0.17662 -0.05126,-0.0616 -0.09941,-0.12544 -0.144273,-0.19174 -0.0317,-0.047 -0.06172,-0.0952 -0.09003,-0.14399 -0.03999,-0.0693 -0.07648,-0.14071 -0.109311,-0.2137 -0.03294,-0.073 -0.06217,-0.14743 -0.08765,-0.22331 -0.02549,-0.0758 -0.04716,-0.15293 -0.06495,-0.23091 -0.01777,-0.078 -0.0316,-0.15695 -0.04149,-0.23638 -0.0099,-0.0794 -0.01568,-0.15943 -0.01747,-0.23951 -0.0018,-0.0801 1.34e-4,-0.16 0.0064,-0.23977 0.0061,-0.08 0.01621,-0.15917 0.03028,-0.23794 0.01491,-0.17761 0.03315,-0.28891 0.03315,-0.44482 0,-1.87189 -1.50702,-3.37868 -3.378925,-3.37868 z m 1.313896,10.47047 c 0.200224,0 0.400325,0.0102 0.599549,0.03 0.199131,0.0199 0.397141,0.0498 0.59329,0.0897 0.196206,0.0397 0.390298,0.0895 0.581546,0.14871 0.191334,0.059 0.379592,0.12762 0.564066,0.20558 0.184351,0.078 0.364684,0.16515 0.540329,0.26115 0.175666,0.096 0.346419,0.20079 0.511625,0.31386 0.165281,0.11304 0.324802,0.23421 0.47797,0.36319 0.153087,0.12889 0.29964,0.2655 0.439094,0.40908 0.139537,0.14352 0.271805,0.29403 0.396309,0.45084 0.124436,0.15689 0.240939,0.31988 0.349086,0.48842 0.108094,0.16838 0.207716,0.34212 0.29847,0.52048 0.09083,0.17845 0.172683,0.36128 0.245248,0.54789 0.0726,0.1866 0.135797,0.37664 0.189411,0.56953 0.05349,0.19294 0.09727,0.38843 0.131241,0.58574 0.0341,0.1973 0.05829,0.39618 0.07252,0.59591 0.01004,0.14132 0.01491,0.28303 0.01491,0.42474 10e-7,0.20024 -0.01004,0.40032 -0.03002,0.59955 -0.01993,0.19913 -0.04978,0.39711 -0.0895,0.59328 -0.03985,0.19621 -0.08948,0.3903 -0.148711,0.58155 -0.05908,0.19132 -0.1277,0.37958 -0.205591,0.56407 -0.07798,0.18435 -0.165156,0.36467 -0.261161,0.54034 -0.09602,0.17565 -0.200781,0.3464 -0.313865,0.51163 -0.113007,0.16526 -0.234223,0.32479 -0.363173,0.47795 -0.128962,0.15309 -0.265496,0.29963 -0.409093,0.4391 -0.143583,0.13958 -0.294043,0.2718 -0.450834,0.3963 -0.156882,0.12433 -0.319888,0.24095 -0.488408,0.34909 -0.168417,0.10802 -0.342134,0.20772 -0.520498,0.29847 -0.178427,0.0908 -0.361286,0.17268 -0.547891,0.24524 -0.186573,0.0726 -0.376658,0.13589 -0.569545,0.18943 -0.192933,0.0536 -0.388418,0.0974 -0.585723,0.13136 -0.197298,0.0339 -0.396181,0.0581 -0.595895,0.0726 -0.141357,0.0102 -0.283036,0.0157 -0.424749,0.0157 -0.200224,0 -0.400326,-0.0102 -0.59955,-0.0299 -0.199129,-0.02 -0.39714,-0.0498 -0.593289,-0.0894 -0.196204,-0.0397 -0.390298,-0.0895 -0.581545,-0.14869 -0.191333,-0.059 -0.379592,-0.12766 -0.564067,-0.20561 -0.184348,-0.078 -0.364683,-0.16515 -0.540328,-0.26117 -0.175666,-0.096 -0.34642,-0.20076 -0.511626,-0.31383 -0.165278,-0.11316 -0.324801,-0.23423 -0.477968,-0.36319 -0.153089,-0.12887 -0.299643,-0.2655 -0.439098,-0.4091 -0.139537,-0.14351 -0.271803,-0.29404 -0.396307,-0.45083 -0.124436,-0.15687 -0.240937,-0.31989 -0.349083,-0.48841 -0.108096,-0.16841 -0.207716,-0.34212 -0.298471,-0.52049 -0.09083,-0.17841 -0.172684,-0.36129 -0.24525,-0.54788 -0.0726,-0.18661 -0.13581,-0.37666 -0.189414,-0.56955 -0.05349,-0.19293 -0.09727,-0.38842 -0.131239,-0.58572 -0.0341,-0.19733 -0.05829,-0.3962 -0.07252,-0.5959 -0.01004,-0.14133 -0.01491,-0.28304 -0.01491,-0.42475 -2e-6,-0.20023 0.01004,-0.40032 0.03001,-0.59957 0.01992,-0.1991 0.04978,-0.39711 0.08949,-0.59328 0.03985,-0.1962 0.08949,-0.39031 0.148712,-0.58155 0.05909,-0.19132 0.1277,-0.37956 0.205588,-0.56405 0.07801,-0.18435 0.165155,-0.36468 0.261161,-0.54033 0.09603,-0.17567 0.200781,-0.34642 0.313867,-0.51164 0.113007,-0.16526 0.234222,-0.32478 0.363173,-0.47795 0.128961,-0.15308 0.265495,-0.29965 0.409092,-0.43911 0.143582,-0.1396 0.294044,-0.2718 0.450838,-0.39629 0.156879,-0.12432 0.319884,-0.24096 0.488404,-0.3491 0.168417,-0.10803 0.342132,-0.20772 0.520498,-0.29847 0.178429,-0.0909 0.361287,-0.17266 0.547892,-0.24525 0.186571,-0.0724 0.376657,-0.13588 0.569546,-0.18942 0.192931,-0.0534 0.388416,-0.0972 0.585721,-0.13121 0.197299,-0.0339 0.396179,-0.0581 0.595897,-0.0725 0.141372,-0.0102 0.283032,-0.0158 0.424745,-0.0158 z"
       id="rect4762"
       inkscape:connector-curvature="0"
       sodipodi:nodetypes="cccccccccccccccccccccccccsscccccccccccccccccccccccccccccccccccccccccccccccccccccccccccsssccccccccccccccccccccccccccccccccccccccccccccccccccccccccccccccccccccccccccccccccccccccccccccccccccccccccccccccccccccccccccccccccccccccccccccccccccccccccc" />
  </g>
</svg>
