<?xml version="1.0" encoding="UTF-8" standalone="no"?>
<!-- Created with Inkscape (http://www.inkscape.org/) -->

<svg
   xmlns:dc="http://purl.org/dc/elements/1.1/"
   xmlns:cc="http://creativecommons.org/ns#"
   xmlns:rdf="http://www.w3.org/1999/02/22-rdf-syntax-ns#"
   xmlns:svg="http://www.w3.org/2000/svg"
   xmlns="http://www.w3.org/2000/svg"
   xmlns:sodipodi="http://sodipodi.sourceforge.net/DTD/sodipodi-0.dtd"
   xmlns:inkscape="http://www.inkscape.org/namespaces/inkscape"
   width="64"
   height="64"
   viewBox="0 0 64 64"
   version="1.1"
   id="svg8"
   sodipodi:docname="notification_options_ic.svg"
   inkscape:version="0.92.5 (2060ec1f9f, 2020-04-08)">
  <defs
     id="defs2" />
  <sodipodi:namedview
     id="base"
     pagecolor="#ffffff"
     bordercolor="#666666"
     borderopacity="1.0"
     inkscape:pageopacity="0.0"
     inkscape:pageshadow="2"
     inkscape:zoom="5.6568543"
     inkscape:cx="29.699955"
     inkscape:cy="25.19416"
     inkscape:document-units="px"
     inkscape:current-layer="layer1"
     showgrid="false"
     units="px"
     inkscape:pagecheckerboard="false"
     inkscape:snap-global="true"
     showguides="true"
     inkscape:guide-bbox="true"
     inkscape:window-width="1366"
     inkscape:window-height="706"
     inkscape:window-x="-8"
     inkscape:window-y="-8"
     inkscape:window-maximized="1">
    <sodipodi:guide
       position="42.5,238"
       orientation="0,1"
       id="guide4923"
       inkscape:locked="false" />
    <sodipodi:guide
       position="63,110.5"
       orientation="0,1"
       id="guide4925"
       inkscape:locked="false" />
    <sodipodi:guide
       position="-54.447222,-51.618795"
       orientation="1,0"
       id="guide4946"
       inkscape:locked="false" />
    <sodipodi:guide
       position="87.5,89.5"
       orientation="0,1"
       id="guide4981"
       inkscape:locked="false" />
  </sodipodi:namedview>
  <metadata
     id="metadata5">
    <rdf:RDF>
      <cc:Work
         rdf:about="">
        <dc:format>image/svg+xml</dc:format>
        <dc:type
           rdf:resource="http://purl.org/dc/dcmitype/StillImage" />
        <dc:title></dc:title>
      </cc:Work>
    </rdf:RDF>
  </metadata>
  <g
     inkscape:label="Layer 1"
     inkscape:groupmode="layer"
     id="layer1"
     transform="translate(0,-280.06665)">
    <g
       id="g5016">
      <path
         transform="translate(0,280.06665)"
         id="rect4747"
         d="M 16.878906 3.8359375 L 15.015625 17.662109 L 12.560547 17.662109 C 6.4143322 17.662109 1.4667969 22.611598 1.4667969 28.757812 L 1.4667969 38.164062 C 1.4667969 44.310277 6.4143322 49.257812 12.560547 49.257812 L 34.011719 49.257812 A 17.022352 17.022352 0 0 1 33.628906 48.107422 A 17.022352 17.022352 0 0 1 33.255859 46.447266 A 17.022352 17.022352 0 0 1 33.050781 44.757812 A 17.022352 17.022352 0 0 1 33.007812 43.554688 A 17.022352 17.022352 0 0 1 33.09375 41.855469 A 17.022352 17.022352 0 0 1 33.173828 41.322266 L 11.744141 41.322266 A 2.4569386 2.4569386 0 0 1 11.509766 41.316406 A 2.4569386 2.4569386 0 0 1 11.265625 41.289062 A 2.4569386 2.4569386 0 0 1 11.027344 41.234375 A 2.4569386 2.4569386 0 0 1 10.792969 41.158203 A 2.4569386 2.4569386 0 0 1 10.568359 41.058594 A 2.4569386 2.4569386 0 0 1 10.355469 40.9375 A 2.4569386 2.4569386 0 0 1 10.15625 40.794922 A 2.4569386 2.4569386 0 0 1 9.9707031 40.632812 A 2.4569386 2.4569386 0 0 1 9.8027344 40.453125 A 2.4569386 2.4569386 0 0 1 9.6542969 40.257812 A 2.4569386 2.4569386 0 0 1 9.5253906 40.048828 A 2.4569386 2.4569386 0 0 1 9.4179688 39.828125 A 2.4569386 2.4569386 0 0 1 9.3320312 39.597656 A 2.4569386 2.4569386 0 0 1 9.2714844 39.359375 A 2.4569386 2.4569386 0 0 1 9.234375 39.117188 A 2.4569386 2.4569386 0 0 1 9.2207031 38.871094 A 2.4569386 2.4569386 0 0 1 9.2324219 38.626953 A 2.4569386 2.4569386 0 0 1 9.2695312 38.382812 A 2.4569386 2.4569386 0 0 1 9.3300781 38.144531 A 2.4569386 2.4569386 0 0 1 9.4121094 37.914062 A 2.4569386 2.4569386 0 0 1 9.5195312 37.693359 A 2.4569386 2.4569386 0 0 1 9.6464844 37.484375 A 2.4569386 2.4569386 0 0 1 9.7949219 37.287109 A 2.4569386 2.4569386 0 0 1 9.9628906 37.107422 A 2.4569386 2.4569386 0 0 1 10.146484 36.945312 A 2.4569386 2.4569386 0 0 1 10.345703 36.800781 A 2.4569386 2.4569386 0 0 1 10.558594 36.679688 A 2.4569386 2.4569386 0 0 1 10.783203 36.578125 A 2.4569386 2.4569386 0 0 1 11.015625 36.5 A 2.4569386 2.4569386 0 0 1 11.255859 36.445312 A 2.4569386 2.4569386 0 0 1 11.498047 36.416016 A 2.4569386 2.4569386 0 0 1 11.744141 36.410156 L 34.599609 36.410156 A 17.022352 17.022352 0 0 1 35.091797 35.392578 A 17.022352 17.022352 0 0 1 35.982422 33.943359 A 17.022352 17.022352 0 0 1 37.011719 32.587891 A 17.022352 17.022352 0 0 1 38.171875 31.34375 A 17.022352 17.022352 0 0 1 39.449219 30.220703 A 17.022352 17.022352 0 0 1 40.833984 29.230469 A 17.022352 17.022352 0 0 1 42.308594 28.382812 A 17.022352 17.022352 0 0 1 43.863281 27.689453 A 17.022352 17.022352 0 0 1 45.476562 27.152344 A 17.022352 17.022352 0 0 1 47.136719 26.779297 A 17.022352 17.022352 0 0 1 48.826172 26.574219 A 17.022352 17.022352 0 0 1 50.03125 26.53125 A 17.022352 17.022352 0 0 1 51.730469 26.617188 A 17.022352 17.022352 0 0 1 53.412109 26.871094 A 17.022352 17.022352 0 0 1 55.060547 27.292969 A 17.022352 17.022352 0 0 1 55.408203 27.419922 C 54.722679 21.940405 50.253008 17.662109 44.582031 17.662109 L 32.673828 17.662109 L 16.878906 3.8359375 z M 11.744141 25.597656 L 37.191406 25.597656 A 2.45703 2.45703 0 0 1 37.292969 25.599609 A 2.45703 2.45703 0 0 1 37.539062 25.621094 A 2.45703 2.45703 0 0 1 37.779297 25.667969 A 2.45703 2.45703 0 0 1 38.013672 25.740234 A 2.45703 2.45703 0 0 1 38.242188 25.833984 A 2.45703 2.45703 0 0 1 38.458984 25.949219 A 2.45703 2.45703 0 0 1 38.662109 26.085938 A 2.45703 2.45703 0 0 1 38.851562 26.242188 A 2.45703 2.45703 0 0 1 39.023438 26.417969 A 2.45703 2.45703 0 0 1 39.177734 26.609375 A 2.45703 2.45703 0 0 1 39.3125 26.814453 A 2.45703 2.45703 0 0 1 39.425781 27.03125 A 2.45703 2.45703 0 0 1 39.515625 27.259766 A 2.45703 2.45703 0 0 1 39.583984 27.496094 A 2.45703 2.45703 0 0 1 39.628906 27.738281 A 2.45703 2.45703 0 0 1 39.646484 27.982422 A 2.45703 2.45703 0 0 1 39.642578 28.228516 A 2.45703 2.45703 0 0 1 39.613281 28.472656 A 2.45703 2.45703 0 0 1 39.558594 28.710938 A 2.45703 2.45703 0 0 1 39.482422 28.945312 A 2.45703 2.45703 0 0 1 39.380859 29.167969 A 2.45703 2.45703 0 0 1 39.259766 29.382812 A 2.45703 2.45703 0 0 1 39.115234 29.582031 A 2.45703 2.45703 0 0 1 38.953125 29.765625 A 2.45703 2.45703 0 0 1 38.773438 29.933594 A 2.45703 2.45703 0 0 1 38.578125 30.082031 A 2.45703 2.45703 0 0 1 38.369141 30.210938 A 2.45703 2.45703 0 0 1 38.148438 30.318359 A 2.45703 2.45703 0 0 1 37.917969 30.402344 A 2.45703 2.45703 0 0 1 37.679688 30.462891 A 2.45703 2.45703 0 0 1 37.4375 30.5 A 2.45703 2.45703 0 0 1 37.191406 30.511719 L 11.744141 30.511719 A 2.45703 2.45703 0 0 1 11.642578 30.509766 A 2.45703 2.45703 0 0 1 11.396484 30.486328 A 2.45703 2.45703 0 0 1 11.15625 30.439453 A 2.45703 2.45703 0 0 1 10.921875 30.369141 A 2.45703 2.45703 0 0 1 10.693359 30.275391 A 2.45703 2.45703 0 0 1 10.476562 30.160156 A 2.45703 2.45703 0 0 1 10.273438 30.023438 A 2.45703 2.45703 0 0 1 10.083984 29.867188 A 2.45703 2.45703 0 0 1 9.9121094 29.691406 A 2.45703 2.45703 0 0 1 9.7578125 29.5 A 2.45703 2.45703 0 0 1 9.6230469 29.294922 A 2.45703 2.45703 0 0 1 9.5097656 29.076172 A 2.45703 2.45703 0 0 1 9.4199219 28.849609 A 2.45703 2.45703 0 0 1 9.3515625 28.613281 A 2.45703 2.45703 0 0 1 9.3066406 28.371094 A 2.45703 2.45703 0 0 1 9.2890625 28.126953 A 2.45703 2.45703 0 0 1 9.2929688 27.880859 A 2.45703 2.45703 0 0 1 9.3222656 27.636719 A 2.45703 2.45703 0 0 1 9.3769531 27.396484 A 2.45703 2.45703 0 0 1 9.453125 27.164062 A 2.45703 2.45703 0 0 1 9.5546875 26.939453 A 2.45703 2.45703 0 0 1 9.6757812 26.726562 A 2.45703 2.45703 0 0 1 9.8203125 26.527344 A 2.45703 2.45703 0 0 1 9.9824219 26.341797 A 2.45703 2.45703 0 0 1 10.162109 26.175781 A 2.45703 2.45703 0 0 1 10.357422 26.027344 A 2.45703 2.45703 0 0 1 10.566406 25.898438 A 2.45703 2.45703 0 0 1 10.787109 25.791016 A 2.45703 2.45703 0 0 1 11.017578 25.707031 A 2.45703 2.45703 0 0 1 11.255859 25.646484 A 2.45703 2.45703 0 0 1 11.498047 25.609375 A 2.45703 2.45703 0 0 1 11.744141 25.597656 z "
         style="opacity:1;fill:#000000;fill-opacity:1;fill-rule:nonzero;stroke:none;stroke-width:32.15312195;stroke-linecap:round;stroke-linejoin:round;stroke-miterlimit:4;stroke-dasharray:none;stroke-dashoffset:0;stroke-opacity:1;paint-order:markers fill stroke" />
      <path
         sodipodi:nodetypes="cccccccccccccccccccccccccsscccccccccccccccccccccccccccccccccccccccccccccccccccccccccccsssccccccccccccccccccccccccccccccccccccccccccccccccccccccccccccccccccccccccccccccccccccccccccccccccccccccccccccccccccccccccccccccccccccccccccccccccccccccccc"
         inkscape:connector-curvature="0"
         id="rect4762"
         d="m 48.982693,310.47267 c -1.493784,0 -2.696391,1.2024 -2.696391,2.6962 -1.08e-4,0.19407 0.0017,0.38201 0.0044,0.57462 0.0024,0.0493 0.0023,0.10022 0.0023,0.14552 3e-6,0.0639 -0.0032,0.12777 -0.0096,0.19134 -0.0063,0.0637 -0.01587,0.12669 -0.02852,0.18924 -0.01271,0.0625 -0.02857,0.12455 -0.04748,0.18552 -0.01885,0.0612 -0.04073,0.12104 -0.06557,0.17988 -0.02488,0.0589 -0.05266,0.11642 -0.08329,0.17239 -0.03065,0.0561 -0.06407,0.11052 -0.100152,0.16324 -0.03609,0.0528 -0.07478,0.10373 -0.115968,0.15261 -0.04109,0.049 -0.08458,0.0956 -0.130333,0.14011 -0.04581,0.0445 -0.09384,0.0867 -0.143865,0.12638 -0.0501,0.0397 -0.102135,0.0769 -0.155942,0.11139 -0.0537,0.0345 -0.109078,0.0662 -0.165935,0.0952 -0.05695,0.029 -0.115318,0.0551 -0.17489,0.0783 -0.05954,0.0231 -0.120199,0.0432 -0.181756,0.0603 -0.06152,0.017 -0.123842,0.031 -0.186756,0.042 -0.06294,0.0113 -0.126378,0.0186 -0.190086,0.0231 -0.04511,0.002 -0.09031,0.006 -0.135536,0.006 -0.06389,0 -0.127757,-0.002 -0.191337,-0.01 -0.06353,-0.007 -0.126683,-0.0158 -0.189254,-0.0284 -0.06258,-0.0128 -0.124493,-0.0285 -0.185505,-0.0475 -0.06102,-0.019 -0.12105,-0.0408 -0.179882,-0.0656 -0.05881,-0.0248 -0.116345,-0.0527 -0.172391,-0.0834 -0.05605,-0.0307 -0.110798,-0.0636 -0.163228,-0.1001 -0.01261,-0.009 -0.02334,-0.0202 -0.03665,-0.0279 l -0.432845,-0.24982 c -1.293655,-0.7469 -2.936365,-0.3068 -3.683258,0.98687 l -1.044952,1.80987 c -0.746892,1.29366 -0.310675,2.94313 0.986865,3.68326 0.203159,0.12266 0.429825,0.24069 0.627097,0.35436 0.05528,0.0318 0.108925,0.0666 0.160729,0.10394 0.05186,0.0374 0.101816,0.0771 0.149697,0.11928 0.04786,0.0423 0.09359,0.087 0.136994,0.13387 0.04336,0.047 0.08437,0.0959 0.122842,0.14678 0.03857,0.0509 0.07456,0.10395 0.10784,0.15845 0.03319,0.0545 0.06362,0.11064 0.09118,0.16822 0.02763,0.0576 0.05236,0.11653 0.07412,0.17655 0.02171,0.0601 0.04042,0.12129 0.056,0.18322 0.01568,0.0617 0.02825,0.12441 0.03769,0.18758 0.0094,0.0632 0.01553,0.12686 0.01852,0.19072 0.003,0.0639 0.0028,0.12774 -6.39e-4,0.19154 -0.0034,0.0637 -0.0099,0.12722 -0.01958,0.19028 -0.0098,0.0632 -0.02257,0.12575 -0.03853,0.18759 -0.01602,0.0617 -0.03512,0.12292 -0.05725,0.18281 -0.02204,0.0599 -0.04704,0.11866 -0.07495,0.17612 -0.01982,0.0408 -0.04107,0.0807 -0.06371,0.11992 -0.03192,0.0553 -0.06661,0.10887 -0.103886,0.16073 -0.03725,0.0518 -0.07707,0.10175 -0.119298,0.1497 -0.04231,0.0477 -0.087,0.0936 -0.133873,0.13699 -0.04686,0.0433 -0.09585,0.0844 -0.14678,0.12279 -0.05098,0.0385 -0.103865,0.0746 -0.15844,0.10788 -0.05452,0.0332 -0.110661,0.0636 -0.168224,0.0912 -0.141225,0.0678 -0.305045,0.16602 -0.464704,0.25588 -1.293653,0.74689 -1.733757,2.38982 -0.986865,3.68346 l 1.044953,1.80967 c 0.746893,1.29366 2.389604,1.73397 3.683258,0.98709 l 0.464701,-0.26838 c 0.01201,-0.008 0.03022,-0.0191 0.04059,-0.0255 0.03744,-0.0254 0.07578,-0.0493 0.11493,-0.0721 0.05534,-0.0319 0.112251,-0.0612 0.170516,-0.0873 0.0582,-0.0263 0.117683,-0.0497 0.178219,-0.07 0.06058,-0.0202 0.122151,-0.0375 0.184464,-0.0517 0.06223,-0.0141 0.125107,-0.0252 0.18842,-0.0331 0.06343,-0.008 0.127223,-0.0126 0.191127,-0.0141 0.06382,-0.002 0.127683,3.2e-4 0.191337,0.006 0.06372,0.006 0.127162,0.0129 0.190084,0.0239 0.06286,0.0113 0.125118,0.0256 0.186547,0.0431 0.06143,0.0174 0.121953,0.0379 0.181342,0.0615 0.05936,0.0236 0.117533,0.0498 0.174263,0.0791 0.05681,0.0292 0.112127,0.0613 0.165728,0.0963 0.05354,0.0349 0.105321,0.0724 0.155108,0.11241 0.04977,0.04 0.09749,0.0824 0.143032,0.127 0.04556,0.0448 0.08886,0.0918 0.129709,0.14095 0.04091,0.0491 0.07933,0.1001 0.11513,0.15302 0.0253,0.0375 0.04925,0.0759 0.07184,0.11491 0.03198,0.0553 0.06116,0.11226 0.08745,0.1705 0.02621,0.0582 0.04949,0.11767 0.06976,0.17822 0.02035,0.0606 0.03766,0.12216 0.05184,0.18447 0.01417,0.0622 0.02522,0.12517 0.03311,0.18843 0.0079,0.0634 0.01252,0.12721 0.01394,0.19112 0.0015,0.0639 -1.06e-4,0.12767 -0.0051,0.19134 -0.0049,0.0636 -0.01294,0.12701 -0.02416,0.18987 -0.01114,0.063 -0.02174,0.11441 -0.03289,0.18217 -0.0069,0.0554 -0.01062,0.0752 -0.01062,0.11041 0,1.49378 1.202606,2.69639 2.696391,2.69639 h 2.089907 c 1.493785,0 2.696391,-1.20261 2.696391,-2.69639 v -0.42911 c -3.19e-4,-0.0813 -0.0025,-0.10175 -0.0018,-0.15552 -0.0033,-0.0453 -0.0049,-0.0902 -0.0051,-0.13555 3e-6,-0.0638 0.0032,-0.12762 0.0096,-0.19112 0.0063,-0.0637 0.016,-0.12682 0.02874,-0.18946 0.01265,-0.0625 0.02842,-0.12454 0.04726,-0.18549 0.01892,-0.0612 0.04088,-0.12104 0.06579,-0.1799 0.02488,-0.0589 0.05266,-0.11641 0.08329,-0.17239 0.03065,-0.0561 0.06407,-0.11052 0.100151,-0.16323 0.03603,-0.0526 0.07466,-0.1035 0.115756,-0.15241 0.04114,-0.0489 0.08473,-0.0956 0.130542,-0.14011 0.04581,-0.0445 0.09384,-0.0867 0.143865,-0.12637 0.05003,-0.0397 0.102002,-0.0769 0.155734,-0.11139 0.05374,-0.0345 0.109209,-0.0663 0.166142,-0.0954 0.05695,-0.029 0.115329,-0.0551 0.17489,-0.0783 0.05947,-0.023 0.120061,-0.0433 0.181548,-0.0604 0.06158,-0.017 0.12398,-0.031 0.186964,-0.0419 0.06294,-0.0113 0.126379,-0.0185 0.190086,-0.023 0.04512,-0.002 0.09032,-0.006 0.135537,-0.006 0.06382,10e-6 0.127617,0.002 0.191127,0.01 0.06359,0.007 0.126823,0.0159 0.189463,0.0286 0.06258,0.0127 0.124504,0.0285 0.185506,0.0475 0.06102,0.019 0.12105,0.0406 0.179883,0.0656 0.05881,0.0247 0.116357,0.0525 0.172389,0.0833 0.05603,0.0307 0.110525,0.064 0.163229,0.10011 0.102036,0.0728 0.154691,0.1104 0.250791,0.17792 l 0.232439,0.15978 c 1.293656,0.7469 2.936366,0.30678 3.683259,-0.98687 l 1.044953,-1.80987 c 0.746892,-1.29367 0.306788,-2.93637 -0.986866,-3.68327 l -0.428266,-0.24734 c -0.03436,-0.0184 -0.05219,-0.0275 -0.07909,-0.0432 -0.04065,-0.0199 -0.08057,-0.041 -0.119712,-0.0638 -0.05528,-0.0318 -0.108924,-0.0666 -0.160731,-0.10393 -0.05186,-0.0374 -0.101827,-0.0771 -0.149694,-0.11955 -0.04787,-0.0423 -0.09359,-0.0868 -0.136995,-0.13366 -0.04345,-0.0468 -0.0845,-0.0959 -0.123042,-0.14677 -0.0385,-0.0509 -0.07442,-0.10394 -0.107632,-0.15845 -0.03319,-0.0546 -0.06362,-0.11066 -0.09121,-0.16822 -0.02763,-0.0576 -0.05236,-0.11653 -0.07413,-0.17656 -0.0218,-0.06 -0.04054,-0.12129 -0.05621,-0.18321 -0.01561,-0.062 -0.02813,-0.12454 -0.03748,-0.18779 -0.0094,-0.0632 -0.01553,-0.12674 -0.01852,-0.19051 -0.003,-0.0638 -0.0028,-0.12775 6.4e-4,-0.19155 0.0034,-0.0638 0.0099,-0.12736 0.01958,-0.1905 0.0097,-0.0631 0.02258,-0.12559 0.03851,-0.18737 0.01596,-0.0619 0.03499,-0.12279 0.05705,-0.18281 0.02211,-0.0599 0.04719,-0.11865 0.07515,-0.17613 0.01974,-0.0408 0.04093,-0.0807 0.06349,-0.11991 0.03192,-0.0553 0.06661,-0.10886 0.103887,-0.16073 0.03731,-0.0518 0.07719,-0.10185 0.119512,-0.14969 0.04232,-0.0478 0.087,-0.0936 0.133872,-0.13699 0.04683,-0.0435 0.09583,-0.0845 0.146781,-0.12305 0.05091,-0.0385 0.103722,-0.0744 0.158232,-0.10766 0.05459,-0.0332 0.110798,-0.0637 0.168434,-0.0912 0.03473,-0.0158 0.07818,-0.0387 0.111448,-0.0573 l 0.35638,-0.19607 c 1.293654,-0.74689 1.733758,-2.38961 0.986866,-3.68326 l -1.044953,-1.80988 c -0.746893,-1.29366 -2.389599,-1.73397 -3.683259,-0.98708 l -0.470531,0.27171 c -0.04997,0.0326 -0.104674,0.0666 -0.14969,0.0943 -0.05535,0.0319 -0.112263,0.0612 -0.170516,0.0873 -0.0582,0.0263 -0.117682,0.0498 -0.178218,0.07 -0.06051,0.0202 -0.122014,0.0376 -0.184255,0.0517 -0.06228,0.0141 -0.12524,0.0252 -0.188631,0.0331 -0.06336,0.008 -0.127082,0.0126 -0.190918,0.0141 -0.06389,0.002 -0.12782,-10e-5 -0.191544,-0.006 -0.06365,-0.006 -0.127027,-0.0129 -0.189878,-0.0241 -0.06294,-0.0113 -0.125262,-0.0256 -0.186754,-0.0431 -0.06143,-0.0174 -0.121951,-0.0379 -0.181344,-0.0614 -0.05936,-0.0236 -0.117532,-0.0498 -0.174263,-0.0791 -0.05673,-0.0292 -0.111988,-0.0614 -0.165516,-0.0963 -0.05355,-0.0348 -0.105299,-0.0722 -0.15511,-0.11215 -0.04985,-0.04 -0.09764,-0.0824 -0.143241,-0.12722 -0.04556,-0.0448 -0.08886,-0.0919 -0.129709,-0.14095 -0.04091,-0.0491 -0.07933,-0.10011 -0.11513,-0.15302 -0.0253,-0.0375 -0.04926,-0.0759 -0.07184,-0.1149 -0.03191,-0.0553 -0.06102,-0.11228 -0.08723,-0.17053 -0.02628,-0.0582 -0.04961,-0.11765 -0.06995,-0.1782 -0.02034,-0.0605 -0.03764,-0.12204 -0.05183,-0.18427 -0.01418,-0.0623 -0.02522,-0.12524 -0.03311,-0.18862 -0.0079,-0.0634 -0.01252,-0.12723 -0.01394,-0.19113 -0.0015,-0.0639 1.07e-4,-0.12768 0.0051,-0.19134 0.0049,-0.0638 0.01294,-0.12702 0.02416,-0.18988 0.0119,-0.14174 0.02645,-0.23055 0.02645,-0.35497 0,-1.49378 -1.202606,-2.69619 -2.696391,-2.69619 z m 1.048493,8.35546 c 0.159779,0 0.31946,0.008 0.478441,0.024 0.158907,0.0159 0.31692,0.0397 0.473447,0.0715 0.156573,0.0317 0.31146,0.0714 0.464076,0.11867 0.152685,0.0472 0.302915,0.10185 0.450127,0.16405 0.147112,0.0622 0.291018,0.13179 0.431183,0.2084 0.140182,0.0766 0.276444,0.16023 0.408278,0.25047 0.131895,0.0902 0.259194,0.1869 0.381421,0.28983 0.122164,0.10285 0.239114,0.21186 0.350399,0.32644 0.111351,0.11453 0.216901,0.23464 0.316256,0.35977 0.0993,0.12519 0.19227,0.25526 0.278571,0.38976 0.08626,0.13437 0.165759,0.27302 0.23818,0.41535 0.07248,0.14239 0.137802,0.2883 0.195708,0.43721 0.05793,0.1489 0.108367,0.30057 0.151152,0.45449 0.04268,0.15397 0.07763,0.30997 0.10473,0.46742 0.02721,0.15745 0.04652,0.31615 0.05787,0.47554 0.008,0.11277 0.0119,0.22585 0.0119,0.33894 1e-6,0.15979 -0.008,0.31945 -0.02395,0.47844 -0.0159,0.15891 -0.03973,0.31691 -0.07142,0.47345 -0.0318,0.15657 -0.0714,0.31145 -0.118672,0.46407 -0.04715,0.15268 -0.101904,0.30291 -0.164062,0.45014 -0.06224,0.14711 -0.131795,0.29101 -0.208408,0.43118 -0.07662,0.14018 -0.160223,0.27643 -0.250464,0.40829 -0.09018,0.13187 -0.186911,0.25918 -0.289813,0.3814 -0.102912,0.12217 -0.211867,0.23911 -0.326458,0.3504 -0.114579,0.1114 -0.234647,0.21691 -0.359767,0.31626 -0.125192,0.0992 -0.255271,0.19227 -0.38975,0.27857 -0.134398,0.0862 -0.273024,0.16576 -0.41536,0.23818 -0.142384,0.0725 -0.288307,0.1378 -0.437218,0.1957 -0.148886,0.0579 -0.300575,0.10844 -0.454499,0.15117 -0.153961,0.0428 -0.309958,0.0777 -0.467408,0.10482 -0.157444,0.0271 -0.316153,0.0464 -0.475527,0.0579 -0.112802,0.008 -0.225862,0.0125 -0.33895,0.0125 -0.159779,0 -0.319461,-0.008 -0.478442,-0.0239 -0.158906,-0.0159 -0.316919,-0.0397 -0.473446,-0.0713 -0.156572,-0.0317 -0.31146,-0.0714 -0.464076,-0.11866 -0.152684,-0.0472 -0.302915,-0.10187 -0.450127,-0.16407 -0.14711,-0.0622 -0.291018,-0.13179 -0.431182,-0.20841 -0.140183,-0.0766 -0.276445,-0.16021 -0.40828,-0.25045 -0.131892,-0.0903 -0.259191,-0.18691 -0.38142,-0.28982 -0.122165,-0.10284 -0.239115,-0.21188 -0.350401,-0.32646 -0.11135,-0.11453 -0.2169,-0.23465 -0.316254,-0.35977 -0.0993,-0.12518 -0.192269,-0.25526 -0.27857,-0.38975 -0.08626,-0.13439 -0.165758,-0.27302 -0.238181,-0.41536 -0.07248,-0.14237 -0.137801,-0.2883 -0.195709,-0.4372 -0.05793,-0.14891 -0.108377,-0.30058 -0.151153,-0.4545 -0.04268,-0.15397 -0.07763,-0.30997 -0.10473,-0.46741 -0.02721,-0.15747 -0.04652,-0.31616 -0.05787,-0.47553 -0.008,-0.11278 -0.0119,-0.22587 -0.0119,-0.33896 -2e-6,-0.15977 0.008,-0.31945 0.02395,-0.47845 0.0159,-0.15889 0.03973,-0.3169 0.07141,-0.47344 0.0318,-0.15657 0.07141,-0.31146 0.118673,-0.46408 0.04716,-0.15267 0.101905,-0.3029 0.16406,-0.45011 0.06225,-0.14711 0.131794,-0.29102 0.208407,-0.43119 0.07663,-0.14018 0.160224,-0.27644 0.250466,-0.40829 0.09018,-0.13187 0.18691,-0.25918 0.289813,-0.3814 0.102912,-0.12216 0.211866,-0.23912 0.326457,-0.35041 0.11458,-0.11141 0.234649,-0.2169 0.35977,-0.31625 0.12519,-0.0992 0.255269,-0.19228 0.389748,-0.27858 0.134397,-0.0862 0.273023,-0.16576 0.415359,-0.23818 0.142386,-0.0725 0.288308,-0.13779 0.437219,-0.19571 0.148885,-0.0578 0.300574,-0.10843 0.4545,-0.15115 0.153959,-0.0427 0.309956,-0.0776 0.467407,-0.10471 0.157445,-0.0271 0.316152,-0.0464 0.475527,-0.0578 0.112815,-0.008 0.225861,-0.0125 0.338948,-0.0125 z"
         style="opacity:1;fill:#000000;fill-opacity:1;fill-rule:nonzero;stroke:none;stroke-width:2.78447223;stroke-linecap:round;stroke-linejoin:round;stroke-miterlimit:4;stroke-dasharray:none;stroke-dashoffset:0;stroke-opacity:1;paint-order:markers fill stroke" />
    </g>
  </g>
</svg>
