<?xml version="1.0" encoding="UTF-8" standalone="no"?>
<!-- Created with Inkscape (http://www.inkscape.org/) -->

<svg
   xmlns:dc="http://purl.org/dc/elements/1.1/"
   xmlns:cc="http://creativecommons.org/ns#"
   xmlns:rdf="http://www.w3.org/1999/02/22-rdf-syntax-ns#"
   xmlns:svg="http://www.w3.org/2000/svg"
   xmlns="http://www.w3.org/2000/svg"
   xmlns:sodipodi="http://sodipodi.sourceforge.net/DTD/sodipodi-0.dtd"
   xmlns:inkscape="http://www.inkscape.org/namespaces/inkscape"
   width="64"
   height="64"
   viewBox="0 0 64 64.000003"
   version="1.1"
   id="svg31015"
   inkscape:version="0.92.5 (2060ec1f9f, 2020-04-08)"
   sodipodi:docname="options_ic.svg">
  <defs
     id="defs31009" />
  <sodipodi:namedview
     id="base"
     pagecolor="#ffffff"
     bordercolor="#666666"
     borderopacity="1.0"
     inkscape:pageopacity="0.0"
     inkscape:pageshadow="2"
     inkscape:zoom="2.8"
     inkscape:cx="-7.3567949"
     inkscape:cy="56.130063"
     inkscape:document-units="px"
     inkscape:current-layer="layer1"
     showgrid="false"
     units="px"
     inkscape:pagecheckerboard="true"
     inkscape:window-width="1366"
     inkscape:window-height="706"
     inkscape:window-x="-8"
     inkscape:window-y="-8"
     inkscape:window-maximized="1" />
  <metadata
     id="metadata31012">
    <rdf:RDF>
      <cc:Work
         rdf:about="">
        <dc:format>image/svg+xml</dc:format>
        <dc:type
           rdf:resource="http://purl.org/dc/dcmitype/StillImage" />
        <dc:title></dc:title>
      </cc:Work>
    </rdf:RDF>
  </metadata>
  <g
     inkscape:label="Layer 1"
     inkscape:groupmode="layer"
     id="layer1"
     transform="translate(0,-1058.5197)">
    <path
       style="opacity:1;fill:#000000;fill-opacity:1;fill-rule:nonzero;stroke:none;stroke-width:5.96009684;stroke-linecap:round;stroke-linejoin:round;stroke-miterlimit:4;stroke-dasharray:none;stroke-dashoffset:0;stroke-opacity:1;paint-order:markers fill stroke"
       d="m 29.756781,1062.3673 c -3.19741,0 -5.771561,2.5737 -5.771561,5.7712 -2.31e-4,0.4154 0.0036,0.8176 0.0094,1.2299 0.0051,0.1049 0.0049,0.2144 0.0049,0.3114 6e-6,0.137 -0.0069,0.2736 -0.02055,0.4097 -0.01348,0.137 -0.03397,0.2712 -0.06105,0.405 -0.0272,0.1327 -0.06115,0.2667 -0.10163,0.397 -0.04035,0.1306 -0.08718,0.2592 -0.140351,0.3851 -0.05326,0.1263 -0.112717,0.2492 -0.17828,0.369 -0.06561,0.1199 -0.13714,0.2365 -0.214373,0.3496 -0.07725,0.1134 -0.160065,0.2219 -0.248227,0.3266 -0.08795,0.1049 -0.181041,0.2055 -0.278975,0.2999 -0.09805,0.094 -0.200862,0.1862 -0.307939,0.2705 -0.107238,0.086 -0.218618,0.1649 -0.33379,0.2383 -0.114944,0.073 -0.233479,0.1412 -0.35518,0.2033 -0.1219,0.062 -0.246836,0.1177 -0.374348,0.167 -0.127444,0.049 -0.257283,0.092 -0.389045,0.1284 -0.131682,0.036 -0.26508,0.066 -0.399746,0.09 -0.134722,0.024 -0.270509,0.041 -0.406875,0.049 -0.09656,0 -0.193306,0.021 -0.290112,0.021 -0.136755,0 -0.27346,0 -0.409552,-0.021 -0.135984,-0.021 -0.271162,-0.034 -0.405094,-0.06 -0.133951,-0.028 -0.266474,-0.06 -0.397069,-0.1006 -0.130611,-0.041 -0.259104,-0.088 -0.385033,-0.1413 -0.125881,-0.053 -0.249033,-0.1134 -0.368999,-0.1776 -0.119973,-0.066 -0.23716,-0.137 -0.349385,-0.2143 -0.02699,-0.021 -0.04996,-0.043 -0.07845,-0.06 L 16.57902,1072.48 c -2.769038,-1.5987 -6.28522,-0.6567 -7.8839264,2.1124 l -2.236695,3.8741 c -1.5987046,2.7689 -0.6649925,6.2996 2.1123611,7.8838 0.434857,0.2626 0.9200302,0.5152 1.3422863,0.7586 0.118325,0.068 0.233151,0.1434 0.344037,0.2223 0.111005,0.079 0.217934,0.1649 0.320422,0.2554 0.102444,0.09 0.200328,0.1862 0.293233,0.2866 0.09281,0.1006 0.180592,0.2055 0.26294,0.3142 0.08256,0.1092 0.159594,0.2224 0.230829,0.3391 0.07104,0.1156 0.136177,0.2367 0.195169,0.36 0.05914,0.1242 0.112075,0.2496 0.158652,0.378 0.04647,0.1285 0.08652,0.2597 0.119867,0.3922 0.03356,0.1327 0.06047,0.2662 0.08067,0.4015 0.02012,0.1349 0.03324,0.2714 0.03964,0.4082 0.0064,0.137 0.006,0.2733 -0.0014,0.4099 -0.0073,0.137 -0.02119,0.2725 -0.04191,0.4073 -0.02098,0.1349 -0.04831,0.2693 -0.08247,0.4016 -0.03429,0.1327 -0.07517,0.2631 -0.122542,0.3913 -0.04718,0.1284 -0.100688,0.254 -0.160429,0.3769 -0.04242,0.088 -0.08791,0.1734 -0.13637,0.2569 -0.06832,0.1177 -0.142577,0.2328 -0.222365,0.3439 -0.07973,0.1113 -0.164967,0.2177 -0.255355,0.3205 -0.09056,0.1027 -0.186221,0.2012 -0.286552,0.2932 -0.100303,0.092 -0.205164,0.1798 -0.314179,0.2629 -0.109121,0.083 -0.22232,0.1605 -0.339137,0.2307 -0.1166987,0.071 -0.2368672,0.137 -0.3600795,0.1948 -0.3022887,0.1455 -0.6529415,0.3555 -0.9946878,0.5477 -2.7690336,1.5988 -3.7110657,5.1153 -2.1123612,7.8845 l 2.2366971,3.8736 c 1.5987064,2.7689 5.1148904,3.7114 7.8839264,2.1127 l 0.994681,-0.5743 c 0.02571,-0.021 0.06469,-0.041 0.08688,-0.053 0.08014,-0.054 0.162206,-0.1049 0.246005,-0.1542 0.118454,-0.069 0.240271,-0.1305 0.364986,-0.1862 0.124575,-0.056 0.251897,-0.107 0.381473,-0.1498 0.12967,-0.043 0.261462,-0.081 0.394841,-0.1113 0.133202,-0.03 0.267789,-0.053 0.403309,-0.071 0.13577,-0.021 0.272317,-0.028 0.409102,-0.03 0.136606,0 0.273303,6e-4 0.409553,0.021 0.136391,0.021 0.272187,0.028 0.40687,0.051 0.13455,0.023 0.267812,0.056 0.399299,0.092 0.13149,0.036 0.261038,0.081 0.388159,0.1327 0.127058,0.051 0.251576,0.107 0.373006,0.1691 0.1216,0.062 0.240005,0.1306 0.354736,0.2055 0.114601,0.075 0.225437,0.1541 0.332005,0.2406 0.106532,0.086 0.208675,0.1755 0.306157,0.2718 0.09752,0.096 0.190203,0.1969 0.277639,0.3016 0.08757,0.1049 0.169804,0.2143 0.246433,0.3275 0.05415,0.081 0.105418,0.1627 0.153772,0.2462 0.06845,0.1177 0.130911,0.2401 0.187185,0.3649 0.0561,0.1242 0.105932,0.2517 0.149319,0.3814 0.04356,0.1306 0.08061,0.2614 0.110962,0.3947 0.03033,0.1328 0.05398,0.268 0.07087,0.4035 0.01691,0.1349 0.0268,0.2723 0.02984,0.4091 0.0032,0.137 -2.27e-4,0.2733 -0.01092,0.4094 -0.01049,0.137 -0.0277,0.2719 -0.05171,0.4065 -0.02384,0.1349 -0.04653,0.2449 -0.0704,0.39 -0.01477,0.1177 -0.02273,0.1605 -0.02273,0.2363 0,3.1975 2.57415,5.7716 5.771561,5.7716 h 4.473397 c 3.197411,0 5.771561,-2.5741 5.771561,-5.7716 v -0.9185 c -6.83e-4,-0.1733 -0.0054,-0.2179 -0.0039,-0.3328 -0.0071,-0.096 -0.01049,-0.1926 -0.01092,-0.2903 7e-6,-0.1369 0.0069,-0.2731 0.02055,-0.409 0.01349,-0.137 0.03425,-0.2714 0.06152,-0.4056 0.02708,-0.1327 0.06083,-0.2665 0.101159,-0.3971 0.0405,-0.1305 0.0875,-0.259 0.140822,-0.385 0.05326,-0.1263 0.112717,-0.2492 0.17828,-0.3691 0.06561,-0.1198 0.137141,-0.2365 0.214371,-0.3493 0.07712,-0.1134 0.159808,-0.2215 0.247773,-0.3262 0.08806,-0.1049 0.181363,-0.2055 0.279422,-0.2999 0.09805,-0.094 0.200862,-0.1862 0.30794,-0.2705 0.107088,-0.086 0.218333,-0.1649 0.333345,-0.2385 0.115029,-0.073 0.233759,-0.1413 0.355623,-0.2033 0.1219,-0.062 0.246859,-0.1178 0.374348,-0.167 0.127294,-0.049 0.256987,-0.092 0.388599,-0.1284 0.13181,-0.036 0.265376,-0.066 0.400192,-0.09 0.134721,-0.024 0.270511,-0.041 0.406874,-0.049 0.09658,0 0.193328,-0.022 0.290114,-0.022 0.136605,0 0.273161,0 0.409103,0.022 0.136113,0.021 0.271461,0.034 0.405541,0.062 0.133951,0.028 0.266498,0.062 0.397071,0.1028 0.130612,0.041 0.259105,0.088 0.385035,0.1412 0.125882,0.054 0.24906,0.1135 0.368995,0.1777 0.119931,0.066 0.236576,0.137 0.349388,0.2143 0.218405,0.1562 0.331112,0.2363 0.536812,0.381 l 0.49753,0.3418 c 2.76904,1.5987 6.285222,0.6567 7.883929,-2.1122 l 2.236697,-3.8741 c 1.598704,-2.7691 0.656672,-6.2853 -2.112364,-7.884 l -0.916693,-0.5293 c -0.07355,-0.039 -0.111711,-0.058 -0.16929,-0.092 -0.08701,-0.043 -0.172458,-0.088 -0.256241,-0.137 -0.118325,-0.069 -0.233149,-0.1434 -0.344041,-0.2224 -0.111005,-0.079 -0.217958,-0.1648 -0.320416,-0.256 -0.102465,-0.09 -0.200327,-0.1862 -0.293235,-0.2859 -0.093,-0.1006 -0.18087,-0.2055 -0.263368,-0.3142 -0.08241,-0.1092 -0.159294,-0.2227 -0.230384,-0.3393 -0.07104,-0.1177 -0.136177,-0.2367 -0.195233,-0.36 -0.05914,-0.1242 -0.112075,-0.2494 -0.158673,-0.3778 -0.04666,-0.1285 -0.08678,-0.2597 -0.120316,-0.3924 -0.03341,-0.1327 -0.06021,-0.2665 -0.08022,-0.4017 -0.02012,-0.1349 -0.03324,-0.2715 -0.03964,-0.408 -0.0064,-0.137 -0.006,-0.2734 0.0014,-0.4099 0.0073,-0.137 0.02119,-0.2727 0.04191,-0.4078 0.02076,-0.1348 0.04833,-0.2688 0.08243,-0.4011 0.03416,-0.1327 0.0749,-0.2629 0.122114,-0.3913 0.04733,-0.1284 0.101009,-0.2538 0.160857,-0.3769 0.04225,-0.088 0.08761,-0.1734 0.135899,-0.2567 0.06832,-0.1177 0.142577,-0.2331 0.222368,-0.3442 0.07986,-0.1113 0.165223,-0.2179 0.255812,-0.3202 0.09059,-0.1027 0.186222,-0.2012 0.28655,-0.2932 0.100239,-0.092 0.205122,-0.1798 0.314181,-0.2635 0.108972,-0.081 0.222015,-0.1584 0.338692,-0.2303 0.116849,-0.071 0.237161,-0.137 0.360529,-0.1948 0.07434,-0.034 0.167343,-0.083 0.238552,-0.122 l 0.762823,-0.4198 c 2.769035,-1.5987 3.711068,-5.1148 2.112363,-7.884 l -2.236697,-3.874 c -1.598707,-2.7689 -5.11488,-3.7114 -7.883928,-2.1127 l -1.007161,0.5816 c -0.10696,0.071 -0.224052,0.1434 -0.320408,0.2012 -0.118475,0.069 -0.240296,0.1306 -0.364985,0.1862 -0.124576,0.056 -0.251896,0.107 -0.381472,0.1498 -0.12952,0.043 -0.261168,0.081 -0.394393,0.1114 -0.133309,0.03 -0.268073,0.053 -0.40376,0.071 -0.135621,0.021 -0.272016,0.028 -0.408656,0.03 -0.136755,0 -0.273595,-3e-4 -0.409995,-0.021 -0.136241,-0.021 -0.271898,-0.028 -0.406429,-0.051 -0.134722,-0.024 -0.268121,-0.056 -0.399743,-0.092 -0.131489,-0.036 -0.261033,-0.081 -0.388163,-0.1305 -0.127058,-0.051 -0.251574,-0.1071 -0.373005,-0.1691 -0.12143,-0.062 -0.239708,-0.1306 -0.354283,-0.2055 -0.114623,-0.075 -0.22539,-0.1541 -0.33201,-0.2402 -0.106702,-0.086 -0.208996,-0.1755 -0.306604,-0.2722 -0.09752,-0.096 -0.190202,-0.197 -0.277639,-0.3016 -0.08757,-0.1049 -0.169804,-0.2145 -0.246433,-0.3277 -0.05415,-0.081 -0.10544,-0.1627 -0.153772,-0.246 -0.0683,-0.1177 -0.130611,-0.2401 -0.186713,-0.3649 -0.05625,-0.1242 -0.106189,-0.2518 -0.149727,-0.3815 -0.04354,-0.1305 -0.08057,-0.2611 -0.11094,-0.3945 -0.03035,-0.1327 -0.05398,-0.2679 -0.07087,-0.4037 -0.01691,-0.1348 -0.0268,-0.2722 -0.02984,-0.409 -0.0032,-0.137 2.29e-4,-0.2733 0.01092,-0.4097 0.01049,-0.137 0.0277,-0.2718 0.05171,-0.4062 0.02547,-0.3036 0.05662,-0.4936 0.05662,-0.7599 0,-3.1975 -2.57415,-5.7712 -5.771561,-5.7712 z m 2.244274,17.8847 c 0.342003,0 0.683797,0.022 1.024092,0.051 0.340136,0.034 0.678359,0.086 1.013402,0.1541 0.335141,0.069 0.666672,0.152 0.993343,0.2539 0.326819,0.1006 0.648383,0.2181 0.963487,0.3512 0.314889,0.1328 0.622917,0.2822 0.922937,0.4461 0.300056,0.1648 0.591721,0.3429 0.873909,0.5362 0.282318,0.1927 0.554798,0.4001 0.816422,0.6203 0.26149,0.2201 0.511818,0.4534 0.750021,0.6987 0.238344,0.2453 0.464272,0.5023 0.676939,0.7701 0.212549,0.268 0.411549,0.5465 0.596274,0.8344 0.184638,0.2874 0.354804,0.5843 0.509819,0.8889 0.155142,0.3048 0.294962,0.6171 0.418908,0.9358 0.123998,0.3187 0.231957,0.6435 0.323538,0.9729 0.09136,0.3296 0.166165,0.6635 0.224172,1.0004 0.05824,0.3372 0.09958,0.6769 0.123869,1.018 0.01712,0.2413 0.02547,0.4834 0.02547,0.7255 2e-6,0.342 -0.01712,0.6838 -0.05126,1.024 -0.03403,0.3403 -0.08504,0.6785 -0.152873,1.0135 -0.06807,0.3352 -0.15283,0.6665 -0.254014,0.9934 -0.100924,0.3266 -0.218123,0.6483 -0.351171,0.9634 -0.133223,0.3149 -0.282104,0.6229 -0.446092,0.923 -0.164004,0.3001 -0.342954,0.5916 -0.536113,0.8739 -0.193028,0.2821 -0.400078,0.5548 -0.620337,0.8164 -0.220281,0.2614 -0.453497,0.5118 -0.698776,0.75 -0.245254,0.2385 -0.502256,0.4643 -0.770073,0.6768 -0.26797,0.212 -0.546401,0.4117 -0.83425,0.5964 -0.287676,0.1841 -0.584402,0.3549 -0.889069,0.5098 -0.304769,0.1542 -0.617114,0.295 -0.935854,0.4189 -0.318687,0.1242 -0.643374,0.2321 -0.972845,0.3237 -0.32955,0.092 -0.663457,0.1669 -1.000475,0.2243 -0.337006,0.058 -0.676718,0.098 -1.017855,0.1241 -0.24145,0.021 -0.483452,0.028 -0.725514,0.028 -0.342003,0 -0.683799,-0.021 -1.024094,-0.051 -0.340134,-0.034 -0.678357,-0.086 -1.0134,-0.152 -0.335138,-0.069 -0.666673,-0.1519 -0.993343,-0.254 -0.326817,-0.1007 -0.648383,-0.2182 -0.963487,-0.3513 -0.314885,-0.1327 -0.622917,-0.2819 -0.922934,-0.4461 -0.300059,-0.1648 -0.591724,-0.3429 -0.873914,-0.536 -0.282312,-0.1926 -0.554792,-0.4 -0.816421,-0.6203 -0.261491,-0.2202 -0.51182,-0.4535 -0.750025,-0.6988 -0.238342,-0.2451 -0.464269,-0.5022 -0.676934,-0.7702 -0.212549,-0.2677 -0.411547,-0.5462 -0.596272,-0.8341 -0.184638,-0.2877 -0.354801,-0.5844 -0.509821,-0.8892 -0.155142,-0.3046 -0.29496,-0.6171 -0.41891,-0.9358 -0.123998,-0.3187 -0.231979,-0.6434 -0.32354,-0.9728 -0.09136,-0.3295 -0.166165,-0.6634 -0.224172,-1.0005 -0.05824,-0.3371 -0.09958,-0.6766 -0.123869,-1.0178 -0.01712,-0.2414 -0.02547,-0.4835 -0.02547,-0.7256 -4e-6,-0.3418 0.01712,-0.6837 0.05126,-1.024 0.03403,-0.3401 0.08504,-0.6783 0.152852,-1.0135 0.06807,-0.335 0.152851,-0.6666 0.254017,-0.9932 0.100944,-0.3269 0.218125,-0.6484 0.351166,-0.9637 0.133245,-0.3148 0.282102,-0.6228 0.44609,-0.9227 0.164025,-0.3001 0.342956,-0.5919 0.536117,-0.874 0.193028,-0.2823 0.400076,-0.5548 0.620338,-0.8163 0.22028,-0.2616 0.453494,-0.512 0.698773,-0.7501 0.245256,-0.2386 0.502261,-0.4642 0.770079,-0.677 0.267967,-0.2119 0.546398,-0.4116 0.834247,-0.5963 0.287673,-0.1841 0.584399,-0.3547 0.889066,-0.5099 0.304774,-0.1541 0.617116,-0.2947 0.935857,-0.4189 0.318684,-0.1241 0.643371,-0.232 0.972846,-0.3234 0.329546,-0.092 0.663454,-0.167 1.000474,-0.2241 0.337007,-0.058 0.676716,-0.099 1.017854,-0.1242 0.241478,-0.021 0.48345,-0.028 0.72551,-0.028 z"
       id="rect4762"
       inkscape:connector-curvature="0"
       sodipodi:nodetypes="cccccccccccccccccccccccccsscccccccccccccccccccccccccccccccccccccccccccccccccccccccccccsssccccccccccccccccccccccccccccccccccccccccccccccccccccccccccccccccccccccccccccccccccccccccccccccccccccccccccccccccccccccccccccccccccccccccccccccccccccccccc" />
  </g>
</svg>
