<?xml version="1.0" encoding="UTF-8" standalone="no"?>
<!-- Created with Inkscape (http://www.inkscape.org/) -->

<svg
   xmlns:dc="http://purl.org/dc/elements/1.1/"
   xmlns:cc="http://creativecommons.org/ns#"
   xmlns:rdf="http://www.w3.org/1999/02/22-rdf-syntax-ns#"
   xmlns:svg="http://www.w3.org/2000/svg"
   xmlns="http://www.w3.org/2000/svg"
   xmlns:xlink="http://www.w3.org/1999/xlink"
   xmlns:sodipodi="http://sodipodi.sourceforge.net/DTD/sodipodi-0.dtd"
   xmlns:inkscape="http://www.inkscape.org/namespaces/inkscape"
   width="256"
   height="256"
   viewBox="0 0 256 256.00001"
   version="1.1"
   id="svg8"
   inkscape:version="0.92.5 (2060ec1f9f, 2020-04-08)"
   sodipodi:docname="banana.svg">
  <defs
     id="defs2">
    <linearGradient
       inkscape:collect="always"
       id="linearGradient4811">
      <stop
         style="stop-color:#fff988;stop-opacity:1"
         offset="0"
         id="stop4807" />
      <stop
         style="stop-color:#f2d027;stop-opacity:1"
         offset="1"
         id="stop4809" />
    </linearGradient>
    <linearGradient
       inkscape:collect="always"
       id="linearGradient4801">
      <stop
         style="stop-color:#b1a00e;stop-opacity:0.71777778"
         offset="0"
         id="stop4797" />
      <stop
         id="stop4805"
         offset="0.14712536"
         style="stop-color:#ac831a;stop-opacity:0.691" />
      <stop
         style="stop-color:#b8a11a;stop-opacity:0.562"
         offset="1"
         id="stop4799" />
    </linearGradient>
    <linearGradient
       inkscape:collect="always"
       xlink:href="#linearGradient4801"
       id="linearGradient4803"
       x1="57.263393"
       y1="114.53199"
       x2="70.492561"
       y2="138.439"
       gradientUnits="userSpaceOnUse"
       gradientTransform="translate(-20.410933,4.25234)" />
    <radialGradient
       inkscape:collect="always"
       xlink:href="#linearGradient4811"
       id="radialGradient4815"
       cx="187.08038"
       cy="71.609764"
       fx="187.08038"
       fy="71.609764"
       r="76.46682"
       gradientTransform="matrix(1,0,0,0.59630033,-78.992472,118.76523)"
       gradientUnits="userSpaceOnUse" />
    <radialGradient
       inkscape:collect="always"
       xlink:href="#linearGradient4811"
       id="radialGradient4863"
       gradientUnits="userSpaceOnUse"
       gradientTransform="matrix(1,0,0,0.59630033,-36.566065,960.2223)"
       cx="187.08038"
       cy="71.609764"
       fx="187.08038"
       fy="71.609764"
       r="76.46682" />
    <linearGradient
       inkscape:collect="always"
       xlink:href="#linearGradient4801"
       id="linearGradient4865"
       gradientUnits="userSpaceOnUse"
       gradientTransform="translate(22.015469,845.70941)"
       x1="57.263393"
       y1="114.53199"
       x2="70.492561"
       y2="138.439" />
  </defs>
  <sodipodi:namedview
     id="base"
     pagecolor="#ffffff"
     bordercolor="#666666"
     borderopacity="1.0"
     inkscape:pageopacity="0.0"
     inkscape:pageshadow="2"
     inkscape:zoom="1.4"
     inkscape:cx="104.19181"
     inkscape:cy="134.37067"
     inkscape:document-units="px"
     inkscape:current-layer="g4861"
     showgrid="false"
     showguides="false"
     inkscape:pagecheckerboard="true"
     units="px"
     inkscape:window-width="1366"
     inkscape:window-height="706"
     inkscape:window-x="-8"
     inkscape:window-y="-8"
     inkscape:window-maximized="1" />
  <metadata
     id="metadata5">
    <rdf:RDF>
      <cc:Work
         rdf:about="">
        <dc:format>image/svg+xml</dc:format>
        <dc:type
           rdf:resource="http://purl.org/dc/dcmitype/StillImage" />
        <dc:title></dc:title>
      </cc:Work>
    </rdf:RDF>
  </metadata>
  <g
     inkscape:label="Layer 1"
     inkscape:groupmode="layer"
     id="layer1"
     transform="translate(0,-866.51965)">
    <g
       id="g4861"
       transform="translate(-14.363095,0.3779761)">
      <g
         id="g4871"
         transform="matrix(1.5524464,0,0,1.5524464,-92.434635,-566.77444)">
        <path
           style="fill:url(#radialGradient4863);fill-opacity:1;stroke:none;stroke-width:0.26458332px;stroke-linecap:butt;stroke-linejoin:miter;stroke-opacity:1"
           d="m 226.84216,1006.1588 c -5.21176,22.5842 -26.07599,33.4494 -37.95227,37.8854 -11.36567,4.2453 -37.28737,6.3811 -55.59206,1.6704 -26.27538,-6.7619 -45.602531,-27.0763 -49.917331,-37.0033 -5.83645,-13.42786 0.43234,-23.99182 -0.39616,-29.32674 -0.8133,-6.41013 -2.44446,-10.32325 -5.9576,-13.94298 -1.16165,-1.19689 -2.11429,-0.38209 -2.80649,-1.95855 -0.54126,-1.64949 4.29757,-1.8393 8.22584,-3.67582 2.40121,-1.12259 3.362,-2.12661 4.11554,-2.29884 1.65364,-0.37798 1.68329,1.42413 1.68329,3.31401 0,1.88988 1.99526,6.60057 3.50716,9.62438 0.54354,1.08707 1.79898,4.45794 3.72662,6.92329 3.4343,4.39228 8.796791,9.09468 14.605231,15.56629 8.71245,9.70716 25.01209,19.27306 45.35714,21.54466 23.84123,2.6619 43.40684,-12.2601 50.17634,-14.2686 8.59895,-2.55135 17.10342,-3.11832 17.10342,-3.11832 z"
           id="path4758-5"
           inkscape:connector-curvature="0"
           sodipodi:nodetypes="cssscscsssssssscc" />
        <path
           style="fill:#fffd65;fill-opacity:1;stroke:none;stroke-width:0.26458332px;stroke-linecap:butt;stroke-linejoin:miter;stroke-opacity:1"
           d="m 86.853149,957.46239 c -0.0911,0.007 -0.1881,0.0224 -0.29145,0.046 -0.72674,0.1661 -1.6593,1.10708 -3.8778,2.18074 1.44871,2.48896 3.25574,5.80591 3.77651,7.7339 1.17307,4.34296 5.59046,11.34722 6.65954,13.08447 1.06908,1.73725 4.69119,9.46013 9.727061,14.27458 4.84511,4.63209 27.10127,29.76222 58.01971,29.53772 29.36406,-0.2132 43.2294,-13.288 44.76006,-14.1748 2.58208,-1.3991 12.26655,-6.1431 18.64744,-9.6346 l -1.55339,-3.41631 c 0,-1e-5 -8.5044,0.56681 -17.10335,3.11811 -6.7695,2.0086 -26.33504,16.9308 -50.17627,14.2689 -20.34505,-2.2715 -36.64447,-11.8377 -45.35692,-21.5449 -5.80844,-6.47161 -11.171011,-11.17421 -14.605311,-15.56649 -1.92764,-2.46535 -3.18337,-5.83603 -3.72691,-6.9231 -1.5119,-3.0238 -3.50676,-7.73434 -3.50676,-9.62421 0,-1.77177 -0.0263,-3.46655 -1.39216,-3.36001 z"
           id="path4758-9"
           inkscape:connector-curvature="0" />
        <path
           style="opacity:0.71799999;fill:url(#linearGradient4865);fill-opacity:1;stroke:none;stroke-width:0.26458332px;stroke-linecap:butt;stroke-linejoin:miter;stroke-opacity:1"
           d="m 86.853059,957.46272 c -0.0911,0.007 -0.1881,0.0224 -0.29145,0.046 -0.75354,0.17223 -1.7143,1.17597 -4.11551,2.29856 -3.92828,1.83652 -8.76712,2.02626 -8.22585,3.67575 0.6922,1.57646 1.6449,0.76164 2.80654,1.95853 3.51315,3.61973 5.14447,7.53321 5.95778,13.94334 0.27443,1.76714 -0.24017,4.15543 -0.82527,6.98407 4.44061,-0.0623 8.49094,-2.02484 10.44328,-3.11816 1.0136,-0.56761 2.85698,-2.15445 4.63745,-3.77961 -0.62923,-0.71127 -1.2214,-1.41088 -1.76114,-2.10116 -1.92764,-2.46535 -3.18336,-5.83603 -3.7269,-6.9231 -1.5119,-3.0238 -3.50676,-7.73434 -3.50676,-9.62421 0,-1.77177 -0.0263,-3.46655 -1.39217,-3.36001 z"
           id="path4758"
           inkscape:connector-curvature="0" />
        <path
           sodipodi:nodetypes="cccccc"
           inkscape:connector-curvature="0"
           style="opacity:1;fill:#3e2612;fill-opacity:1;stroke:none;stroke-width:0.26458332px;stroke-linecap:butt;stroke-linejoin:miter;stroke-opacity:1"
           d="m 222.72083,997.09408 c 0,0 -0.21218,0.0163 -0.53279,0.0434 l 4.51601,9.58852 c 0.0462,-0.189 0.094,-0.3767 0.13797,-0.5674 -0.58863,-1.9768 -0.21624,-2.9704 -1.08675,-5.1103 -0.6105,-1.55717 -2.49795,-2.77442 -3.03444,-3.95423 z"
           id="path4829" />
      </g>
    </g>
  </g>
</svg>
