<?xml version="1.0" encoding="UTF-8" standalone="no"?>
<!-- Created with Inkscape (http://www.inkscape.org/) -->

<svg
   xmlns:dc="http://purl.org/dc/elements/1.1/"
   xmlns:cc="http://creativecommons.org/ns#"
   xmlns:rdf="http://www.w3.org/1999/02/22-rdf-syntax-ns#"
   xmlns:svg="http://www.w3.org/2000/svg"
   xmlns="http://www.w3.org/2000/svg"
   xmlns:sodipodi="http://sodipodi.sourceforge.net/DTD/sodipodi-0.dtd"
   xmlns:inkscape="http://www.inkscape.org/namespaces/inkscape"
   width="512"
   height="512"
   viewBox="0 0 512 512.00002"
   version="1.1"
   id="svg8"
   sodipodi:docname="cheese.svg"
   inkscape:version="0.92.5 (2060ec1f9f, 2020-04-08)">
  <defs
     id="defs2" />
  <sodipodi:namedview
     id="base"
     pagecolor="#ffffff"
     bordercolor="#666666"
     borderopacity="1.0"
     inkscape:pageopacity="0.0"
     inkscape:pageshadow="2"
     inkscape:zoom="0.7"
     inkscape:cx="163.51061"
     inkscape:cy="221.76225"
     inkscape:document-units="px"
     inkscape:current-layer="layer1"
     showgrid="false"
     inkscape:window-width="1366"
     inkscape:window-height="706"
     inkscape:window-x="-8"
     inkscape:window-y="-8"
     inkscape:window-maximized="1"
     units="px"
     inkscape:pagecheckerboard="true" />
  <metadata
     id="metadata5">
    <rdf:RDF>
      <cc:Work
         rdf:about="">
        <dc:format>image/svg+xml</dc:format>
        <dc:type
           rdf:resource="http://purl.org/dc/dcmitype/StillImage" />
        <dc:title></dc:title>
      </cc:Work>
    </rdf:RDF>
  </metadata>
  <g
     inkscape:label="Layer 1"
     inkscape:groupmode="layer"
     id="layer1"
     transform="translate(0,-610.51965)">
    <path
       inkscape:connector-curvature="0"
       style="fill:#ffe680;stroke:#000000;stroke-width:0.15507509px;stroke-linecap:butt;stroke-linejoin:miter;stroke-opacity:1"
       d="m 458.7975,636.32433 c 0,0 -6.93229,-0.4551 -18.88699,-1.02517 0,0 -8.27139,9.45827 -10.98616,12.07793 -2.71476,2.61968 -13.63543,5.70953 -23.7762,2.73188 -10.14046,-2.97755 -28.04317,-16.79488 -28.04431,-16.79578 l -3.1e-4,-10e-6 c -17.42162,-0.28984 -36.79114,-0.40023 -57.31273,-0.16007 -24.89605,26.82657 -43.07137,45.31226 -83.26835,37.87962 -23.65236,-4.48114 -50.9028,-29.85217 -50.9028,-29.85217 -38.15196,4.30291 -61.37009,8.74198 -61.37009,8.74198 l 19.25251,453.89826 122.01953,3.5586 c -2.12627,-35.9004 -47.744,-127.89409 12.57597,-128.28979 60.36061,-0.39596 130.33091,-11.3665 144.65871,23.04019 14.30862,34.3606 7.15132,109.8412 7.13211,110.0434 l 55.94098,1.6315 -14.82602,-261.8789 -91.14371,-6.99358 c -8.72449,-0.66944 -15.20912,-8.23191 -14.53967,-16.95641 l 9.60885,-125.22728 c 0.66944,-8.7245 8.23194,-15.20942 16.95643,-14.53998 l 70.15426,5.38303 z"
       id="path4761-5" />
    <path
       inkscape:connector-curvature="0"
       style="opacity:0.169;fill:#ffdd55;stroke:none;stroke-width:0.15507509px;stroke-linecap:butt;stroke-linejoin:miter;stroke-opacity:1"
       d="m 458.79748,636.32463 c 0,0 -6.93229,-0.4551 -18.887,-1.02517 -1.64742,15.96071 -7.92308,30.5015 -25.80354,28.28997 -21.68732,-2.68239 -30.6948,-14.74836 -37.00342,-30.27594 -17.42163,-0.28988 -36.79113,-0.40056 -57.31271,-0.16038 -4.251,26.24566 -17.06285,54.72126 -51.83968,60.47465 -53.50527,8.85182 -70.35586,-11.89487 -82.33148,-52.4472 -38.15199,4.30288 -61.37009,8.74198 -61.37009,8.74198 l 13.24585,293.90211 c 5.86142,2.8187 39.24054,20.14905 37.16015,48.3803 -1.84814,25.07925 -11.34494,48.14445 -32.54247,54.08315 l 2.59967,57.6812 117.21727,3.3796 c 0.42999,-42.0181 18.34259,-85.0506 77.87461,-88.7001 66.12799,8.7569 86.9749,42.8837 93.13156,93.6304 l 52.8932,1.5252 -15.84214,-279.82866 c -22.89279,-7.76264 -42.49094,-19.62378 -49.60572,-55.25637 -4.90034,-24.54233 18.28857,-38.23214 43.88244,-45.83895 z m -207.648,135.63058 a 71.777602,66.017675 4.3877821 0 1 66.51653,71.31543 71.777602,66.017675 4.3877821 0 1 -76.61807,60.33283 71.777602,66.017675 4.3877821 0 1 -66.5162,-71.31571 71.777602,66.017675 4.3877821 0 1 76.61774,-60.33255 z m 147.56984,103.75296 a 35.445739,34.116524 4.3877821 0 1 32.73185,36.72836 35.445739,34.116524 4.3877821 0 1 -37.95211,31.30471 35.445739,34.116524 4.3877821 0 1 -32.73154,-36.72836 35.445739,34.116524 4.3877821 0 1 37.9518,-31.30471 z"
       id="path4761" />
    <path
       style="fill:#ffe680;stroke:none;stroke-width:0.15507509px;stroke-linecap:butt;stroke-linejoin:miter;stroke-opacity:1"
       d="m 124.2504,649.92145 -23.47571,93.59744 c 3.8675,4.07261 6.05658,9.70405 5.59107,15.77084 l -7.694874,100.28334 c -0.87324,11.38049 -10.73698,19.84021 -22.117481,18.96697 l -9.462419,-0.72606 -44.42833,177.13572 c 6.07632,7.5308 13.125236,14.8988 21.122386,21.1644 32.01133,25.08 100.928318,27.856 100.928318,27.856 z"
       id="path4763-5"
       inkscape:connector-curvature="0" />
    <path
       style="opacity:1;fill:#ffaa2b;fill-opacity:1;stroke:none;stroke-width:0.15507509px;stroke-linecap:butt;stroke-linejoin:miter;stroke-opacity:1"
       d="M 124.24995,649.92729 86.513991,800.37377 c 7.068625,14.62842 12.661593,32.84298 7.076875,48.58814 -2.985461,8.41702 -12.531911,14.60655 -23.839096,18.24917 l -38.534669,153.63102 70.015519,34.5948 c -7.987784,-9.227 -13.634082,-23.9966 -12.608261,-47.5474 2.141199,-49.15725 49.323351,-40.83437 49.323351,-40.83437 0,0 0.32453,0.14636 0.88673,0.41671 z m 19.20236,420.00671 c -0.28081,0.079 -0.56319,0.1561 -0.8481,0.2288 0,0 -4.83182,0.7096 -11.6029,-0.019 l 12.743,6.2981 z"
       id="path4763-59"
       inkscape:connector-curvature="0" />
    <path
       style="opacity:1;fill:#ffca3a;fill-opacity:1;stroke:none;stroke-width:0.15507509px;stroke-linecap:butt;stroke-linejoin:miter;stroke-opacity:1"
       d="M 124.25025,649.9234 90.941348,782.72914 c 4.71612,12.41497 6.787608,27.1493 1.312109,42.58653 -2.895585,8.16362 -8.728615,14.6728 -16.696189,18.74828 L 22.662656,1054.9497 c 6.07632,7.5308 13.125236,14.8988 21.122386,21.1644 32.011322,25.08 100.928318,27.856 100.928318,27.856 l -2.60041,-57.6824 c -0.28081,0.079 -0.56317,0.156 -0.8481,0.2287 0,0 -57.05974,8.433 -53.979998,-62.2713 2.141196,-49.15729 49.323498,-40.83636 49.323498,-40.83636 0,0 0.32452,0.14636 0.88673,0.41672 z"
       id="path4763"
       inkscape:connector-curvature="0" />
    <path
       inkscape:connector-curvature="0"
       style="opacity:1;fill:#ffaa2b;fill-opacity:1;stroke:none;stroke-width:0.15507509px;stroke-linecap:butt;stroke-linejoin:miter;stroke-opacity:1"
       d="m 460.13621,659.97084 c 0,0 -6.93229,-0.4551 -18.88698,-1.02515 -1.64743,15.9607 -7.92308,30.50149 -25.80354,28.28995 -21.68732,-2.68238 -30.6948,-14.74836 -37.00344,-30.27594 -17.42161,-0.28988 -36.79111,-0.40053 -57.3127,-0.16038 -4.25101,26.24568 -17.06286,54.72126 -51.83968,60.47467 -53.50528,8.85181 -70.35584,-11.8949 -82.33148,-52.44721 -38.15197,4.30287 -61.37009,8.74199 -61.37009,8.74199 l 13.24584,293.9021 c 5.86143,2.81869 39.24054,20.14907 37.16016,48.38033 -1.84813,25.0792 -11.34494,48.1445 -32.54248,54.0831 l 1.53434,34.0429 120.54046,3.4755 c 6.38072,-33.2668 27.27935,-62.1944 75.61675,-65.1576 55.21128,7.3111 78.8574,32.3078 88.74329,69.8966 l 55.94271,1.613 -14.50338,-256.18273 c -22.89278,-7.76266 -42.49093,-19.62378 -49.60569,-55.25638 -4.90037,-24.54233 18.28855,-38.23214 43.88241,-45.83894 z m -207.64799,135.6306 a 71.777603,66.017677 4.3877821 0 1 66.51653,71.31542 71.777603,66.017677 4.3877821 0 1 -76.61807,60.33283 71.777603,66.017677 4.3877821 0 1 -66.5162,-71.31571 71.777603,66.017677 4.3877821 0 1 76.61774,-60.33254 z m 147.56986,103.75294 a 35.445739,34.116524 4.3877821 0 1 32.73183,36.72838 35.445739,34.116524 4.3877821 0 1 -37.9521,31.30469 35.445739,34.116524 4.3877821 0 1 -32.73155,-36.72834 35.445739,34.116524 4.3877821 0 1 37.95182,-31.30473 z"
       id="path4761-51-4" />
    <path
       inkscape:connector-curvature="0"
       style="opacity:1;fill:#ffdd55;stroke:none;stroke-width:0.15507509px;stroke-linecap:butt;stroke-linejoin:miter;stroke-opacity:1"
       d="m 458.79748,636.32463 c 0,0 -6.93228,-0.4551 -18.887,-1.02516 -1.64742,15.96071 -7.92308,30.50149 -25.80353,28.28996 -21.68732,-2.68239 -30.69481,-14.74836 -37.00343,-30.27594 -17.42162,-0.28988 -36.79113,-0.40055 -57.3127,-0.16038 -4.25101,26.24567 -17.06286,54.72126 -51.83969,60.47466 -53.50527,8.85182 -70.35586,-11.89488 -82.33149,-52.4472 -38.15198,4.30287 -61.37007,8.74197 -61.37007,8.74197 l 13.24583,293.90212 c 5.86143,2.81869 39.24055,20.14905 37.16016,48.3803 -1.84814,25.07924 -11.34494,48.14444 -32.54247,54.08314 l 2.59967,57.6812 117.21728,3.3796 c 0.42999,-42.0181 18.34258,-85.0506 77.8746,-88.7001 66.128,8.7569 86.9749,42.8837 93.13156,93.6304 l 52.89321,1.5252 -15.84214,-279.82865 c -22.89279,-7.76265 -42.49095,-19.62379 -49.60572,-55.25637 -4.90035,-24.54233 18.28856,-38.23215 43.88244,-45.83895 z m -207.648,135.63058 a 71.777603,66.017677 4.3877821 0 1 66.51654,71.31543 71.777603,66.017677 4.3877821 0 1 -76.61808,60.33283 71.777603,66.017677 4.3877821 0 1 -66.5162,-71.31571 71.777603,66.017677 4.3877821 0 1 76.61774,-60.33255 z m 147.56985,103.75297 a 35.445739,34.116524 4.3877821 0 1 32.73185,36.72836 35.445739,34.116524 4.3877821 0 1 -37.95211,31.3047 35.445739,34.116524 4.3877821 0 1 -32.73155,-36.72835 35.445739,34.116524 4.3877821 0 1 37.95181,-31.30471 z"
       id="path4761-51" />
    <path
       inkscape:connector-curvature="0"
       style="opacity:1;fill:#ffc22a;fill-opacity:1;stroke:none;stroke-width:0.15507509px;stroke-linecap:butt;stroke-linejoin:miter;stroke-opacity:1"
       d="m 458.79748,636.32463 c 0,0 -6.93229,-0.4551 -18.887,-1.02517 -0.95812,9.28247 -3.48285,18.08327 -8.94424,23.3891 9.86844,0.3753 19.66728,0.80653 29.16997,1.28228 z m -81.69396,-3.01114 c -17.42162,-0.28988 -36.79112,-0.40056 -57.31271,-0.16038 -1.34156,8.28281 -3.53733,16.78713 -7.00547,24.72985 4.84666,-0.18599 9.74615,-0.35194 14.70019,-0.496 18.24164,-0.53041 42.41408,-0.39767 68.11297,0.20811 -9.14047,-5.54087 -14.38994,-14.17773 -18.49498,-24.28158 z m -191.48387,7.86707 c -38.15198,4.30288 -61.37009,8.74198 -61.37009,8.74198 l 1.17511,26.07175 c 22.16533,-3.26619 45.40684,-6.42197 70.08454,-9.20335 -3.86817,-7.30937 -7.01915,-15.8905 -9.88956,-25.61038 z"
       id="path4761-51-5" />
  </g>
</svg>
