<?xml version="1.0" encoding="UTF-8" standalone="no"?>
<!-- Created with Inkscape (http://www.inkscape.org/) -->

<svg
   xmlns:dc="http://purl.org/dc/elements/1.1/"
   xmlns:cc="http://creativecommons.org/ns#"
   xmlns:rdf="http://www.w3.org/1999/02/22-rdf-syntax-ns#"
   xmlns:svg="http://www.w3.org/2000/svg"
   xmlns="http://www.w3.org/2000/svg"
   xmlns:sodipodi="http://sodipodi.sourceforge.net/DTD/sodipodi-0.dtd"
   xmlns:inkscape="http://www.inkscape.org/namespaces/inkscape"
   width="256"
   height="256"
   viewBox="0 0 256 256"
   version="1.1"
   id="svg8"
   inkscape:version="0.92.5 (2060ec1f9f, 2020-04-08)"
   sodipodi:docname="coin_svg.svg">
  <defs
     id="defs2" />
  <sodipodi:namedview
     id="base"
     pagecolor="#ffffff"
     bordercolor="#666666"
     borderopacity="1.0"
     inkscape:pageopacity="0.0"
     inkscape:pageshadow="2"
     inkscape:zoom="0.7"
     inkscape:cx="150.6783"
     inkscape:cy="36.753167"
     inkscape:document-units="px"
     inkscape:current-layer="layer1"
     showgrid="false"
     units="px"
     inkscape:pagecheckerboard="true"
     inkscape:snap-global="false"
     inkscape:window-width="1366"
     inkscape:window-height="706"
     inkscape:window-x="-8"
     inkscape:window-y="-8"
     inkscape:window-maximized="1" />
  <metadata
     id="metadata5">
    <rdf:RDF>
      <cc:Work
         rdf:about="">
        <dc:format>image/svg+xml</dc:format>
        <dc:type
           rdf:resource="http://purl.org/dc/dcmitype/StillImage" />
        <dc:title></dc:title>
      </cc:Work>
    </rdf:RDF>
  </metadata>
  <g
     inkscape:label="Layer 1"
     inkscape:groupmode="layer"
     id="layer1"
     transform="translate(0,-229.26665)">
    <g
       id="g4852"
       transform="translate(1.5708698,-11.286)">
      <circle
         r="77.922775"
         cy="368.12408"
         cx="125.71484"
         id="path4751-4"
         style="opacity:1;fill:#ffcc00;fill-opacity:1;fill-rule:nonzero;stroke:none;stroke-width:36.36396027;stroke-linecap:round;stroke-linejoin:round;stroke-miterlimit:4;stroke-dasharray:none;stroke-dashoffset:0;stroke-opacity:1;paint-order:markers fill stroke" />
      <path
         id="path4751-8-8"
         transform="translate(0,229.26665)"
         d="m 128.74609,58.390625 a 83.693981,83.693981 0 0 0 -83.695309,83.693355 83.693981,83.693981 0 0 0 20.63086,54.93555 l 27.140625,-2.33008 a 63.703399,63.703399 0 0 1 -27.78125,-52.60547 63.703399,63.703399 0 0 1 63.705074,-63.703121 63.703399,63.703399 0 0 1 61.27539,46.345701 l 2.1211,-0.51172 L 187.5,98.5 188.35547,83.441406 A 83.693981,83.693981 0 0 0 128.74609,58.390625 Z"
         style="opacity:1;fill:#e29e00;fill-opacity:1;fill-rule:nonzero;stroke:none;stroke-width:39.05718994;stroke-linecap:round;stroke-linejoin:round;stroke-miterlimit:4;stroke-dasharray:none;stroke-dashoffset:0;stroke-opacity:1;paint-order:markers fill stroke"
         inkscape:connector-curvature="0" />
      <path
         transform="translate(0,229.26665)"
         id="path4751-8"
         d="m 125.71484,54.398438 a 84.45903,84.45903 0 0 0 -84.458981,84.458982 84.45903,84.45903 0 0 0 84.458981,84.45899 84.45903,84.45903 0 0 0 84.45899,-84.45899 84.45903,84.45903 0 0 0 -84.45899,-84.458982 z m 0,20.173828 A 64.285713,64.285713 0 0 1 190,138.85742 64.285713,64.285713 0 0 1 125.71484,203.14258 64.285713,64.285713 0 0 1 61.427734,138.85742 64.285713,64.285713 0 0 1 125.71484,74.572266 Z"
         style="opacity:1;fill:#ffee51;fill-opacity:1;fill-rule:nonzero;stroke:none;stroke-width:39.41421509;stroke-linecap:round;stroke-linejoin:round;stroke-miterlimit:4;stroke-dasharray:none;stroke-dashoffset:0;stroke-opacity:1;paint-order:markers fill stroke"
         inkscape:connector-curvature="0" />
      <g
         transform="matrix(1.5088791,0,0,1.5088791,-71.395472,-159.53889)"
         id="text4819-9"
         style="font-style:normal;font-variant:normal;font-weight:bold;font-stretch:normal;font-size:16px;line-height:1.25;font-family:sans-serif;-inkscape-font-specification:'sans-serif Bold';letter-spacing:0px;word-spacing:0px;fill:#e29e00;fill-opacity:1;stroke:none"
         aria-label="$">
        <path
           inkscape:connector-curvature="0"
           id="path4821-3"
           style="font-style:normal;font-variant:normal;font-weight:bold;font-stretch:normal;font-size:74.66666412px;font-family:Calibri;-inkscape-font-specification:'Calibri Bold';fill:#e29e00;fill-opacity:1"
           d="m 149.31473,361.29569 q 0,3.13541 -1.1302,5.65104 -1.09375,2.51562 -3.13542,4.33854 -2.04167,1.82291 -4.92188,2.91666 -2.8802,1.09375 -6.3802,1.38542 l -0.76563,7.80208 q -0.0365,0.29167 -0.18229,0.51042 -0.10938,0.21875 -0.47396,0.36458 -0.32812,0.14584 -0.94792,0.21875 -0.58333,0.10938 -1.49479,0.10938 -1.16666,0 -1.89583,-0.10938 -0.69271,-0.10937 -1.09375,-0.32812 -0.40104,-0.18229 -0.54687,-0.51042 -0.10938,-0.32812 -0.0365,-0.72916 l 0.76562,-7.40105 q -1.56771,-0.21875 -2.95312,-0.54687 -1.38542,-0.36458 -2.51563,-0.76563 -1.13021,-0.4375 -1.96875,-0.875 -0.80208,-0.4375 -1.23958,-0.83854 -0.40104,-0.4375 -0.58333,-1.23958 -0.1823,-0.83854 -0.1823,-2.44271 0,-1.23958 0.0729,-2.04166 0.0729,-0.80209 0.25521,-1.23959 0.18229,-0.4375 0.4375,-0.58333 0.29167,-0.18229 0.65625,-0.18229 0.47396,0 1.38542,0.54687 0.91145,0.54688 2.33333,1.20313 1.42187,0.65625 3.42708,1.20312 2.04167,0.54688 4.77604,0.54688 4.26563,0 6.34375,-1.56771 2.07813,-1.60417 2.07813,-4.22917 0,-1.75 -0.91146,-2.88021 -0.875,-1.1302 -2.36979,-1.96875 -1.49479,-0.875 -3.39063,-1.53125 -1.85937,-0.6927 -3.82812,-1.45833 -1.96875,-0.76562 -3.86458,-1.78646 -1.85938,-1.02083 -3.35417,-2.51562 -1.49479,-1.49479 -2.40625,-3.60938 -0.875,-2.15104 -0.875,-5.17708 0,-2.73438 0.91146,-4.95833 0.91146,-2.26042 2.625,-3.9375 1.71354,-1.67709 4.19271,-2.69792 2.51562,-1.05729 5.68749,-1.42188 l 0.72917,-7.32812 q 0.0365,-0.29167 0.14583,-0.47396 0.14584,-0.21875 0.47396,-0.36458 0.36459,-0.18229 0.94792,-0.25521 0.58333,-0.0729 1.53125,-0.0729 1.13021,0 1.85937,0.10938 0.76563,0.10937 1.16667,0.32812 0.40104,0.1823 0.51042,0.51042 0.10937,0.32812 0.10937,0.72917 l -0.72916,6.89062 q 1.02083,0.14583 2.15104,0.40104 1.13021,0.25521 2.11458,0.61979 0.98438,0.32813 1.78646,0.72917 0.80208,0.36458 1.09375,0.69271 0.32812,0.29167 0.47396,0.61979 0.18229,0.29167 0.25521,0.76563 0.10937,0.4375 0.14583,1.09375 0.0365,0.61979 0.0365,1.45833 0,1.13021 -0.0729,1.85937 -0.0365,0.72917 -0.18229,1.13021 -0.14583,0.36459 -0.32813,0.51042 -0.18229,0.10937 -0.4375,0.10937 -0.47395,0 -1.38541,-0.47395 -0.91146,-0.47396 -2.26042,-1.02084 -1.3125,-0.54687 -3.0625,-1.02083 -1.71354,-0.47396 -3.79167,-0.47396 -1.89583,0 -3.24479,0.36458 -1.34896,0.36459 -2.1875,1.02084 -0.83854,0.65625 -1.23958,1.56771 -0.40104,0.91145 -0.40104,2.0052 0,1.71355 0.91146,2.88021 0.91145,1.16667 2.40625,2.00521 1.53125,0.83854 3.42708,1.53125 1.93229,0.69271 3.90104,1.45833 2.00521,0.76563 3.90104,1.78646 1.93229,0.98438 3.42709,2.47917 1.49479,1.45833 2.40625,3.57292 0.91145,2.07812 0.91145,5.03125 z" />
      </g>
      <g
         transform="matrix(1.5088791,0,0,1.5088791,-75.680629,-163.46717)"
         id="text4819"
         style="font-style:normal;font-variant:normal;font-weight:bold;font-stretch:normal;font-size:16px;line-height:1.25;font-family:sans-serif;-inkscape-font-specification:'sans-serif Bold';letter-spacing:0px;word-spacing:0px;fill:#ffee51;fill-opacity:1;stroke:none"
         aria-label="$">
        <path
           inkscape:connector-curvature="0"
           id="path4821"
           style="font-style:normal;font-variant:normal;font-weight:bold;font-stretch:normal;font-size:74.66666412px;font-family:Calibri;-inkscape-font-specification:'Calibri Bold';fill:#ffee51;fill-opacity:1"
           d="m 149.31473,361.29569 q 0,3.13541 -1.1302,5.65104 -1.09375,2.51562 -3.13542,4.33854 -2.04167,1.82291 -4.92188,2.91666 -2.8802,1.09375 -6.3802,1.38542 l -0.76563,7.80208 q -0.0365,0.29167 -0.18229,0.51042 -0.10938,0.21875 -0.47396,0.36458 -0.32812,0.14584 -0.94792,0.21875 -0.58333,0.10938 -1.49479,0.10938 -1.16666,0 -1.89583,-0.10938 -0.69271,-0.10937 -1.09375,-0.32812 -0.40104,-0.18229 -0.54687,-0.51042 -0.10938,-0.32812 -0.0365,-0.72916 l 0.76562,-7.40105 q -1.56771,-0.21875 -2.95312,-0.54687 -1.38542,-0.36458 -2.51563,-0.76563 -1.13021,-0.4375 -1.96875,-0.875 -0.80208,-0.4375 -1.23958,-0.83854 -0.40104,-0.4375 -0.58333,-1.23958 -0.1823,-0.83854 -0.1823,-2.44271 0,-1.23958 0.0729,-2.04166 0.0729,-0.80209 0.25521,-1.23959 0.18229,-0.4375 0.4375,-0.58333 0.29167,-0.18229 0.65625,-0.18229 0.47396,0 1.38542,0.54687 0.91145,0.54688 2.33333,1.20313 1.42187,0.65625 3.42708,1.20312 2.04167,0.54688 4.77604,0.54688 4.26563,0 6.34375,-1.56771 2.07813,-1.60417 2.07813,-4.22917 0,-1.75 -0.91146,-2.88021 -0.875,-1.1302 -2.36979,-1.96875 -1.49479,-0.875 -3.39063,-1.53125 -1.85937,-0.6927 -3.82812,-1.45833 -1.96875,-0.76562 -3.86458,-1.78646 -1.85938,-1.02083 -3.35417,-2.51562 -1.49479,-1.49479 -2.40625,-3.60938 -0.875,-2.15104 -0.875,-5.17708 0,-2.73438 0.91146,-4.95833 0.91146,-2.26042 2.625,-3.9375 1.71354,-1.67709 4.19271,-2.69792 2.51562,-1.05729 5.68749,-1.42188 l 0.72917,-7.32812 q 0.0365,-0.29167 0.14583,-0.47396 0.14584,-0.21875 0.47396,-0.36458 0.36459,-0.18229 0.94792,-0.25521 0.58333,-0.0729 1.53125,-0.0729 1.13021,0 1.85937,0.10938 0.76563,0.10937 1.16667,0.32812 0.40104,0.1823 0.51042,0.51042 0.10937,0.32812 0.10937,0.72917 l -0.72916,6.89062 q 1.02083,0.14583 2.15104,0.40104 1.13021,0.25521 2.11458,0.61979 0.98438,0.32813 1.78646,0.72917 0.80208,0.36458 1.09375,0.69271 0.32812,0.29167 0.47396,0.61979 0.18229,0.29167 0.25521,0.76563 0.10937,0.4375 0.14583,1.09375 0.0365,0.61979 0.0365,1.45833 0,1.13021 -0.0729,1.85937 -0.0365,0.72917 -0.18229,1.13021 -0.14583,0.36459 -0.32813,0.51042 -0.18229,0.10937 -0.4375,0.10937 -0.47395,0 -1.38541,-0.47395 -0.91146,-0.47396 -2.26042,-1.02084 -1.3125,-0.54687 -3.0625,-1.02083 -1.71354,-0.47396 -3.79167,-0.47396 -1.89583,0 -3.24479,0.36458 -1.34896,0.36459 -2.1875,1.02084 -0.83854,0.65625 -1.23958,1.56771 -0.40104,0.91145 -0.40104,2.0052 0,1.71355 0.91146,2.88021 0.91145,1.16667 2.40625,2.00521 1.53125,0.83854 3.42708,1.53125 1.93229,0.69271 3.90104,1.45833 2.00521,0.76563 3.90104,1.78646 1.93229,0.98438 3.42709,2.47917 1.49479,1.45833 2.40625,3.57292 0.91145,2.07812 0.91145,5.03125 z" />
      </g>
    </g>
  </g>
</svg>
