<?xml version="1.0" encoding="UTF-8" standalone="no"?>
<svg
   xmlns:dc="http://purl.org/dc/elements/1.1/"
   xmlns:cc="http://creativecommons.org/ns#"
   xmlns:rdf="http://www.w3.org/1999/02/22-rdf-syntax-ns#"
   xmlns:svg="http://www.w3.org/2000/svg"
   xmlns="http://www.w3.org/2000/svg"
   xmlns:sodipodi="http://sodipodi.sourceforge.net/DTD/sodipodi-0.dtd"
   xmlns:inkscape="http://www.inkscape.org/namespaces/inkscape"
   height="512"
   viewBox="0 -75 512 512"
   width="512"
   version="1.1"
   id="svg40"
   sodipodi:docname="food_image_default.svg"
   inkscape:version="0.92.5 (2060ec1f9f, 2020-04-08)">
  <metadata
     id="metadata46">
    <rdf:RDF>
      <cc:Work
         rdf:about="">
        <dc:format>image/svg+xml</dc:format>
        <dc:type
           rdf:resource="http://purl.org/dc/dcmitype/StillImage" />
        <dc:title />
      </cc:Work>
    </rdf:RDF>
  </metadata>
  <defs
     id="defs44">
    <pattern
       y="0"
       x="0"
       height="6"
       width="6"
       patternUnits="userSpaceOnUse"
       id="EMFhbasepattern" />
  </defs>
  <sodipodi:namedview
     pagecolor="#ffffff"
     bordercolor="#666666"
     borderopacity="1"
     objecttolerance="10"
     gridtolerance="10"
     guidetolerance="10"
     inkscape:pageopacity="0"
     inkscape:pageshadow="2"
     inkscape:window-width="1366"
     inkscape:window-height="706"
     id="namedview42"
     showgrid="false"
     inkscape:zoom="0.9777961"
     inkscape:cx="-107.43681"
     inkscape:cy="234.57411"
     inkscape:window-x="-8"
     inkscape:window-y="-8"
     inkscape:window-maximized="1"
     inkscape:current-layer="svg40"
     units="px" />
  <rect
     style="opacity:1;fill:none;fill-opacity:1;fill-rule:nonzero;stroke:none;stroke-width:0;stroke-linecap:butt;stroke-linejoin:round;stroke-miterlimit:4;stroke-dasharray:none;stroke-dashoffset:0;stroke-opacity:1;paint-order:markers fill stroke"
     id="rect5272-9"
     width="512"
     height="512"
     x="3.8407295"
     y="-77.216591"
     ry="0" />
  <g
     id="g4832"
     transform="matrix(0.78212237,-0.03994569,0.03994569,0.78212237,165.79159,-79.380944)">
    <rect
       id="rect5309"
       width="255.13202"
       height="255.13202"
       x="128.43398"
       y="53.434002"
       style="fill:none;stroke-width:10.63050079" />
    <path
       inkscape:connector-curvature="0"
       style="fill:#ffe680;fill-opacity:1;fill-rule:nonzero;stroke:#000000;stroke-width:0.15999882px;stroke-linecap:butt;stroke-linejoin:miter;stroke-miterlimit:4;stroke-dasharray:none;stroke-opacity:1"
       d="m 291.29574,110.19792 c 0,0 -6.95995,-0.39999 -18.87986,-1.03999 0,0 -8.31994,9.51993 -11.03992,12.07991 -2.71998,2.63998 -13.5999,5.75996 -23.75982,2.79998 -10.15993,-3.03998 -27.9998,-16.79988 -27.9998,-16.79988 v 0 c -17.43987,-0.31999 -36.79972,-0.39999 -57.35957,-0.15999 -24.87982,26.7998 -43.03968,45.27966 -83.279384,37.83972 -23.59983,-4.47997 -50.87963,-29.83978 -50.87963,-29.83978 -38.15971,4.31996 -61.35954,8.71993 -61.35954,8.71993 l 19.19986,453.91664 122.07909,3.51998 c -2.15998,-35.83974 -47.75965,-127.83906 12.559914,-128.23905 60.31955,-0.4 130.31903,-11.35992 144.63893,23.03983 14.31989,34.31974 7.19994,109.83918 7.11994,109.99918 l 55.99959,1.67999 -14.87989,-261.91806 -91.11933,-6.95995 c -8.71993,-0.72 -15.19988,-8.23994 -14.55989,-16.95987 l 9.59993,-125.19908 c 0.72,-8.79993 8.23994,-15.27989 16.95988,-14.55989 l 70.15948,5.35996 z"
       id="path4792" />
    <path
       inkscape:connector-curvature="0"
       style="fill:#ffdd55;fill-opacity:1;fill-rule:nonzero;stroke:none"
       d="m 291.29574,110.19792 c 0,0 -6.95995,-0.39999 -18.87986,-1.03999 -1.67999,15.99988 -7.91994,30.55977 -25.83981,28.31979 -21.67984,-2.63998 -30.71977,-14.71989 -36.95973,-30.23978 -17.43987,-0.31999 -36.79972,-0.39999 -57.35957,-0.15999 -4.23997,26.2398 -17.03987,54.71959 -51.83962,60.47955 -53.519604,8.79993 -70.319484,-11.91991 -82.319394,-52.47961 -38.15971,4.31996 -61.35954,8.71993 -61.35954,8.71993 l 13.1999,293.91783 c 5.91996,2.79998 39.2797097,20.15985 37.1997197,48.39964 -1.83998,25.03981 -11.35991,48.15964 -32.5597497,54.0796 l 2.63998,57.67957 117.19913,3.35998 c 0.39999,-41.99969 18.319864,-85.03937 77.839424,-88.71935 66.15951,8.79994 86.95936,42.87969 93.11931,93.67931 l 52.95961,1.51999 -15.83988,-279.83793 c -22.95983,-7.75994 -42.55969,-19.59985 -49.67964,-55.27959 -4.87996,-24.55982 18.31987,-38.23972 43.91968,-45.83966 z m -207.678464,135.679 c 39.519704,3.03998 69.279484,34.95974 66.559504,71.27947 -2.79997,36.39973 -37.11972,63.35953 -76.639434,60.31956 C 34.017636,374.43597 4.1778657,342.5162 6.9778457,306.19647 9.7778157,269.79674 44.097566,242.83694 83.617276,245.87692 Z M 231.21618,349.63615 c 19.51986,1.43999 34.15975,17.91987 32.71976,36.71973 -1.43999,18.71986 -18.47986,32.79976 -37.99972,31.27977 -19.51985,-1.51999 -34.15974,-17.91987 -32.71975,-36.71973 1.43999,-18.79986 18.47986,-32.79976 37.99971,-31.27977 z"
       id="path4794" />
    <path
       inkscape:connector-curvature="0"
       style="fill:#ffe680;fill-opacity:1;fill-rule:nonzero;stroke:none"
       d="m -43.261784,123.79782 -23.519828,93.59931 c 3.919971,4.07997 6.079955,9.67993 5.599958,15.75988 l -7.679943,100.31926 c -0.879993,11.35992 -10.719921,19.83985 -22.079836,18.95986 l -9.519927,-0.71999 -44.39967,177.11868 c 6.07995,7.51995 13.1199,14.87989 21.11984,21.19985 31.999763,25.03981 100.959256,27.83979 100.959256,27.83979 z"
       id="path4796" />
    <path
       inkscape:connector-curvature="0"
       style="fill:#ffaa2b;fill-opacity:1;fill-rule:nonzero;stroke:none"
       d="m -43.261784,123.79782 -37.759723,150.47889 c 7.039948,14.63989 12.639906,32.79976 7.119947,48.55964 -3.039977,8.39994 -12.559907,14.63989 -23.839823,18.23986 l -38.559717,153.67887 69.999484,34.55974 c -7.999941,-9.19993 -13.599899,-23.99982 -12.559907,-47.51965 2.079985,-49.19963 49.279639,-40.87969 49.279639,-40.87969 0,0 0.31999,0.15999 0.87999,0.47999 z m 19.19986,419.99689 c -0.32,0.08 -0.56,0.16 -0.88,0.24 0,0 -4.79996,0.72 -11.59991,0 l 12.7999,6.31995 z"
       id="path4798" />
    <path
       inkscape:connector-curvature="0"
       style="fill:#ffca3a;fill-opacity:1;fill-rule:nonzero;stroke:none"
       d="m -43.261784,123.79782 -33.359755,132.79902 c 4.719965,12.39991 6.799949,27.1998 1.359989,42.63968 -2.879978,8.15994 -8.719935,14.6399 -16.719876,18.71987 l -52.879604,210.87843 c 6.07995,7.51995 13.1199,14.87989 21.11984,21.19985 31.999763,25.03981 100.959256,27.83979 100.959256,27.83979 l -2.63998,-57.67957 c -0.24,0.08 -0.56,0.16 -0.8,0.24 0,0 -57.119576,8.39993 -53.999599,-62.31954 2.159984,-49.11964 49.279639,-40.7997 49.279639,-40.7997 0,0 0.31999,0.16 0.87999,0.4 z"
       id="path4800" />
    <path
       inkscape:connector-curvature="0"
       style="fill:#ffaa2b;fill-opacity:1;fill-rule:nonzero;stroke:none"
       d="m 292.57573,133.87775 c 0,0 -6.87995,-0.48 -18.87986,-1.04 -1.59999,15.99989 -7.91994,30.47978 -25.75981,28.3198 -21.67984,-2.71998 -30.71977,-14.7999 -37.03973,-30.31978 -17.43987,-0.24 -36.79972,-0.4 -57.27957,-0.16 -4.23997,26.23981 -17.03987,54.7196 -51.83962,60.47955 -53.519604,8.87994 -70.399484,-11.91991 -82.319394,-52.39961 -38.15971,4.23997 -61.35954,8.71994 -61.35954,8.71994 l 13.1999,293.91782 c 5.83996,2.79998 39.27971,20.07985 37.1997197,48.31964 -1.83998,25.11982 -11.35991,48.15965 -32.5597497,54.0796 l 1.51998,34.07975 120.55911,3.43998 c 6.399954,-33.19976 27.279804,-62.15954 75.599444,-65.11952 55.19959,7.27994 78.87942,32.31976 88.71934,69.91948 l 55.99959,1.59999 -14.55989,-256.2381 c -22.87983,-7.75995 -42.47969,-19.59986 -49.59964,-55.1996 -4.87996,-24.55981 18.31987,-38.23971 43.91968,-45.83966 z m -207.598464,135.599 c 39.519704,3.03997 69.279484,34.95974 66.479514,71.35947 -2.79998,36.31973 -37.03973,63.35953 -76.559444,60.31955 C 35.297636,398.11579 5.5378557,366.19603 8.3378357,329.7963 11.137806,293.47657 45.457556,266.43677 84.977266,269.47675 Z M 232.49617,373.23598 c 19.51986,1.51999 34.23975,17.91986 32.79976,36.71972 -1.43999,18.79987 -18.47986,32.79976 -37.99972,31.35977 -19.51985,-1.51999 -34.15974,-17.99986 -32.71975,-36.79973 1.43998,-18.71986 18.39986,-32.79975 37.91971,-31.27976 z"
       id="path4802" />
    <path
       inkscape:connector-curvature="0"
       style="fill:#ffdd55;fill-opacity:1;fill-rule:nonzero;stroke:none"
       d="m 291.29574,110.19792 c 0,0 -6.95995,-0.39999 -18.87986,-1.03999 -1.67999,15.99988 -7.91994,30.55977 -25.83981,28.31979 -21.67984,-2.63998 -30.71977,-14.71989 -36.95973,-30.23978 -17.43987,-0.31999 -36.79972,-0.39999 -57.35957,-0.15999 -4.23997,26.2398 -17.03987,54.71959 -51.83962,60.47955 -53.519604,8.79993 -70.319484,-11.91991 -82.319394,-52.47961 -38.15971,4.31996 -61.35954,8.71993 -61.35954,8.71993 l 13.1999,293.91783 c 5.91996,2.79998 39.2797097,20.15985 37.1997197,48.39964 -1.83998,25.03981 -11.35991,48.15964 -32.5597497,54.0796 l 2.63998,57.67957 117.19913,3.35998 c 0.39999,-41.99969 18.319864,-85.03937 77.839424,-88.71935 66.15951,8.79994 86.95936,42.87969 93.11931,93.67931 l 52.95961,1.51999 -15.83988,-279.83793 c -22.95983,-7.75994 -42.55969,-19.59985 -49.67964,-55.27959 -4.87996,-24.55982 18.31987,-38.23972 43.91968,-45.83966 z m -207.678464,135.679 c 39.519704,3.03998 69.279484,34.95974 66.559504,71.27947 -2.79997,36.39973 -37.11972,63.35953 -76.639434,60.31956 C 34.017636,374.43597 4.1778657,342.5162 6.9778457,306.19647 9.7778157,269.79674 44.097566,242.83694 83.617276,245.87692 Z M 231.21618,349.63615 c 19.51986,1.43999 34.15975,17.91987 32.71976,36.71973 -1.43999,18.71986 -18.47986,32.79976 -37.99972,31.27977 -19.51985,-1.51999 -34.15974,-17.91987 -32.71975,-36.71973 1.43999,-18.79986 18.47986,-32.79976 37.99971,-31.27977 z"
       id="path4804" />
    <path
       inkscape:connector-curvature="0"
       style="fill:#ffc22a;fill-opacity:1;fill-rule:nonzero;stroke:none"
       d="m 291.29574,110.19792 c 0,0 -6.95995,-0.39999 -18.87986,-1.03999 -0.95999,9.27993 -3.51997,18.07987 -8.95993,23.43983 9.83992,0.31999 19.67985,0.79999 29.11978,1.27999 z m -81.6794,-2.95998 c -17.43987,-0.31999 -36.79972,-0.39999 -57.35957,-0.15999 -1.35999,8.23993 -3.51997,16.71987 -6.95995,24.71981 4.79997,-0.24 9.67993,-0.39999 14.63989,-0.47999 18.23987,-0.56 42.39969,-0.4 68.1595,0.15999 -9.19993,-5.51995 -14.3999,-14.15989 -18.47987,-24.23982 z m -191.518584,7.83995 c -38.15971,4.31996 -61.35954,8.71993 -61.35954,8.71993 l 1.19999,26.07981 c 22.15983,-3.27998 45.3596597,-6.39995 70.07948,-9.19993 -3.91997,-7.27995 -7.03995,-15.91989 -9.91993,-25.59981 z"
       id="path4806" />
  </g>
  <rect
     style="opacity:0.527;fill:#ececec;fill-opacity:1;fill-rule:nonzero;stroke:none;stroke-width:0;stroke-linecap:butt;stroke-linejoin:round;stroke-miterlimit:4;stroke-dasharray:none;stroke-dashoffset:0;stroke-opacity:1;paint-order:markers fill stroke"
     id="rect5272"
     width="512"
     height="512"
     x="0"
     y="-75"
     ry="0" />
  <path
     inkscape:connector-curvature="0"
     d="M 170.99329,100.38861 V 69.030699 h 20.90527 v 31.357911 h 31.35794 v 20.90529 h -31.35794 v 31.35791 H 170.99329 V 121.2939 h -31.35791 v -20.90529 z m 31.35793,62.71584 v -31.35792 h 31.35792 v -31.35792 h 73.16847 l 19.12833,20.90529 h 33.13485 c 11.49791,0 20.90528,9.40737 20.90528,20.90527 v 125.43166 c 0,11.4979 -9.40737,20.90528 -20.90528,20.90528 H 191.89856 c -11.49789,0 -20.90527,-9.40738 -20.90527,-20.90528 V 163.10445 Z m 73.16846,94.07374 c 28.84929,0 52.26321,-23.41391 52.26321,-52.26319 0,-28.84929 -23.41392,-52.26319 -52.26321,-52.26319 -28.84927,0 -52.26318,23.4139 -52.26318,52.26319 0,28.84928 23.41391,52.26319 52.26318,52.26319 z M 242.07124,204.915 c 0,18.50116 14.94728,33.44844 33.44844,33.44844 18.50118,0 33.44846,-14.94728 33.44846,-33.44844 0,-18.50117 -14.94728,-33.44845 -33.44846,-33.44845 -18.50116,0 -33.44844,14.94728 -33.44844,33.44845 z"
     id="path5311"
     style="fill:#666666;stroke-width:10.45263958" />
</svg>
