<?xml version="1.0" encoding="UTF-8" standalone="no"?>
<!-- Created with Inkscape (http://www.inkscape.org/) -->

<svg
   xmlns:dc="http://purl.org/dc/elements/1.1/"
   xmlns:cc="http://creativecommons.org/ns#"
   xmlns:rdf="http://www.w3.org/1999/02/22-rdf-syntax-ns#"
   xmlns:svg="http://www.w3.org/2000/svg"
   xmlns="http://www.w3.org/2000/svg"
   xmlns:sodipodi="http://sodipodi.sourceforge.net/DTD/sodipodi-0.dtd"
   xmlns:inkscape="http://www.inkscape.org/namespaces/inkscape"
   width="128"
   height="128"
   viewBox="0 0 128 128"
   version="1.1"
   id="svg9631"
   inkscape:version="0.92.5 (2060ec1f9f, 2020-04-08)"
   sodipodi:docname="grid_on_ic.svg">
  <defs
     id="defs9625" />
  <sodipodi:namedview
     id="base"
     pagecolor="#ffffff"
     bordercolor="#666666"
     borderopacity="1.0"
     inkscape:pageopacity="0.0"
     inkscape:pageshadow="2"
     inkscape:zoom="1.4"
     inkscape:cx="11.545606"
     inkscape:cy="51.036506"
     inkscape:document-units="px"
     inkscape:current-layer="layer1"
     showgrid="false"
     units="px"
     inkscape:pagecheckerboard="true"
     showguides="true"
     inkscape:guide-bbox="true"
     inkscape:window-width="1366"
     inkscape:window-height="706"
     inkscape:window-x="-8"
     inkscape:window-y="-8"
     inkscape:window-maximized="1" />
  <metadata
     id="metadata9628">
    <rdf:RDF>
      <cc:Work
         rdf:about="">
        <dc:format>image/svg+xml</dc:format>
        <dc:type
           rdf:resource="http://purl.org/dc/dcmitype/StillImage" />
        <dc:title></dc:title>
      </cc:Work>
    </rdf:RDF>
  </metadata>
  <g
     inkscape:label="Layer 1"
     inkscape:groupmode="layer"
     id="layer1"
     transform="translate(0,-263.13332)">
    <g
       id="g14249"
       transform="translate(1.9383259,-0.30735779)">
      <path
         style="opacity:1;fill:#000000;fill-opacity:1;fill-rule:nonzero;stroke:none;stroke-width:12.60349846;stroke-linecap:round;stroke-linejoin:bevel;stroke-miterlimit:4;stroke-dasharray:none;stroke-dashoffset:0;stroke-opacity:0;paint-order:markers fill stroke"
         d="m 37.279214,287.06992 a 15.639607,15.639607 0 0 1 -15.639608,15.6396 15.639607,15.639607 0 0 1 -15.639607,-15.6396 15.639607,15.639607 0 0 1 15.639607,-15.63961 15.639607,15.639607 0 0 1 15.639608,15.63961 z"
         id="path14108" />
      <path
         style="opacity:1;fill:#000000;fill-opacity:1;fill-rule:nonzero;stroke:none;stroke-width:12.60349846;stroke-linecap:round;stroke-linejoin:bevel;stroke-miterlimit:4;stroke-dasharray:none;stroke-dashoffset:0;stroke-opacity:0;paint-order:markers fill stroke"
         d="m 37.279214,327.44067 a 15.639607,15.639607 0 0 1 -15.639608,15.63961 15.639607,15.639607 0 0 1 -15.639607,-15.63961 15.639607,15.639607 0 0 1 15.639607,-15.6396 15.639607,15.639607 0 0 1 15.639608,15.6396 z"
         id="path14108-5" />
      <path
         style="opacity:1;fill:#000000;fill-opacity:1;fill-rule:nonzero;stroke:none;stroke-width:12.60349846;stroke-linecap:round;stroke-linejoin:bevel;stroke-miterlimit:4;stroke-dasharray:none;stroke-dashoffset:0;stroke-opacity:0;paint-order:markers fill stroke"
         d="M 37.279214,367.81146 A 15.639607,15.639607 0 0 1 21.639606,383.45107 15.639607,15.639607 0 0 1 5.999999,367.81146 15.639607,15.639607 0 0 1 21.639606,352.17185 15.639607,15.639607 0 0 1 37.279214,367.81146 Z"
         id="path14108-19" />
      <path
         transform="matrix(0,-1,-1,0,0,0)"
         style="opacity:1;fill:#000000;fill-opacity:1;fill-rule:nonzero;stroke:none;stroke-width:12.60349846;stroke-linecap:round;stroke-linejoin:bevel;stroke-miterlimit:4;stroke-dasharray:none;stroke-dashoffset:0;stroke-opacity:0;paint-order:markers fill stroke"
         d="m -271.54426,-62.112926 a 15.639607,15.639607 0 0 1 -15.63961,15.639607 15.639607,15.639607 0 0 1 -15.63961,-15.639607 15.639607,15.639607 0 0 1 15.63961,-15.639608 15.639607,15.639607 0 0 1 15.63961,15.639608 z"
         id="path14108-5-7" />
      <path
         transform="matrix(0,-1,-1,0,0,0)"
         style="opacity:1;fill:#000000;fill-opacity:1;fill-rule:nonzero;stroke:none;stroke-width:12.60349846;stroke-linecap:round;stroke-linejoin:bevel;stroke-miterlimit:4;stroke-dasharray:none;stroke-dashoffset:0;stroke-opacity:0;paint-order:markers fill stroke"
         d="m -271.54426,-102.48374 a 15.639607,15.639607 0 0 1 -15.63961,15.639606 15.639607,15.639607 0 0 1 -15.63961,-15.639606 15.639607,15.639607 0 0 1 15.63961,-15.63961 15.639607,15.639607 0 0 1 15.63961,15.63961 z"
         id="path14108-19-4" />
      <path
         transform="matrix(0,-1,-1,0,0,0)"
         style="opacity:1;fill:#000000;fill-opacity:1;fill-rule:nonzero;stroke:none;stroke-width:12.60349846;stroke-linecap:round;stroke-linejoin:bevel;stroke-miterlimit:4;stroke-dasharray:none;stroke-dashoffset:0;stroke-opacity:0;paint-order:markers fill stroke"
         d="m -311.796,-62.016556 a 15.639607,15.639607 0 0 1 -15.63961,15.639608 15.639607,15.639607 0 0 1 -15.63961,-15.639608 15.639607,15.639607 0 0 1 15.63961,-15.639607 15.639607,15.639607 0 0 1 15.63961,15.639607 z"
         id="path14108-5-7-8" />
      <path
         transform="matrix(0,-1,-1,0,0,0)"
         style="opacity:1;fill:#000000;fill-opacity:1;fill-rule:nonzero;stroke:none;stroke-width:12.60349846;stroke-linecap:round;stroke-linejoin:bevel;stroke-miterlimit:4;stroke-dasharray:none;stroke-dashoffset:0;stroke-opacity:0;paint-order:markers fill stroke"
         d="m -311.796,-102.38737 a 15.639607,15.639607 0 0 1 -15.63961,15.63961 15.639607,15.639607 0 0 1 -15.63961,-15.63961 15.639607,15.639607 0 0 1 15.63961,-15.6396 15.639607,15.639607 0 0 1 15.63961,15.6396 z"
         id="path14108-19-4-9" />
      <path
         transform="matrix(0,-1,-1,0,0,0)"
         style="opacity:1;fill:#000000;fill-opacity:1;fill-rule:nonzero;stroke:none;stroke-width:12.60349846;stroke-linecap:round;stroke-linejoin:bevel;stroke-miterlimit:4;stroke-dasharray:none;stroke-dashoffset:0;stroke-opacity:0;paint-order:markers fill stroke"
         d="m -352.08125,-61.945656 a 15.639607,15.639607 0 0 1 -15.63961,15.639608 15.639607,15.639607 0 0 1 -15.6396,-15.639608 15.639607,15.639607 0 0 1 15.6396,-15.639607 15.639607,15.639607 0 0 1 15.63961,15.639607 z"
         id="path14108-5-7-3" />
      <path
         transform="matrix(0,-1,-1,0,0,0)"
         style="opacity:1;fill:#000000;fill-opacity:1;fill-rule:nonzero;stroke:none;stroke-width:12.60349846;stroke-linecap:round;stroke-linejoin:bevel;stroke-miterlimit:4;stroke-dasharray:none;stroke-dashoffset:0;stroke-opacity:0;paint-order:markers fill stroke"
         d="m -352.08125,-102.31647 a 15.639607,15.639607 0 0 1 -15.63961,15.63961 15.639607,15.639607 0 0 1 -15.6396,-15.63961 15.639607,15.639607 0 0 1 15.6396,-15.6396 15.639607,15.639607 0 0 1 15.63961,15.6396 z"
         id="path14108-19-4-3" />
    </g>
  </g>
</svg>
