<?xml version="1.0" encoding="UTF-8" standalone="no"?>
<svg
   xmlns:dc="http://purl.org/dc/elements/1.1/"
   xmlns:cc="http://creativecommons.org/ns#"
   xmlns:rdf="http://www.w3.org/1999/02/22-rdf-syntax-ns#"
   xmlns:svg="http://www.w3.org/2000/svg"
   xmlns="http://www.w3.org/2000/svg"
   xmlns:sodipodi="http://sodipodi.sourceforge.net/DTD/sodipodi-0.dtd"
   xmlns:inkscape="http://www.inkscape.org/namespaces/inkscape"
   height="24"
   viewBox="0 0 24 24"
   width="24"
   version="1.1"
   id="svg6"
   sodipodi:docname="lower_ic3.svg"
   inkscape:version="0.92.5 (2060ec1f9f, 2020-04-08)">
  <metadata
     id="metadata12">
    <rdf:RDF>
      <cc:Work
         rdf:about="">
        <dc:format>image/svg+xml</dc:format>
        <dc:type
           rdf:resource="http://purl.org/dc/dcmitype/StillImage" />
        <dc:title />
      </cc:Work>
    </rdf:RDF>
  </metadata>
  <defs
     id="defs10" />
  <sodipodi:namedview
     pagecolor="#ffffff"
     bordercolor="#666666"
     borderopacity="1"
     objecttolerance="10"
     gridtolerance="10"
     guidetolerance="10"
     inkscape:pageopacity="0"
     inkscape:pageshadow="2"
     inkscape:window-width="1366"
     inkscape:window-height="706"
     id="namedview8"
     showgrid="false"
     showguides="true"
     inkscape:guide-bbox="true"
     inkscape:zoom="19.666667"
     inkscape:cx="19.935611"
     inkscape:cy="10.446355"
     inkscape:window-x="-8"
     inkscape:window-y="-8"
     inkscape:window-maximized="1"
     inkscape:current-layer="svg6">
    <sodipodi:guide
       position="5,12"
       orientation="0,1"
       id="guide4748"
       inkscape:locked="false" />
    <sodipodi:guide
       position="5,10"
       orientation="0,1"
       id="guide4750"
       inkscape:locked="false" />
    <sodipodi:guide
       position="10,3"
       orientation="1,0"
       id="guide4755"
       inkscape:locked="false" />
    <sodipodi:guide
       position="14.830078,16.240234"
       orientation="-0.70710678,0.70710678"
       id="guide4757"
       inkscape:locked="false"
       inkscape:label=""
       inkscape:color="rgb(0,0,255)" />
    <sodipodi:guide
       position="16.24,14.830078"
       orientation="-0.70710678,0.70710678"
       id="guide4777"
       inkscape:locked="false"
       inkscape:label=""
       inkscape:color="rgb(0,0,255)" />
  </sodipodi:namedview>
  <path
     d="M0 0h24v24H0z"
     fill="none"
     id="path2" />
  <path
     d="M 5 3 C 3.9 3 3 3.9 3 5 L 3 10 L 5 10 L 5 5 L 14.771484 5 L 16.769531 3 L 5 3 z M 19.515625 3.0742188 L 17.589844 5 L 14.441406 8.1484375 L 5 17.589844 L 5 12 L 3 12 L 3 21 L 12 21 L 12 19 L 6.4101562 19 L 16.505859 8.9042969 L 19 6.4101562 L 20.923828 4.484375 C 20.740182 3.7982154 20.202905 3.2594356 19.515625 3.0742188 z M 21 7.2304688 L 19 9.2304688 L 19 19 L 14 19 L 14 21 L 19 21 C 20.11 21 21 20.1 21 19 L 21 7.2304688 z "
     id="path4" />
</svg>
